<?xml version="1.0" encoding="UTF-8"?>
<!DOCTYPE svg PUBLIC "-//W3C//DTD SVG 1.1//EN" "http://www.w3.org/Graphics/SVG/1.1/DTD/svg11.dtd">
<svg xmlns="http://www.w3.org/2000/svg" version="1.1" width="689px" height="723px" style="shape-rendering:geometricPrecision; text-rendering:geometricPrecision; image-rendering:optimizeQuality; fill-rule:evenodd; clip-rule:evenodd" xmlns:xlink="http://www.w3.org/1999/xlink">
<g><path style="opacity:1" fill="#040404" d="M 329.5,23.5 C 335.853,22.9011 341.853,24.0678 347.5,27C 443.717,68.9419 540.05,110.609 636.5,152C 644.584,156.154 648.917,162.821 649.5,172C 638.761,280.797 628.261,389.63 618,498.5C 617.605,502.019 616.605,505.352 615,508.5C 609.483,513.681 603.65,518.514 597.5,523C 512.675,582.58 427.675,641.913 342.5,701C 337.167,703 331.833,703 326.5,701C 241.325,641.913 156.325,582.58 71.5,523C 65.3503,518.514 59.5169,513.681 54,508.5C 52.3953,505.352 51.3953,502.019 51,498.5C 40.7096,389.472 30.2096,280.472 19.5,171.5C 20.4836,162.697 24.8169,156.197 32.5,152C 131.642,109.24 230.642,66.4063 329.5,23.5 Z"/></g>
<g><path style="opacity:1" fill="#3f3f3f" d="M 332.5,32.5 C 335.647,32.7366 338.647,33.5699 341.5,35C 366.076,45.3559 390.41,56.1892 414.5,67.5C 387.954,80.3524 361.287,93.0191 334.5,105.5C 307.56,93.3629 280.893,80.6963 254.5,67.5C 280.328,55.4465 306.328,43.7798 332.5,32.5 Z"/></g>
<g><path style="opacity:1" fill="#3f3f3f" d="M 235.5,74.5 C 263.49,86.1153 291.157,98.6153 318.5,112C 289.531,125.817 260.531,139.651 231.5,153.5C 204.187,140.177 177.187,126.344 150.5,112C 179.059,99.7677 207.393,87.2677 235.5,74.5 Z"/></g>
<g><path style="opacity:1" fill="#3f3f3f" d="M 429.5,74.5 C 459.365,86.4297 489.032,98.9297 518.5,112C 491.61,126.778 464.277,140.445 436.5,153C 407.713,139.519 379.046,125.852 350.5,112C 376.924,99.4522 403.258,86.9522 429.5,74.5 Z"/></g>
<g><path style="opacity:1" fill="#3f3f3f" d="M 132.5,119.5 C 159.936,133.051 187.269,146.885 214.5,161C 183.167,175.667 151.833,190.333 120.5,205C 117.983,205.257 115.65,204.59 113.5,203C 88.6616,188.747 63.6616,174.747 38.5,161C 69.9419,147.248 101.275,133.415 132.5,119.5 Z"/></g>
<g><path style="opacity:1" fill="#3f3f3f" d="M 333.5,119.5 C 363.355,132.845 393.021,146.678 422.5,161C 393.353,176.074 364.02,190.907 334.5,205.5C 305.011,190.922 275.678,176.089 246.5,161C 275.56,147.135 304.56,133.302 333.5,119.5 Z"/></g>
<g><path style="opacity:1" fill="#3f3f3f" d="M 534.5,119.5 C 566.595,133.046 598.595,146.879 630.5,161C 605.338,174.747 580.338,188.747 555.5,203C 553.35,204.59 551.017,205.257 548.5,205C 517.167,190.333 485.833,175.667 454.5,161C 481.385,147.392 508.052,133.559 534.5,119.5 Z"/></g>
<g><path style="opacity:1" fill="#3f3f3f" d="M 229.5,168.5 C 258.995,183.414 288.328,198.58 317.5,214C 286.198,229.985 254.865,245.985 223.5,262C 221.711,262.52 220.044,262.187 218.5,261C 190.5,245.333 162.5,229.667 134.5,214C 166.227,198.802 197.894,183.635 229.5,168.5 Z"/></g>
<g><path style="opacity:1" fill="#3f3f3f" d="M 436.5,169.5 C 440.998,170.411 445.332,171.911 449.5,174C 477.535,187.34 505.535,200.674 533.5,214C 504.5,230.167 475.5,246.333 446.5,262.5C 414.344,246.589 382.344,230.422 350.5,214C 379.071,198.882 407.738,184.049 436.5,169.5 Z"/></g>
<g><path style="opacity:1" fill="#3f3f3f" d="M 30.5,174.5 C 57.1395,189.154 83.8062,203.821 110.5,218.5C 113.758,254.449 115.925,290.449 117,326.5C 91.9167,311.041 66.75,295.708 41.5,280.5C 37.0135,245.272 33.3469,209.938 30.5,174.5 Z"/></g>
<g><path style="opacity:1" fill="#3f3f3f" d="M 636.5,174.5 C 637.693,174.97 638.36,175.97 638.5,177.5C 634.836,211.477 631.336,245.477 628,279.5C 602.416,295.041 576.916,310.708 551.5,326.5C 551.167,324.833 550.833,323.167 550.5,321.5C 552.887,287.131 555.554,252.798 558.5,218.5C 584.562,203.806 610.562,189.139 636.5,174.5 Z"/></g>
<g><path style="opacity:1" fill="#3e403e" d="M 333.5,222.5 C 334.873,222.343 336.207,222.51 337.5,223C 368.833,239 400.167,255 431.5,271C 400.491,289.173 369.157,306.84 337.5,324C 335.5,324.667 333.5,324.667 331.5,324C 299.91,306.734 268.577,289.067 237.5,271C 254.91,261.628 272.577,252.795 290.5,244.5C 305.31,237.929 319.643,230.596 333.5,222.5 Z"/></g>
<g><path style="opacity:1" fill="#3f3f3f" d="M 125.5,227.5 C 154.72,243.695 183.887,260.028 213,276.5C 214.927,309.799 216.427,343.133 217.5,376.5C 217.167,379.833 216.833,383.167 216.5,386.5C 188.583,369.626 160.75,352.626 133,335.5C 130.558,299.49 128.058,263.49 125.5,227.5 Z"/></g>
<g><path style="opacity:1" fill="#3f3f3f" d="M 541.5,227.5 C 542.139,228.097 542.472,228.93 542.5,230C 539.844,265.152 537.344,300.318 535,335.5C 507.25,352.626 479.417,369.626 451.5,386.5C 451.167,383.167 450.833,379.833 450.5,376.5C 451.573,343.133 453.073,309.799 455,276.5C 483.977,260.266 512.81,243.933 541.5,227.5 Z"/></g>
<g><path style="opacity:1" fill="#254525" d="M 333.5,222.5 C 319.643,230.596 305.31,237.929 290.5,244.5C 304.357,236.404 318.69,229.071 333.5,222.5 Z"/></g>
<g><path style="opacity:1" fill="#403f3f" d="M 325.5,338.5 C 325.832,376.337 325.498,414.004 324.5,451.5C 294.273,433.952 264.273,415.952 234.5,397.5C 233.692,395.577 233.192,393.577 233,391.5C 231.476,356.171 230.476,320.838 230,285.5C 261.78,303.306 293.613,320.972 325.5,338.5 Z"/></g>
<g><path style="opacity:1" fill="#404040" d="M 437.5,285.5 C 438.777,286.694 439.444,288.36 439.5,290.5C 438.095,325.836 436.595,361.169 435,396.5C 404.583,415.292 374.083,433.959 343.5,452.5C 342.333,414.504 342.167,376.504 343,338.5C 374.643,320.932 406.143,303.266 437.5,285.5 Z"/></g>
<g><path style="opacity:1" fill="#3f403e" d="M 625.5,314.5 C 624.318,320.301 623.652,326.301 623.5,332.5C 622.178,353.538 620.345,374.538 618,395.5C 592.919,412.291 567.752,428.957 542.5,445.5C 543.65,411.875 545.983,378.208 549.5,344.5C 575,328.582 600.667,312.916 626.5,297.5C 627.249,303.192 626.916,308.859 625.5,314.5 Z"/></g>
<g><path style="opacity:1" fill="#3f403e" d="M 41.5,298.5 C 42.8734,298.343 44.2068,298.51 45.5,299C 70.1484,314.569 94.9818,329.736 120,344.5C 122.931,378.129 124.931,411.796 126,445.5C 101.081,429.291 76.2477,412.958 51.5,396.5C 47.6267,363.894 44.2934,331.228 41.5,298.5 Z"/></g>
<g><path style="opacity:1" fill="#304d1b" d="M 625.5,314.5 C 625.724,320.739 625.057,326.739 623.5,332.5C 623.652,326.301 624.318,320.301 625.5,314.5 Z"/></g>
<g><path style="opacity:1" fill="#582020" d="M 325.5,338.5 C 326.664,376.664 326.831,414.998 326,453.5C 325.283,452.956 324.783,452.289 324.5,451.5C 325.498,414.004 325.832,376.337 325.5,338.5 Z"/></g>
<g><path style="opacity:1" fill="#eb0000" d="M 221.5,489.5 C 221.822,495.358 221.489,501.025 220.5,506.5C 193.943,489.301 167.443,471.968 141,454.5C 138.833,424.664 136.667,394.831 134.5,365C 134.833,361.833 135.167,358.667 135.5,355.5C 163.167,372.167 190.833,388.833 218.5,405.5C 220.166,433.476 221.166,461.476 221.5,489.5 Z"/></g>
<g><path style="opacity:1" fill="#00d500" d="M 533.5,354.5 C 534.164,356.978 534.497,359.645 534.5,362.5C 532.609,393.205 530.276,423.871 527.5,454.5C 500.752,472.291 473.919,489.958 447,507.5C 447.239,473.487 448.239,439.487 450,405.5C 478.147,388.851 505.981,371.851 533.5,354.5 Z"/></g>
<g><path style="opacity:1" fill="#fcf9f9" d="M 51.5,412.5 C 53.288,412.215 54.9547,412.548 56.5,413.5C 80.5985,429.678 104.932,445.345 129.5,460.5C 128.913,465.284 129.247,470.117 130.5,475C 130.294,476.366 129.96,477.699 129.5,479C 131.417,497.353 133.084,515.687 134.5,534C 133.873,538.988 134.207,543.988 135.5,549C 135.057,550.825 134.723,552.658 134.5,554.5C 131.449,554.546 128.782,553.546 126.5,551.5C 104.456,536.137 82.6223,520.47 61,504.5C 59.2377,500.224 58.7377,495.891 59.5,491.5C 58.0238,488.005 57.6904,484.505 58.5,481C 56.911,477.576 56.5777,474.076 57.5,470.5C 56.0238,467.005 55.6904,463.505 56.5,460C 54.911,456.576 54.5777,453.076 55.5,449.5C 54.0238,446.005 53.6904,442.505 54.5,439C 52.911,435.576 52.5777,432.076 53.5,428.5C 51.5591,423.163 50.8924,417.83 51.5,412.5 Z"/></g>
<g><path style="opacity:1" fill="#3f403e" d="M 614.5,412.5 C 615.693,412.97 616.36,413.97 616.5,415.5C 613.601,444.824 610.768,474.158 608,503.5C 583.746,520.377 559.579,537.377 535.5,554.5C 536.157,523.478 537.99,492.478 541,461.5C 565.823,445.515 590.323,429.182 614.5,412.5 Z"/></g>
<g><path style="opacity:1" fill="#007300" d="M 237.5,416.5 C 236.417,416.461 235.417,416.127 234.5,415.5C 233.511,419.107 233.177,422.774 233.5,426.5C 232.517,422.702 232.183,418.702 232.5,414.5C 234.698,414.12 236.365,414.787 237.5,416.5 Z"/></g>
<g><path style="opacity:1" fill="#00d600" d="M 237.5,416.5 C 239.674,416.75 241.341,417.75 242.5,419.5C 246.323,422.916 250.657,425.582 255.5,427.5C 259.173,429 262.506,431 265.5,433.5C 269.323,436.916 273.657,439.582 278.5,441.5C 282.173,443 285.506,445 288.5,447.5C 292.323,450.916 296.657,453.582 301.5,455.5C 305.173,457 308.506,459 311.5,461.5C 315.323,464.916 319.657,467.582 324.5,469.5C 324.783,470.289 325.283,470.956 326,471.5C 326.667,506.5 326.667,541.5 326,576.5C 321.53,572.852 316.696,569.852 311.5,567.5C 307.975,566.241 304.975,564.241 302.5,561.5C 294.379,555.054 285.712,549.387 276.5,544.5C 272.975,543.241 269.975,541.241 267.5,538.5C 259.379,532.054 250.712,526.387 241.5,521.5C 239.973,521.573 238.973,520.906 238.5,519.5C 237.935,517.048 237.268,514.715 236.5,512.5C 234.883,483.886 233.883,455.219 233.5,426.5C 233.177,422.774 233.511,419.107 234.5,415.5C 235.417,416.127 236.417,416.461 237.5,416.5 Z"/></g>
<g><path style="opacity:1" fill="#ec0000" d="M 435.5,414.5 C 434.548,424.782 434.214,435.115 434.5,445.5C 434.473,464.583 433.807,483.583 432.5,502.5C 431.674,507.316 431.174,512.316 431,517.5C 423.345,522.732 415.845,528.066 408.5,533.5C 406.025,536.241 403.025,538.241 399.5,539.5C 390.288,544.387 381.621,550.054 373.5,556.5C 371.025,559.241 368.025,561.241 364.5,562.5C 357.167,566.833 349.833,571.167 342.5,575.5C 342.167,540.494 342.5,505.494 343.5,470.5C 344.522,470.145 345.189,469.478 345.5,468.5C 350.343,466.582 354.677,463.916 358.5,460.5C 361.494,458 364.827,456 368.5,454.5C 373.343,452.582 377.677,449.916 381.5,446.5C 384.494,444 387.827,442 391.5,440.5C 398.033,437.619 404.033,433.953 409.5,429.5C 410.659,427.75 412.326,426.75 414.5,426.5C 421.033,423.619 427.033,419.953 432.5,415.5C 433.209,414.596 434.209,414.263 435.5,414.5 Z"/></g>
<g><path style="opacity:1" fill="#710000" d="M 432.5,415.5 C 427.033,419.953 421.033,423.619 414.5,426.5C 419.967,422.047 425.967,418.381 432.5,415.5 Z"/></g>
<g><path style="opacity:1" fill="#790001" d="M 435.5,414.5 C 436.097,414.735 436.43,415.235 436.5,416C 435.868,425.975 435.202,435.808 434.5,445.5C 434.214,435.115 434.548,424.782 435.5,414.5 Z"/></g>
<g><path style="opacity:1" fill="#007500" d="M 242.5,419.5 C 247.343,421.418 251.677,424.084 255.5,427.5C 250.657,425.582 246.323,422.916 242.5,419.5 Z"/></g>
<g><path style="opacity:1" fill="#710000" d="M 409.5,429.5 C 404.033,433.953 398.033,437.619 391.5,440.5C 396.967,436.047 402.967,432.381 409.5,429.5 Z"/></g>
<g><path style="opacity:1" fill="#007500" d="M 265.5,433.5 C 270.343,435.418 274.677,438.084 278.5,441.5C 273.657,439.582 269.323,436.916 265.5,433.5 Z"/></g>
<g><path style="opacity:1" fill="#007600" d="M 288.5,447.5 C 293.343,449.418 297.677,452.084 301.5,455.5C 296.657,453.582 292.323,450.916 288.5,447.5 Z"/></g>
<g><path style="opacity:1" fill="#700000" d="M 381.5,446.5 C 377.677,449.916 373.343,452.582 368.5,454.5C 372.323,451.084 376.657,448.418 381.5,446.5 Z"/></g>
<g><path style="opacity:1" fill="#007600" d="M 311.5,461.5 C 316.343,463.418 320.677,466.084 324.5,469.5C 319.657,467.582 315.323,464.916 311.5,461.5 Z"/></g>
<g><path style="opacity:1" fill="#710000" d="M 358.5,460.5 C 354.677,463.916 350.343,466.582 345.5,468.5C 349.323,465.084 353.657,462.418 358.5,460.5 Z"/></g>
<g><path style="opacity:1" fill="#007300" d="M 324.5,469.5 C 325.496,469.414 326.329,469.748 327,470.5C 327.5,506.165 327.667,541.832 327.5,577.5C 321.53,575.182 316.197,571.849 311.5,567.5C 316.696,569.852 321.53,572.852 326,576.5C 326.667,541.5 326.667,506.5 326,471.5C 325.283,470.956 324.783,470.289 324.5,469.5 Z"/></g>
<g><path style="opacity:1" fill="#c50102" d="M 345.5,468.5 C 345.189,469.478 344.522,470.145 343.5,470.5C 342.5,505.494 342.167,540.494 342.5,575.5C 342.5,575.833 342.5,576.167 342.5,576.5C 341.17,540.998 341.17,505.331 342.5,469.5C 343.417,468.873 344.417,468.539 345.5,468.5 Z"/></g>
<g><path style="opacity:1" fill="#eb0000" d="M 141.5,471.5 C 168.642,488.907 195.642,506.574 222.5,524.5C 224.927,556.118 226.094,587.785 226,619.5C 200.175,600.921 174.175,582.587 148,564.5C 145.855,533.495 143.689,502.495 141.5,471.5 Z"/></g>
<g><path style="opacity:1" fill="#00d500" d="M 525.5,472.5 C 526.461,474.265 526.795,476.265 526.5,478.5C 524.832,507.189 522.832,535.856 520.5,564.5C 494.833,582.5 469.167,600.5 443.5,618.5C 442.716,587.125 443.549,555.792 446,524.5C 472.443,507.032 498.943,489.699 525.5,472.5 Z"/></g>
<g><path style="opacity:1" fill="#006000" d="M 525.5,472.5 C 525.56,471.957 525.893,471.624 526.5,471.5C 527.797,473.973 527.797,476.307 526.5,478.5C 526.795,476.265 526.461,474.265 525.5,472.5 Z"/></g>
<g><path style="opacity:1" fill="#790001" d="M 221.5,489.5 C 222.817,495.346 222.817,501.346 221.5,507.5C 220.893,507.376 220.56,507.043 220.5,506.5C 221.489,501.025 221.822,495.358 221.5,489.5 Z"/></g>
<g><path style="opacity:1" fill="#007700" d="M 236.5,512.5 C 237.268,514.715 237.935,517.048 238.5,519.5C 236.656,517.721 235.99,515.388 236.5,512.5 Z"/></g>
<g><path style="opacity:1" fill="#700000" d="M 432.5,502.5 C 432.666,507.844 432.499,513.177 432,518.5C 424.534,524.145 416.7,529.145 408.5,533.5C 415.845,528.066 423.345,522.732 431,517.5C 431.174,512.316 431.674,507.316 432.5,502.5 Z"/></g>
<g><path style="opacity:1" fill="#007400" d="M 241.5,521.5 C 250.712,526.387 259.379,532.054 267.5,538.5C 258.288,533.613 249.621,527.946 241.5,521.5 Z"/></g>
<g><path style="opacity:1" fill="#3f403e" d="M 427.5,535.5 C 428.833,535.5 430.167,535.5 431.5,535.5C 430.498,567.249 428.998,598.916 427,630.5C 399.833,649.667 372.667,668.833 345.5,688C 344.207,688.49 342.873,688.657 341.5,688.5C 341.333,656.498 341.5,624.498 342,592.5C 370.823,573.849 399.323,554.849 427.5,535.5 Z"/></g>
<g><path style="opacity:1" fill="#403f3f" d="M 324.5,591.5 C 324.783,592.289 325.283,592.956 326,593.5C 326.167,609.333 326.333,625.167 326.5,641C 326.499,657.181 325.833,673.014 324.5,688.5C 296.608,669.3 268.775,649.966 241,630.5C 239.619,598.839 238.453,567.172 237.5,535.5C 242.048,537.107 246.381,539.274 250.5,542C 275.39,558.27 300.057,574.77 324.5,591.5 Z"/></g>
<g><path style="opacity:1" fill="#700000" d="M 399.5,539.5 C 391.379,545.946 382.712,551.613 373.5,556.5C 381.621,550.054 390.288,544.387 399.5,539.5 Z"/></g>
<g><path style="opacity:1" fill="#007400" d="M 276.5,544.5 C 285.712,549.387 294.379,555.054 302.5,561.5C 293.288,556.613 284.621,550.946 276.5,544.5 Z"/></g>
<g><path style="opacity:1" fill="#700000" d="M 364.5,562.5 C 357.807,568.179 350.474,572.846 342.5,576.5C 342.5,576.167 342.5,575.833 342.5,575.5C 349.833,571.167 357.167,566.833 364.5,562.5 Z"/></g>
<g><path style="opacity:1" fill="#4e2424" d="M 324.5,591.5 C 325.496,591.414 326.329,591.748 327,592.5C 327.5,624.832 327.667,657.165 327.5,689.5C 326.209,689.737 325.209,689.404 324.5,688.5C 325.833,673.014 326.499,657.181 326.5,641C 326.333,625.167 326.167,609.333 326,593.5C 325.283,592.956 324.783,592.289 324.5,591.5 Z"/></g>
</svg>
