<?xml version="1.0" encoding="UTF-8"?>
<!DOCTYPE svg PUBLIC "-//W3C//DTD SVG 1.1//EN" "http://www.w3.org/Graphics/SVG/1.1/DTD/svg11.dtd">
<svg xmlns="http://www.w3.org/2000/svg" version="1.1" width="165px" height="173px" style="shape-rendering:geometricPrecision; text-rendering:geometricPrecision; image-rendering:optimizeQuality; fill-rule:evenodd; clip-rule:evenodd" xmlns:xlink="http://www.w3.org/1999/xlink">
<g><path style="opacity:0.999" fill="#080806" d="M 76.5,5.5 C 81.4377,5.53387 86.1044,6.70054 90.5,9C 111.084,18.1945 131.751,27.1945 152.5,36C 154.357,37.1824 155.357,38.849 155.5,41C 152.633,67.8351 149.8,94.6684 147,121.5C 126.167,136.333 105.333,151.167 84.5,166C 82.9656,166.923 81.299,167.423 79.5,167.5C 76.4303,166.295 73.4303,164.795 70.5,163C 50.8736,148.944 31.3736,134.777 12,120.5C 9.05335,92.8576 6.72002,65.191 5,37.5C 28.8186,26.6715 52.6519,16.0049 76.5,5.5 Z"/></g>
<g><path style="opacity:1" fill="#3f3f3f" d="M 78.5,7.5 C 85.5117,9.50544 92.1784,12.3388 98.5,16C 91.7553,19.6872 84.7553,22.3539 77.5,24C 71.9541,21.0602 66.2874,18.3935 60.5,16C 66.5252,13.056 72.5252,10.2226 78.5,7.5 Z"/></g>
<g><path style="opacity:1" fill="#3f3f3f" d="M 55.5,17.5 C 62.2056,19.6858 68.5389,22.6858 74.5,26.5C 68.2034,30.2316 61.7034,33.565 55,36.5C 48.7536,33.2938 42.5869,29.9605 36.5,26.5C 42.8157,23.2929 49.149,20.2929 55.5,17.5 Z"/></g>
<g><path style="opacity:1" fill="#3f3f3f" d="M 101.5,17.5 C 108.846,19.6727 115.846,22.6727 122.5,26.5C 116.822,30.3405 110.822,33.6739 104.5,36.5C 97.8022,33.1511 91.1356,29.8178 84.5,26.5C 90.1467,23.2978 95.8134,20.2978 101.5,17.5 Z"/></g>
<g><path style="opacity:1" fill="#3f3f3f" d="M 29.5,28.5 C 36.6585,31.0749 43.6585,34.2416 50.5,38C 42.8775,42.4852 34.8775,45.8185 26.5,48C 20.6688,44.9188 15.0021,41.5855 9.5,38C 16.3789,35.0584 23.0456,31.8917 29.5,28.5 Z"/></g>
<g><path style="opacity:1" fill="#3f3f3f" d="M 78.5,28.5 C 85.9206,31.3659 93.2539,34.5326 100.5,38C 93.5603,42.4746 86.2269,45.8079 78.5,48C 71.8333,44.6667 65.1667,41.3333 58.5,38C 65.3789,35.0584 72.0456,31.8917 78.5,28.5 Z"/></g>
<g><path style="opacity:1" fill="#3f3f3f" d="M 126.5,28.5 C 134.583,31.3631 142.583,34.5297 150.5,38C 144.5,41.3333 138.5,44.6667 132.5,48C 124.301,45.4794 116.301,42.146 108.5,38C 114.72,35.0591 120.72,31.8924 126.5,28.5 Z"/></g>
<g><path style="opacity:1" fill="#3f3f3f" d="M 52.5,40.5 C 60.6256,42.8945 68.2923,46.3945 75.5,51C 67.8333,54.8333 60.1667,58.6667 52.5,62.5C 45.7043,58.8665 39.0377,55.0331 32.5,51C 39.1915,47.3928 45.8582,43.8928 52.5,40.5 Z"/></g>
<g><path style="opacity:1" fill="#3f3f3f" d="M 102.5,40.5 C 111.246,42.8685 119.579,46.3685 127.5,51C 120.5,54.8333 113.5,58.6667 106.5,62.5C 98.8333,58.6667 91.1667,54.8333 83.5,51C 89.8955,47.4721 96.2288,43.9721 102.5,40.5 Z"/></g>
<g><path style="opacity:1" fill="#3f3f3f" d="M 151.5,41.5 C 152.139,42.0968 152.472,42.9302 152.5,44C 151.607,51.4897 150.774,58.9897 150,66.5C 144.167,70.4177 138.167,74.0843 132,77.5C 131.72,68.7563 132.386,60.0896 134,51.5C 140.001,48.303 145.835,44.9697 151.5,41.5 Z"/></g>
<g><path style="opacity:1" fill="#3f3f3f" d="M 6.5,41.5 C 12.9376,44.553 19.2709,47.8863 25.5,51.5C 27.1736,60.1034 27.6736,68.7701 27,77.5C 21.3333,73.8333 15.6667,70.1667 10,66.5C 8.57002,58.1981 7.40335,49.8647 6.5,41.5 Z"/></g>
<g><path style="opacity:1" fill="#ea0300" d="M 79.5,52.5 C 87.3377,56.2515 95.0043,60.2515 102.5,64.5C 94.7936,69.5175 86.7936,73.6841 78.5,77C 71.5,72.8333 64.5,68.6667 57.5,64.5C 64.8953,60.4717 72.2286,56.4717 79.5,52.5 Z"/></g>
<g><path style="opacity:1" fill="#3f3f3f" d="M 127.5,54.5 C 128.725,55.1522 129.392,56.3189 129.5,58C 128.975,65.546 128.142,73.046 127,80.5C 120.751,84.0408 114.584,87.7074 108.5,91.5C 107.488,82.8317 107.655,74.165 109,65.5C 115.337,61.97 121.503,58.3033 127.5,54.5 Z"/></g>
<g><path style="opacity:1" fill="#3f3f3f" d="M 29.5,54.5 C 36.518,57.76 43.3514,61.4266 50,65.5C 51.4803,74.1555 51.647,82.8221 50.5,91.5C 44.5,87.8333 38.5,84.1667 32.5,80.5C 31.0589,71.8794 30.0589,63.2127 29.5,54.5 Z"/></g>
<g><path style="opacity:1" fill="#fdfdfc" d="M 54.5,68.5 C 62.1842,72.093 69.6842,76.093 77,80.5C 77.6667,89.5 77.6667,98.5 77,107.5C 70,103.167 63,98.8333 56,94.5C 55.2626,85.8434 54.7626,77.1768 54.5,68.5 Z"/></g>
<g><path style="opacity:1" fill="#02d601" d="M 102.5,68.5 C 103.821,71.5982 104.488,75.0982 104.5,79C 104.506,84.2223 104.006,89.3889 103,94.5C 96.4202,99.2081 89.5869,103.541 82.5,107.5C 81.3347,98.5185 81.168,89.5185 82,80.5C 88.9785,76.5996 95.8118,72.5996 102.5,68.5 Z"/></g>
<g><path style="opacity:1" fill="#02d400" d="M 147.5,71.5 C 148.725,72.1522 149.392,73.3189 149.5,75C 148.831,81.5221 147.998,88.0221 147,94.5C 141.414,98.0426 135.914,101.709 130.5,105.5C 130.167,103.833 129.833,102.167 129.5,100.5C 130.076,94.5066 130.576,88.5066 131,82.5C 136.651,78.934 142.151,75.2673 147.5,71.5 Z"/></g>
<g><path style="opacity:1" fill="#ea0000" d="M 9.5,71.5 C 16.0239,74.5148 22.1905,78.1815 28,82.5C 29.1523,90.1421 29.4857,97.8088 29,105.5C 23.3333,101.833 17.6667,98.1667 12,94.5C 11.1107,86.8243 10.2774,79.1576 9.5,71.5 Z"/></g>
<g><path style="opacity:1" fill="#eb0000" d="M 31.5,84.5 C 38.1389,88.4887 44.8056,92.4887 51.5,96.5C 52.6649,104.479 52.8316,112.479 52,120.5C 45.828,116.748 39.828,112.748 34,108.5C 32.8358,100.534 32.0024,92.5337 31.5,84.5 Z"/></g>
<g><path style="opacity:1" fill="#00d500" d="M 126.5,84.5 C 127.161,86.134 127.494,87.9674 127.5,90C 126.949,96.1625 126.449,102.329 126,108.5C 119.748,112.375 113.581,116.375 107.5,120.5C 107.167,118.833 106.833,117.167 106.5,115.5C 107.095,109.174 107.595,102.841 108,96.5C 114.317,92.6005 120.483,88.6005 126.5,84.5 Z"/></g>
<g><path style="opacity:1" fill="#eb0000" d="M 12.5,98.5 C 18.3913,102.367 24.2247,106.367 30,110.5C 31.2301,117.507 31.3967,124.507 30.5,131.5C 25.2455,127.956 20.0788,124.29 15,120.5C 13.4427,113.262 12.6094,105.929 12.5,98.5 Z"/></g>
<g><path style="opacity:1" fill="#00d600" d="M 55.5,99.5 C 62.6081,103.223 69.6081,107.223 76.5,111.5C 77.8333,119.833 77.8333,128.167 76.5,136.5C 69.864,132.363 63.364,128.029 57,123.5C 56.5583,115.49 56.0583,107.49 55.5,99.5 Z"/></g>
<g><path style="opacity:1" fill="#eb0000" d="M 101.5,99.5 C 102.822,102.768 103.489,106.435 103.5,110.5C 103.453,114.705 103.12,118.871 102.5,123C 95.6854,127.807 88.8521,132.641 82,137.5C 81.3333,129.167 81.3333,120.833 82,112.5C 88.8235,108.515 95.3235,104.182 101.5,99.5 Z"/></g>
<g><path style="opacity:1" fill="#00d300" d="M 146.5,98.5 C 147.097,98.7352 147.43,99.2352 147.5,100C 146.665,106.852 145.665,113.685 144.5,120.5C 138.86,124.307 133.36,128.307 128,132.5C 127.862,124.769 128.528,117.103 130,109.5C 135.651,105.934 141.151,102.267 146.5,98.5 Z"/></g>
<g><path style="opacity:1" fill="#ea0000" d="M 33.5,112.5 C 40.1182,116.611 46.6182,120.945 53,125.5C 53.6667,132.833 53.6667,140.167 53,147.5C 47.1767,142.922 41.1767,138.588 35,134.5C 34.4522,127.165 33.9522,119.831 33.5,112.5 Z"/></g>
<g><path style="opacity:1" fill="#00d500" d="M 124.5,112.5 C 125.161,114.134 125.494,115.967 125.5,118C 125,123.5 124.5,129 124,134.5C 118.177,139.078 112.177,143.412 106,147.5C 105.195,139.745 105.695,132.079 107.5,124.5C 113.409,120.724 119.075,116.724 124.5,112.5 Z"/></g>
<g><path style="opacity:1" fill="#3f3f3f" d="M 56.5,127.5 C 63.4526,131.946 70.2859,136.612 77,141.5C 77.8313,148.856 77.6646,156.189 76.5,163.5C 70.4209,159.044 64.2542,154.71 58,150.5C 57.2233,142.847 56.7233,135.181 56.5,127.5 Z"/></g>
<g><path style="opacity:1" fill="#3f3f3f" d="M 100.5,128.5 C 101.822,131.768 102.489,135.435 102.5,139.5C 102.167,143.167 101.833,146.833 101.5,150.5C 94.9118,155.044 88.4118,159.711 82,164.5C 81.3333,156.833 81.3333,149.167 82,141.5C 88.3465,137.304 94.5131,132.97 100.5,128.5 Z"/></g>
</svg>
