<svg xmlns="http://www.w3.org/2000/svg" width="185.963" height="160.05" viewBox="0 0 185.963 160.05">
  <g>
    <path d="M185.3,95.733c-2.4,11.817-11.835,22.567-25.232,28.753-12.866,5.926-27.427,7.27-40.068,8.056a490.024,490.024,0,0,1-64.81-.27l-2.25-.162-3.491,19.876q-8.393-7.839-16.793-15.658L16.965,121.691a127.863,127.863,0,0,0,38.608-15.818l.312,16.36,2.72-.3a543.655,543.655,0,0,0,71.864-12.682c6.072-1.494,11.913-3.167,16.6-7.022,9.868-8.1,10.474-22.649,5.975-32.824-3.95-8.964-11.672-16.783-23.584-23.916A123.31,123.31,0,0,0,44.514,30.241c-.149-.97-.278-1.881-.417-2.771-.069-.5-.149-1.01-.218-1.49-.03-.17-.05-.34-.08-.51-.069-.49-.139-.97-.208-1.43-.03-.18-.05-.35-.08-.53q-.089-.66-.178-1.29c-.02-.171-.05-.331-.07-.5-.059-.4-.109-.8-.158-1.18-.03-.17-.05-.34-.08-.52-.04-.36-.089-.71-.139-1.06l-.059-.51c-.05-.33-.089-.65-.129-.97l-.059-.51c-.04-.3-.07-.6-.1-.89l-.059-.511c-.03-.269-.059-.54-.089-.81-.02-.18-.04-.36-.06-.53-.019-.25-.049-.49-.069-.73l-.059-.56-.059-.66c-.01-.2-.03-.39-.05-.58s-.029-.4-.039-.6-.03-.42-.05-.62c-.009-.17-.019-.33-.029-.5-.02-.24-.03-.48-.049-.71,0-.09-.01-.17-.01-.26-.039-.69-.078-1.39-.108-2.1,7.17.078,16.59.308,25.849.888s18.359,1.51,24.9,3.007a155.782,155.782,0,0,1,70.71,36.866C173.265,56.88,189.425,75.387,185.3,95.733Z" fill="#3fa9f5"/>
    <path d="M160.17,41.99A160.677,160.677,0,0,0,87.15,4.01C72.78.74,46.88.1,32.72.01L30.15,0h-.01l.07,2.58c.22,8.77.98,14.3,3.27,29.13l.4,2.6,2.58-.54a118.237,118.237,0,0,1,83.96,14.05c11,6.57,18.07,13.65,21.6,21.63,3.65,8.24,3.3,20.48-4.55,26.95-3.88,3.19-8.91,4.62-14.61,6.04a540.311,540.311,0,0,1-68.48,12.34l-.4-19.94-3.81,2.55a122.663,122.663,0,0,1-45.3,18.55L0,116.85l22.88,21.29q10.08,9.375,20.17,18.77l3.38,3.14,4.28-24.52a495.914,495.914,0,0,0,63.23.05c13.09-.83,28.2-2.25,41.84-8.56,14.83-6.86,25.29-18.94,28-32.32C188.36,71.94,170.96,51.9,160.17,41.99Zm18.71,51.72c-2.39,11.82-11.81,22.58-25.2,28.78-12.86,5.94-27.42,7.3-40.06,8.1a490.04,490.04,0,0,1-64.81-.2l-2.25-.16-3.47,19.88q-8.4-7.83-16.81-15.64L10.57,119.85a127.868,127.868,0,0,0,38.59-15.86l.33,16.36,2.72-.3a543.548,543.548,0,0,0,71.85-12.76c6.07-1.5,11.91-3.18,16.59-7.04,9.86-8.11,10.45-22.66,5.94-32.83-3.96-8.96-11.69-16.77-23.61-23.89A123.309,123.309,0,0,0,38.02,28.37c-.15-.97-.28-1.88-.42-2.77-.07-.5-.15-1.01-.22-1.49-.03-.17-.05-.34-.08-.51-.07-.49-.14-.97-.21-1.43-.03-.18-.05-.35-.08-.53q-.09-.66-.18-1.29c-.02-.17-.05-.33-.07-.5-.06-.4-.11-.8-.16-1.18-.03-.17-.05-.34-.08-.52-.04-.36-.09-.71-.14-1.06l-.06-.51c-.05-.33-.09-.65-.13-.97l-.06-.51c-.04-.3-.07-.6-.1-.89l-.06-.51-.09-.81c-.02-.18-.04-.36-.06-.53-.02-.25-.05-.49-.07-.73-.02-.19-.04-.37-.06-.56l-.06-.66c-.01-.2-.03-.39-.05-.58s-.03-.4-.04-.6-.03-.42-.05-.62c-.01-.17-.02-.33-.03-.5-.02-.24-.03-.48-.05-.71,0-.09-.01-.17-.01-.26-.04-.69-.08-1.39-.11-2.1,7.17.07,16.59.29,25.85.86S79.5,7.39,86.04,8.88a155.794,155.794,0,0,1,70.75,36.79C166.8,54.87,182.98,73.36,178.88,93.71Z"/>
  </g>
</svg>
