<?xml version="1.0" encoding="UTF-8"?>
<!DOCTYPE svg PUBLIC "-//W3C//DTD SVG 1.1//EN" "http://www.w3.org/Graphics/SVG/1.1/DTD/svg11.dtd">
<svg xmlns="http://www.w3.org/2000/svg" version="1.1" width="165px" height="173px" style="shape-rendering:geometricPrecision; text-rendering:geometricPrecision; image-rendering:optimizeQuality; fill-rule:evenodd; clip-rule:evenodd" xmlns:xlink="http://www.w3.org/1999/xlink">
<g><path style="opacity:0.995" fill="#080707" d="M 76.5,5.5 C 81.4377,5.53387 86.1044,6.70054 90.5,9C 111.084,18.1945 131.751,27.1945 152.5,36C 154.152,37.47 155.152,39.3033 155.5,41.5C 152.6,68.1619 149.767,94.8285 147,121.5C 126.167,136.333 105.333,151.167 84.5,166C 82.9656,166.923 81.299,167.423 79.5,167.5C 76.4303,166.295 73.4303,164.795 70.5,163C 50.9115,148.956 31.4115,134.789 12,120.5C 9.50004,94.6673 7.00004,68.834 4.5,43C 4.53558,40.9063 4.86891,38.9063 5.5,37C 29.2566,26.4497 52.9233,15.9497 76.5,5.5 Z"/></g>
<g><path style="opacity:1" fill="#414141" d="M 92.5,20.5 C 89.3368,18.9369 86.1702,17.2702 83,15.5C 79.2186,17.6403 75.3853,19.6403 71.5,21.5C 68.1733,19.1699 64.5067,17.3366 60.5,16C 66.8004,12.7859 73.3004,9.95253 80,7.5C 86.3766,9.93928 92.5433,12.7726 98.5,16C 95.8233,16.8136 93.8233,18.3136 92.5,20.5 Z"/></g>
<g><path style="opacity:1" fill="#fbfbfb" d="M 92.5,20.5 C 93.609,20.5569 94.609,20.8902 95.5,21.5C 92.1667,23.5 88.8333,25.5 85.5,27.5C 83.847,27.6596 82.5137,28.3263 81.5,29.5C 74.2476,31.7929 67.5809,35.1262 61.5,39.5C 59.1368,41.083 59.1368,42.9164 61.5,45C 66.2863,48.2172 71.2863,49.0505 76.5,47.5C 84.151,44.3412 91.4843,40.6745 98.5,36.5C 99.609,36.4431 100.609,36.1098 101.5,35.5C 105.3,33.7664 108.966,31.7664 112.5,29.5C 113.417,30.1272 114.417,30.4606 115.5,30.5C 116.514,31.6737 117.847,32.3404 119.5,32.5C 120.765,33.4793 122.099,34.4793 123.5,35.5C 123.333,35.8333 123.167,36.1667 123,36.5C 120.021,38.067 117.188,39.7337 114.5,41.5C 113.391,41.5569 112.391,41.8902 111.5,42.5C 104.132,46.5159 96.7985,50.5159 89.5,54.5C 88.391,54.5569 87.391,54.8902 86.5,55.5C 81.241,57.3787 75.9077,57.7121 70.5,56.5C 69.1667,56.5 67.8333,56.5 66.5,56.5C 58.2424,53.7055 50.909,49.3722 44.5,43.5C 44.1667,42.8333 43.8333,42.1667 43.5,41.5C 43.1658,38.812 43.8325,36.4786 45.5,34.5C 46.5,34.1667 47.1667,33.5 47.5,32.5C 54.4532,29.6901 61.1198,26.3567 67.5,22.5C 68.8333,22.1667 70.1667,21.8333 71.5,21.5C 75.3853,19.6403 79.2186,17.6403 83,15.5C 86.1702,17.2702 89.3368,18.9369 92.5,20.5 Z"/></g>
<g><path style="opacity:1" fill="#404040" d="M 67.5,22.5 C 61.1198,26.3567 54.4532,29.6901 47.5,32.5C 44.1932,30.8466 40.8599,29.1799 37.5,27.5C 36.1667,26.8333 36.1667,26.1667 37.5,25.5C 43.8333,22.8333 50.1667,20.1667 56.5,17.5C 60.3118,18.9069 63.9785,20.5736 67.5,22.5 Z"/></g>
<g><path style="opacity:1" fill="#404040" d="M 115.5,30.5 C 114.417,30.4606 113.417,30.1272 112.5,29.5C 108.966,31.7664 105.3,33.7664 101.5,35.5C 96.4798,32.3232 91.1465,29.6566 85.5,27.5C 88.8333,25.5 92.1667,23.5 95.5,21.5C 97.7156,19.8064 100.216,18.4731 103,17.5C 109.71,20.1061 116.21,23.1061 122.5,26.5C 120.302,28.0981 117.969,29.4314 115.5,30.5 Z"/></g>
<g><path style="opacity:1" fill="#020202" d="M 85.5,27.5 C 91.1465,29.6566 96.4798,32.3232 101.5,35.5C 100.609,36.1098 99.609,36.4431 98.5,36.5C 92.7527,34.362 87.086,32.0287 81.5,29.5C 82.5137,28.3263 83.847,27.6596 85.5,27.5 Z"/></g>
<g><path style="opacity:1" fill="#404040" d="M 45.5,34.5 C 43.8325,36.4786 43.1658,38.812 43.5,41.5C 38.5374,44.2303 33.3708,46.5636 28,48.5C 21.6057,45.3866 15.4391,41.8866 9.5,38C 16.7219,34.5552 24.0553,31.3885 31.5,28.5C 35.9314,31.049 40.598,33.049 45.5,34.5 Z"/></g>
<g><path style="opacity:1" fill="#3f3f3f" d="M 114.5,41.5 C 117.188,39.7337 120.021,38.067 123,36.5C 123.167,36.1667 123.333,35.8333 123.5,35.5C 122.099,34.4793 120.765,33.4793 119.5,32.5C 122.247,31.044 125.08,29.7107 128,28.5C 135.5,31.6667 143,34.8333 150.5,38C 144.242,41.9189 137.742,45.4189 131,48.5C 125.652,45.7408 120.152,43.4074 114.5,41.5 Z"/></g>
<g><path style="opacity:1" fill="#414141" d="M 81.5,29.5 C 87.086,32.0287 92.7527,34.362 98.5,36.5C 91.4843,40.6745 84.151,44.3412 76.5,47.5C 71.6935,44.595 66.6935,41.9283 61.5,39.5C 67.5809,35.1262 74.2476,31.7929 81.5,29.5 Z"/></g>
<g><path style="opacity:1" fill="#131313" d="M 61.5,39.5 C 66.6935,41.9283 71.6935,44.595 76.5,47.5C 71.2863,49.0505 66.2863,48.2172 61.5,45C 59.1368,42.9164 59.1368,41.083 61.5,39.5 Z"/></g>
<g><path style="opacity:1" fill="#3f3f3f" d="M 137.5,73.5 C 137.628,69.4153 135.961,66.4153 132.5,64.5C 132.21,60.0638 132.71,55.7305 134,51.5C 140,48.1667 146,44.8333 152,41.5C 151.758,49.8302 151.092,58.1636 150,66.5C 146.021,69.2376 141.855,71.571 137.5,73.5 Z"/></g>
<g><path style="opacity:1" fill="#404040" d="M 26.5,58.5 C 25.5041,58.5858 24.6708,58.2524 24,57.5C 23.5006,63.1569 23.3339,68.8236 23.5,74.5C 18.6429,72.4861 14.1429,69.8194 10,66.5C 8.63604,58.5257 7.46938,50.5257 6.5,42.5C 6.83333,42.1667 7.16667,41.8333 7.5,41.5C 13.5,44.8333 19.5,48.1667 25.5,51.5C 26.4742,53.7427 26.8076,56.076 26.5,58.5 Z"/></g>
<g><path style="opacity:1" fill="#40423f" d="M 111.5,42.5 C 116.899,45.0349 122.232,47.8683 127.5,51C 120.5,54.8333 113.5,58.6667 106.5,62.5C 100.932,59.5487 95.2657,56.882 89.5,54.5C 96.7985,50.5159 104.132,46.5159 111.5,42.5 Z"/></g>
<g><path style="opacity:1" fill="#404040" d="M 44.5,43.5 C 50.909,49.3722 58.2424,53.7055 66.5,56.5C 61.6335,57.9306 56.9668,59.9306 52.5,62.5C 46.1667,59 39.8333,55.5 33.5,52C 32.1667,51.3333 32.1667,50.6667 33.5,50C 37.6328,48.2807 41.2995,46.114 44.5,43.5 Z"/></g>
<g><path style="opacity:1" fill="#413f3f" d="M 129.5,64.5 C 122.111,67.0277 115.111,70.361 108.5,74.5C 108.335,71.4816 108.502,68.4816 109,65.5C 115.419,61.7067 121.919,58.04 128.5,54.5C 129.487,57.7683 129.82,61.1016 129.5,64.5 Z"/></g>
<g><path style="opacity:1" fill="#414141" d="M 50.5,73.5 C 43.8333,69.5 37.1667,65.5 30.5,61.5C 29.9426,59.0509 29.9426,56.7175 30.5,54.5C 37.081,58.04 43.581,61.7067 50,65.5C 50.4974,68.146 50.6641,70.8127 50.5,73.5 Z"/></g>
<g><path style="opacity:1" fill="#3f403e" d="M 86.5,55.5 C 91.7709,58.4725 97.1043,61.4725 102.5,64.5C 94.9955,69.0865 87.3288,73.4199 79.5,77.5C 71.8014,73.6558 64.4681,69.3225 57.5,64.5C 62.0645,62.0588 66.3979,59.3921 70.5,56.5C 75.9077,57.7121 81.241,57.3787 86.5,55.5 Z"/></g>
<g><path style="opacity:1" fill="#fcfcfc" d="M 26.5,58.5 C 27.4363,59.9744 28.7697,60.9744 30.5,61.5C 37.1667,65.5 43.8333,69.5 50.5,73.5C 51.6049,74.6005 52.9382,75.2671 54.5,75.5C 57.9187,77.2029 59.2521,80.0363 58.5,84C 58.3333,85.8333 58.1667,87.6667 58,89.5C 57.3292,88.7476 56.4959,88.4142 55.5,88.5C 54.5637,87.0256 53.2303,86.0256 51.5,85.5C 46.7785,82.3857 41.9452,79.3857 37,76.5C 36.4436,78.8848 36.6103,81.2181 37.5,83.5C 37.5,85.1667 37.5,86.8333 37.5,88.5C 37.1043,91.0444 37.771,93.2111 39.5,95C 43.8608,97.5117 48.1941,100.012 52.5,102.5C 53.1174,102.611 53.6174,102.944 54,103.5C 54.1667,105.167 54.3333,106.833 54.5,108.5C 54.4439,110.64 53.7773,112.306 52.5,113.5C 48.3979,110.608 44.0645,107.941 39.5,105.5C 38.5258,107.743 38.1924,110.076 38.5,112.5C 38.5,113.5 38.5,114.5 38.5,115.5C 38.6655,119.514 38.4988,123.514 38,127.5C 36.8873,126.695 35.7206,126.028 34.5,125.5C 33.8333,125.167 33.1667,124.833 32.5,124.5C 30.6455,123.31 28.8121,121.977 27,120.5C 26.8267,114.984 26.3267,109.651 25.5,104.5C 25.5,104.167 25.5,103.833 25.5,103.5C 25.2688,95.4948 24.9355,87.4948 24.5,79.5C 24.634,77.7085 24.3007,76.0418 23.5,74.5C 23.3339,68.8236 23.5006,63.1569 24,57.5C 24.6708,58.2524 25.5041,58.5858 26.5,58.5 Z"/></g>
<g><path style="opacity:1" fill="#fcfcfc" d="M 129.5,64.5 C 130.5,64.5 131.5,64.5 132.5,64.5C 135.961,66.4153 137.628,69.4153 137.5,73.5C 137.5,74.8333 137.5,76.1667 137.5,77.5C 137.259,84.4775 134.926,90.6442 130.5,96C 131.473,98.7844 132.806,101.284 134.5,103.5C 134.833,104.167 135.167,104.833 135.5,105.5C 137.56,108.599 138.726,111.932 139,115.5C 134.987,118.03 131.154,120.696 127.5,123.5C 126.833,122.833 126.167,122.167 125.5,121.5C 125.02,118.557 124.02,115.89 122.5,113.5C 122.672,112.508 122.338,111.842 121.5,111.5C 121.299,105.421 118.965,104.255 114.5,108C 113.556,110.719 113.223,113.552 113.5,116.5C 113.5,117.833 113.5,119.167 113.5,120.5C 113.826,124.884 113.492,129.217 112.5,133.5C 109.923,134.943 107.59,136.61 105.5,138.5C 104.29,138.932 103.29,139.599 102.5,140.5C 101.85,140.804 101.183,141.137 100.5,141.5C 99.5108,137.893 99.1774,134.226 99.5,130.5C 99.5,128.833 99.5,127.167 99.5,125.5C 99.5,117.5 99.5,109.5 99.5,101.5C 99.5,100.167 99.5,98.8333 99.5,97.5C 99.3338,91.4908 99.5005,85.4908 100,79.5C 101.652,78.6006 103.152,77.6006 104.5,76.5C 106.062,76.2671 107.395,75.6005 108.5,74.5C 115.111,70.361 122.111,67.0277 129.5,64.5 Z"/></g>
<g><path style="opacity:1" fill="#403f3f" d="M 55.5,88.5 C 56.4959,88.4142 57.3292,88.7476 58,89.5C 58.1667,87.6667 58.3333,85.8333 58.5,84C 59.2521,80.0363 57.9187,77.2029 54.5,75.5C 54.1924,73.076 54.5258,70.7427 55.5,68.5C 62.7474,72.3732 69.914,76.3732 77,80.5C 77.6667,89.5 77.6667,98.5 77,107.5C 70,103.167 63,98.8333 56,94.5C 55.5045,92.5273 55.3379,90.5273 55.5,88.5 Z"/></g>
<g><path style="opacity:1" fill="#404040" d="M 104.5,76.5 C 103.152,77.6006 101.652,78.6006 100,79.5C 99.5005,85.4908 99.3338,91.4908 99.5,97.5C 93.6964,100.57 88.0297,103.903 82.5,107.5C 81.3347,98.5185 81.168,89.5185 82,80.5C 89.086,76.3732 96.2526,72.3732 103.5,68.5C 104.48,71.0865 104.813,73.7531 104.5,76.5 Z"/></g>
<g><path style="opacity:1" fill="#40403f" d="M 134.5,103.5 C 132.806,101.284 131.473,98.7844 130.5,96C 134.926,90.6442 137.259,84.4775 137.5,77.5C 141.273,75.7788 144.939,73.7788 148.5,71.5C 148.833,72.8333 149.167,74.1667 149.5,75.5C 148.89,80.8224 148.39,86.1558 148,91.5C 147.727,93.3289 146.893,94.8289 145.5,96C 141.655,98.363 137.989,100.863 134.5,103.5 Z"/></g>
<g><path style="opacity:1" fill="#403f3f" d="M 24.5,79.5 C 24.9355,87.4948 25.2688,95.4948 25.5,103.5C 20.9426,100.634 16.4426,97.6343 12,94.5C 11.2755,87.1303 10.4421,79.797 9.5,72.5C 9.83333,72.1667 10.1667,71.8333 10.5,71.5C 15.194,74.1785 19.8607,76.8452 24.5,79.5 Z"/></g>
<g><path style="opacity:1" fill="#424242" d="M 51.5,85.5 C 51.7989,87.604 51.4656,89.604 50.5,91.5C 46.1493,88.8065 41.8159,86.1398 37.5,83.5C 36.6103,81.2181 36.4436,78.8848 37,76.5C 41.9452,79.3857 46.7785,82.3857 51.5,85.5 Z"/></g>
<g><path style="opacity:1" fill="#42403f" d="M 125.5,81.5 C 121.5,83.8333 117.5,86.1667 113.5,88.5C 113.5,86.5 113.5,84.5 113.5,82.5C 116.668,78.9884 120.501,77.6551 125,78.5C 125.483,79.448 125.649,80.448 125.5,81.5 Z"/></g>
<g><path style="opacity:1" fill="#040101" d="M 125.5,81.5 C 125.5,82.8333 125.5,84.1667 125.5,85.5C 121.611,87.6966 117.778,90.0299 114,92.5C 113.51,91.2068 113.343,89.8734 113.5,88.5C 117.5,86.1667 121.5,83.8333 125.5,81.5 Z"/></g>
<g><path style="opacity:1" fill="#4f504f" d="M 113.5,82.5 C 113.5,84.5 113.5,86.5 113.5,88.5C 113.343,89.8734 113.51,91.2068 114,92.5C 117.778,90.0299 121.611,87.6966 125.5,85.5C 125.245,88.0163 124.411,90.3496 123,92.5C 119.842,95.0796 116.508,97.4129 113,99.5C 112.182,93.6513 112.348,87.9846 113.5,82.5 Z"/></g>
<g><path style="opacity:1" fill="#444140" d="M 37.5,88.5 C 42.3898,90.7112 47.0565,93.3779 51.5,96.5C 52.4656,98.396 52.7989,100.396 52.5,102.5C 48.1941,100.012 43.8608,97.5117 39.5,95C 37.771,93.2111 37.1043,91.0444 37.5,88.5 Z"/></g>
<g><path style="opacity:1" fill="#414040" d="M 25.5,104.5 C 26.3267,109.651 26.8267,114.984 27,120.5C 28.8121,121.977 30.6455,123.31 32.5,124.5C 31.8347,126.698 31.1681,129.031 30.5,131.5C 25.2455,127.956 20.0788,124.29 15,120.5C 13.4067,113.235 12.7401,105.902 13,98.5C 16.7461,101.29 20.5794,103.957 24.5,106.5C 25.2975,106.043 25.6309,105.376 25.5,104.5 Z"/></g>
<g><path style="opacity:1" fill="#3f3f3f" d="M 55.5,99.5 C 63.0265,103.182 70.1932,107.516 77,112.5C 77.8316,120.521 77.6649,128.521 76.5,136.5C 69.864,132.363 63.364,128.029 57,123.5C 56.657,115.481 56.157,107.481 55.5,99.5 Z"/></g>
<g><path style="opacity:1" fill="#3e403e" d="M 127.5,123.5 C 131.154,120.696 134.987,118.03 139,115.5C 138.726,111.932 137.56,108.599 135.5,105.5C 139.308,103.427 142.974,101.094 146.5,98.5C 146.833,99.1667 147.167,99.8333 147.5,100.5C 146.601,107.153 145.768,113.82 145,120.5C 139.056,124.111 133.389,128.111 128,132.5C 127.913,129.293 127.746,126.293 127.5,123.5 Z"/></g>
<g><path style="opacity:1" fill="#3f3f3f" d="M 99.5,101.5 C 99.5,109.5 99.5,117.5 99.5,125.5C 93.6087,129.367 87.7753,133.367 82,137.5C 81.3333,129.167 81.3333,120.833 82,112.5C 87.7772,108.697 93.6105,105.031 99.5,101.5 Z"/></g>
<g><path style="opacity:1" fill="#414040" d="M 52.5,113.5 C 52.6633,115.857 52.4966,118.19 52,120.5C 47.5272,117.684 43.0272,115.018 38.5,112.5C 38.1924,110.076 38.5258,107.743 39.5,105.5C 44.0645,107.941 48.3979,110.608 52.5,113.5 Z"/></g>
<g><path style="opacity:1" fill="#3f413f" d="M 121.5,111.5 C 118.833,113.167 116.167,114.833 113.5,116.5C 113.223,113.552 113.556,110.719 114.5,108C 118.965,104.255 121.299,105.421 121.5,111.5 Z"/></g>
<g><path style="opacity:1" fill="#020302" d="M 121.5,111.5 C 122.338,111.842 122.672,112.508 122.5,113.5C 119.81,116.185 116.81,118.518 113.5,120.5C 113.5,119.167 113.5,117.833 113.5,116.5C 116.167,114.833 118.833,113.167 121.5,111.5 Z"/></g>
<g><path style="opacity:1" fill="#3f403f" d="M 122.5,113.5 C 124.02,115.89 125.02,118.557 125.5,121.5C 125.423,125.877 124.923,130.21 124,134.5C 118.177,139.078 112.177,143.412 106,147.5C 105.502,144.518 105.335,141.518 105.5,138.5C 107.59,136.61 109.923,134.943 112.5,133.5C 113.492,129.217 113.826,124.884 113.5,120.5C 116.81,118.518 119.81,116.185 122.5,113.5 Z"/></g>
<g><path style="opacity:1" fill="#41403f" d="M 38.5,115.5 C 43.453,118.613 48.2863,121.946 53,125.5C 53.6667,132.833 53.6667,140.167 53,147.5C 47.1767,142.922 41.1767,138.588 35,134.5C 34.502,131.518 34.3354,128.518 34.5,125.5C 35.7206,126.028 36.8873,126.695 38,127.5C 38.4988,123.514 38.6655,119.514 38.5,115.5 Z"/></g>
<g><path style="opacity:1" fill="#3f3f3f" d="M 56.5,127.5 C 63.4526,131.946 70.2859,136.612 77,141.5C 77.8313,148.856 77.6646,156.189 76.5,163.5C 70.4209,159.044 64.2542,154.71 58,150.5C 57.2233,142.847 56.7233,135.181 56.5,127.5 Z"/></g>
<g><path style="opacity:1" fill="#3f3f3f" d="M 99.5,130.5 C 99.1774,134.226 99.5108,137.893 100.5,141.5C 101.183,141.137 101.85,140.804 102.5,140.5C 102.82,143.898 102.487,147.232 101.5,150.5C 94.9118,155.044 88.4118,159.711 82,164.5C 81.3333,156.833 81.3333,149.167 82,141.5C 87.7351,137.582 93.5684,133.916 99.5,130.5 Z"/></g>
</svg>
