<?xml version="1.0" encoding="UTF-8"?>
<!DOCTYPE svg PUBLIC "-//W3C//DTD SVG 1.1//EN" "http://www.w3.org/Graphics/SVG/1.1/DTD/svg11.dtd">
<svg xmlns="http://www.w3.org/2000/svg" version="1.1" width="300px" height="300px" style="shape-rendering:geometricPrecision; text-rendering:geometricPrecision; image-rendering:optimizeQuality; fill-rule:evenodd; clip-rule:evenodd" xmlns:xlink="http://www.w3.org/1999/xlink">
<g><path style="opacity:0.97" fill="#080501" d="M 128.5,26.5 C 174.702,37.384 220.702,49.2173 266.5,62C 268.049,63.214 269.215,64.714 270,66.5C 267.505,113.93 263.839,161.263 259,208.5C 230.833,235.333 202.667,262.167 174.5,289C 170.739,289.738 167.072,289.405 163.5,288C 121.75,269.527 80.083,250.861 38.5,232C 36.9512,230.786 35.7845,229.286 35,227.5C 30.4479,179.543 26.7812,131.543 24,83.5C 24.7845,81.714 25.9512,80.214 27.5,79C 61.5424,61.9808 95.209,44.4808 128.5,26.5 Z"/></g>
<g><path style="opacity:1" fill="#f5f500" d="M 129.5,30.5 C 142.449,32.5384 155.115,35.7051 167.5,40C 159.5,44.6667 151.5,49.3333 143.5,54C 141.5,54.6667 139.5,54.6667 137.5,54C 126.305,51.1207 115.305,47.7873 104.5,44C 112.927,39.4569 121.26,34.9569 129.5,30.5 Z"/></g>
<g><path style="opacity:1" fill="#f4f400" d="M 174.5,41.5 C 187.585,44.6952 200.585,48.1952 213.5,52C 205.259,57.9093 196.759,63.4093 188,68.5C 174.856,64.589 161.689,60.7557 148.5,57C 157.395,52.059 166.062,46.8923 174.5,41.5 Z"/></g>
<g><path style="opacity:1" fill="#f7f700" d="M 96.5,47.5 C 109.977,49.2855 122.977,52.7855 135.5,58C 127.092,63.3995 118.425,68.3995 109.5,73C 107.167,73.6667 104.833,73.6667 102.5,73C 91.576,69.9148 80.9093,66.2481 70.5,62C 79.3903,57.3925 88.057,52.5591 96.5,47.5 Z"/></g>
<g><path style="opacity:1" fill="#f5f500" d="M 219.5,54.5 C 234.098,57.0663 248.431,60.7329 262.5,65.5C 254.461,71.3764 246.294,77.0431 238,82.5C 223.992,78.718 210.159,74.5513 196.5,70C 204.344,64.9703 212.011,59.8037 219.5,54.5 Z"/></g>
<g><path style="opacity:1" fill="#f7f700" d="M 142.5,59.5 C 156.098,63.3902 169.765,67.2235 183.5,71C 174.833,76.6667 166.167,82.3333 157.5,88C 154.485,88.2009 151.485,87.8676 148.5,87C 137.352,83.7286 126.352,80.0619 115.5,76C 124.897,70.9765 133.897,65.4765 142.5,59.5 Z"/></g>
<g><path style="opacity:1" fill="#f7f700" d="M 62.5,65.5 C 75.7392,68.6906 88.7392,72.6906 101.5,77.5C 91.3703,83.1338 81.3703,88.9672 71.5,95C 57.8938,91.9662 44.5605,87.7995 31.5,82.5C 42.0557,77.0591 52.3891,71.3925 62.5,65.5 Z"/></g>
<g><path style="opacity:1" fill="#00d200" d="M 241.5,130.5 C 240.523,127.713 240.19,124.713 240.5,121.5C 240.548,109.726 241.548,98.0598 243.5,86.5C 250.912,81.0439 258.412,75.7105 266,70.5C 265.624,84.849 264.624,99.1823 263,113.5C 255.958,119.381 248.792,125.047 241.5,130.5 Z"/></g>
<g><path style="opacity:1" fill="#f7f700" d="M 190.5,73.5 C 205.298,77.2258 219.965,81.3925 234.5,86C 226.222,91.2781 218.222,96.9448 210.5,103C 208.635,104.301 206.635,104.635 204.5,104C 190.85,99.6682 177.183,95.3349 163.5,91C 172.675,85.3036 181.675,79.4703 190.5,73.5 Z"/></g>
<g><path style="opacity:1" fill="#f8f800" d="M 108.5,79.5 C 122.61,83.1464 136.61,87.3131 150.5,92C 141.167,98 131.833,104 122.5,110C 120.635,111.301 118.635,111.635 116.5,111C 103.489,106.663 90.4891,102.33 77.5,98C 87.8967,91.8073 98.23,85.6406 108.5,79.5 Z"/></g>
<g><path style="opacity:1" fill="#e80000" d="M 28.5,88.5 C 41.3858,92.9066 54.3858,96.9066 67.5,100.5C 68.5464,107.13 68.7131,113.797 68,120.5C 63.9963,118.665 59.8296,117.332 55.5,116.5C 55.3573,114.738 55.6906,113.071 56.5,111.5C 55.8333,111.167 55.1667,110.833 54.5,110.5C 49.4939,111.834 44.4939,113.167 39.5,114.5C 43.5192,118.685 47.3525,123.018 51,127.5C 51.2649,125.349 52.2649,123.682 54,122.5C 59.0274,124.176 64.0274,125.842 69,127.5C 69.8306,133.859 69.6639,140.193 68.5,146.5C 56.3737,141.685 44.2071,137.019 32,132.5C 30.8327,117.826 29.6661,103.16 28.5,88.5 Z"/></g>
<g><path style="opacity:1" fill="#00d300" d="M 235.5,91.5 C 236.8,93.223 237.467,95.3897 237.5,98C 236.706,110.502 235.872,123.002 235,135.5C 226.955,142.547 218.622,149.213 210,155.5C 209.669,140.133 210.335,124.8 212,109.5C 220.018,103.636 227.852,97.6365 235.5,91.5 Z"/></g>
<g><path style="opacity:1" fill="#f7f700" d="M 157.5,94.5 C 172.297,98.7916 186.964,103.458 201.5,108.5C 192.097,116.065 182.263,123.065 172,129.5C 156.983,124.717 142.15,119.551 127.5,114C 137.735,107.725 147.735,101.225 157.5,94.5 Z"/></g>
<g><path style="opacity:1" fill="#e80000" d="M 116.5,117.5 C 117.117,123.598 116.45,129.265 114.5,134.5C 101.762,130.977 89.095,127.143 76.5,123C 75.7401,117.393 75.0735,111.727 74.5,106C 74.8333,105.167 75.1667,104.333 75.5,103.5C 89.1791,108.171 102.846,112.837 116.5,117.5 Z"/></g>
<g><path style="opacity:1" fill="#00d200" d="M 177.5,181.5 C 176.508,174.018 176.175,166.352 176.5,158.5C 177.833,158.5 179.167,158.5 180.5,158.5C 185.511,158.666 190.511,158.499 195.5,158C 198.207,156.136 199.041,153.636 198,150.5C 196.38,148.759 194.88,146.925 193.5,145C 186.838,144.596 185.838,146.929 190.5,152C 185.806,152.564 181.14,152.397 176.5,151.5C 176.334,145.824 176.501,140.157 177,134.5C 186.667,127.5 196.333,120.5 206,113.5C 205.734,129.155 205.067,144.822 204,160.5C 195.004,167.333 186.171,174.333 177.5,181.5 Z"/></g>
<g><path style="opacity:1" fill="#e30000" d="M 124.5,120.5 C 139.574,125.024 154.574,129.858 169.5,135C 170.469,139.737 170.803,144.57 170.5,149.5C 155.372,146.275 140.372,142.442 125.5,138C 124.525,132.259 124.192,126.425 124.5,120.5 Z"/></g>
<g><path style="opacity:1" fill="#00d300" d="M 238.5,179.5 C 237.539,177.735 237.205,175.735 237.5,173.5C 237.97,162.169 238.47,150.835 239,139.5C 246.356,133.31 253.856,127.31 261.5,121.5C 261.833,134.835 261,148.169 259,161.5C 252.295,167.709 245.462,173.709 238.5,179.5 Z"/></g>
<g><path style="opacity:1" fill="#7d0000" d="M 116.5,117.5 C 117.49,123.31 117.823,129.31 117.5,135.5C 116.209,135.737 115.209,135.404 114.5,134.5C 116.45,129.265 117.117,123.598 116.5,117.5 Z"/></g>
<g><path style="opacity:1" fill="#006002" d="M 240.5,121.5 C 240.19,124.713 240.523,127.713 241.5,130.5C 241.44,131.043 241.107,131.376 240.5,131.5C 239.194,128.02 239.194,124.687 240.5,121.5 Z"/></g>
<g><path style="opacity:1" fill="#e90000" d="M 76.5,130.5 C 89.8801,134.293 103.213,138.293 116.5,142.5C 117.497,149.468 117.83,156.468 117.5,163.5C 104.001,159.422 90.6672,154.756 77.5,149.5C 76.5037,143.202 76.1703,136.868 76.5,130.5 Z"/></g>
<g><path style="opacity:1" fill="#e90000" d="M 32.5,140.5 C 45.1202,144.873 57.6202,149.54 70,154.5C 71.286,165.779 72.1193,177.113 72.5,188.5C 72.1667,191.167 71.8333,193.833 71.5,196.5C 59.5939,191.629 47.7605,186.629 36,181.5C 34.5749,167.844 33.4083,154.177 32.5,140.5 Z"/></g>
<g><path style="opacity:1" fill="#00d300" d="M 233.5,143.5 C 234.162,145.304 234.495,147.304 234.5,149.5C 233.89,161.537 232.89,173.537 231.5,185.5C 223.518,192.315 215.684,199.315 208,206.5C 207.637,192.158 207.97,177.825 209,163.5C 217.646,157.348 225.813,150.681 233.5,143.5 Z"/></g>
<g><path style="opacity:1" fill="#ea0000" d="M 126.5,145.5 C 140.309,149.619 154.309,153.119 168.5,156C 169.817,165.107 169.817,174.273 168.5,183.5C 154.833,178.333 141.167,173.167 127.5,168C 126.244,167.583 125.577,166.75 125.5,165.5C 125.176,158.646 125.509,151.979 126.5,145.5 Z"/></g>
<g><path style="opacity:1" fill="#eb0000" d="M 77.5,157.5 C 91.1568,162.078 104.657,167.078 118,172.5C 118.5,186.496 118.667,200.496 118.5,214.5C 105.427,210.196 92.5939,205.196 80,199.5C 78.9081,185.512 78.0747,171.512 77.5,157.5 Z"/></g>
<g><path style="opacity:1" fill="#4a0100" d="M 126.5,145.5 C 125.509,151.979 125.176,158.646 125.5,165.5C 124.181,158.656 124.181,151.656 125.5,144.5C 126.107,144.624 126.44,144.957 126.5,145.5 Z"/></g>
<g><path style="opacity:1" fill="#005901" d="M 180.5,158.5 C 179.167,158.5 177.833,158.5 176.5,158.5C 176.175,166.352 176.508,174.018 177.5,181.5C 177.44,182.043 177.107,182.376 176.5,182.5C 175.502,174.193 175.169,165.86 175.5,157.5C 177.415,157.216 179.081,157.549 180.5,158.5 Z"/></g>
<g><path style="opacity:1" fill="#00d500" d="M 202.5,169.5 C 203.486,173.97 203.819,178.637 203.5,183.5C 203.244,192.843 202.744,202.176 202,211.5C 193.333,218.669 184.833,226.002 176.5,233.5C 175.507,225.35 175.174,217.017 175.5,208.5C 175.334,202.491 175.501,196.491 176,190.5C 184.591,183.13 193.424,176.13 202.5,169.5 Z"/></g>
<g><path style="opacity:1" fill="#e70000" d="M 256.5,169.5 C 257.777,170.694 258.444,172.36 258.5,174.5C 257.914,185.211 256.914,195.878 255.5,206.5C 248.833,212.833 242.167,219.167 235.5,225.5C 234.454,213.164 234.621,200.831 236,188.5C 243.03,182.3 249.863,175.967 256.5,169.5 Z"/></g>
<g><path style="opacity:1" fill="#e90000" d="M 125.5,175.5 C 140.086,180.529 154.586,185.863 169,191.5C 169.388,206.19 168.888,220.856 167.5,235.5C 153.595,229.963 139.761,224.296 126,218.5C 125.5,204.171 125.333,189.837 125.5,175.5 Z"/></g>
<g><path style="opacity:1" fill="#006f00" d="M 203.5,183.5 C 203.819,178.637 203.486,173.97 202.5,169.5C 202.783,168.711 203.283,168.044 204,167.5C 204.817,173.016 204.651,178.35 203.5,183.5 Z"/></g>
<g><path style="opacity:1" fill="#006d00" d="M 237.5,173.5 C 237.205,175.735 237.539,177.735 238.5,179.5C 238.44,180.043 238.107,180.376 237.5,180.5C 236.203,178.027 236.203,175.693 237.5,173.5 Z"/></g>
<g><path style="opacity:1" fill="#0000ec" d="M 74.5,235.5 C 74.8016,238.059 74.4682,240.393 73.5,242.5C 62.156,237.827 50.8227,233.16 39.5,228.5C 37.9258,215.204 37.0925,201.871 37,188.5C 48.7605,193.629 60.5939,198.629 72.5,203.5C 74.0409,214.109 74.7075,224.776 74.5,235.5 Z"/></g>
<g><path style="opacity:1" fill="#e70000" d="M 229.5,193.5 C 230.82,196.428 231.486,199.761 231.5,203.5C 231.059,212.503 230.559,221.503 230,230.5C 221.808,237.936 213.808,245.603 206,253.5C 205.846,240.155 206.346,226.822 207.5,213.5C 215.178,207.152 222.512,200.485 229.5,193.5 Z"/></g>
<g><path style="opacity:1" fill="#0000ee" d="M 81.5,207.5 C 93.9234,212.307 106.257,217.307 118.5,222.5C 119.497,229.803 119.831,237.137 119.5,244.5C 119.823,250.69 119.49,256.69 118.5,262.5C 106.164,257.583 93.9972,252.249 82,246.5C 81.4823,236.83 80.9823,227.163 80.5,217.5C 80.1872,213.958 80.5206,210.625 81.5,207.5 Z"/></g>
<g><path style="opacity:1" fill="#fe0554" d="M 81.5,207.5 C 80.5206,210.625 80.1872,213.958 80.5,217.5C 79.1923,213.981 79.1923,210.315 80.5,206.5C 81.1067,206.624 81.44,206.957 81.5,207.5 Z"/></g>
<g><path style="opacity:1" fill="#ea0000" d="M 175.5,282.5 C 174.509,275.687 174.175,268.687 174.5,261.5C 174.334,255.158 174.5,248.825 175,242.5C 183.703,234.129 192.703,226.129 202,218.5C 202.066,231.856 201.399,245.189 200,258.5C 191.938,266.73 183.772,274.73 175.5,282.5 Z"/></g>
<g><path style="opacity:1" fill="#005b01" d="M 175.5,208.5 C 175.174,217.017 175.507,225.35 176.5,233.5C 176.44,234.043 176.107,234.376 175.5,234.5C 174.179,225.675 174.179,217.009 175.5,208.5 Z"/></g>
<g><path style="opacity:1" fill="#0000ee" d="M 168.5,267.5 C 167.833,272.833 167.167,278.167 166.5,283.5C 153.405,278.121 140.405,272.454 127.5,266.5C 126.501,253.183 126.167,239.85 126.5,226.5C 140.53,231.852 154.53,237.185 168.5,242.5C 168.5,250.833 168.5,259.167 168.5,267.5 Z"/></g>
<g><path style="opacity:1" fill="#000080" d="M 74.5,235.5 C 75.8003,238.024 75.8003,240.691 74.5,243.5C 73.8933,243.376 73.56,243.043 73.5,242.5C 74.4682,240.393 74.8016,238.059 74.5,235.5 Z"/></g>
<g><path style="opacity:1" fill="#00024c" d="M 119.5,244.5 C 120.817,250.678 120.817,257.012 119.5,263.5C 118.893,263.376 118.56,263.043 118.5,262.5C 119.49,256.69 119.823,250.69 119.5,244.5 Z"/></g>
<g><path style="opacity:1" fill="#500000" d="M 174.5,261.5 C 174.175,268.687 174.509,275.687 175.5,282.5C 175.44,283.043 175.107,283.376 174.5,283.5C 173.181,276.01 173.181,268.677 174.5,261.5 Z"/></g>
<g><path style="opacity:1" fill="#000076" d="M 168.5,267.5 C 168.829,273.206 168.495,278.872 167.5,284.5C 166.893,284.376 166.56,284.043 166.5,283.5C 167.167,278.167 167.833,272.833 168.5,267.5 Z"/></g>
</svg>
