<?xml version="1.0" encoding="UTF-8"?>
<!DOCTYPE svg PUBLIC "-//W3C//DTD SVG 1.1//EN" "http://www.w3.org/Graphics/SVG/1.1/DTD/svg11.dtd">
<svg xmlns="http://www.w3.org/2000/svg" version="1.1" width="300px" height="300px" style="shape-rendering:geometricPrecision; text-rendering:geometricPrecision; image-rendering:optimizeQuality; fill-rule:evenodd; clip-rule:evenodd" xmlns:xlink="http://www.w3.org/1999/xlink">
<g><path style="opacity:0.97" fill="#080403" d="M 128.5,26.5 C 174.702,37.384 220.702,49.2173 266.5,62C 268.049,63.214 269.215,64.714 270,66.5C 267.505,113.93 263.839,161.263 259,208.5C 230.833,235.333 202.667,262.167 174.5,289C 170.739,289.738 167.072,289.405 163.5,288C 121.75,269.527 80.083,250.861 38.5,232C 36.9512,230.786 35.7845,229.286 35,227.5C 30.4479,179.543 26.7812,131.543 24,83.5C 24.7845,81.714 25.9512,80.214 27.5,79C 61.5424,61.9808 95.209,44.4808 128.5,26.5 Z"/></g>
<g><path style="opacity:1" fill="#f5f500" d="M 129.5,30.5 C 142.449,32.5384 155.115,35.7051 167.5,40C 159.5,44.6667 151.5,49.3333 143.5,54C 141.5,54.6667 139.5,54.6667 137.5,54C 126.305,51.1207 115.305,47.7873 104.5,44C 112.927,39.4569 121.26,34.9569 129.5,30.5 Z"/></g>
<g><path style="opacity:1" fill="#f4f400" d="M 174.5,41.5 C 187.585,44.6952 200.585,48.1952 213.5,52C 205.259,57.9093 196.759,63.4093 188,68.5C 174.856,64.589 161.689,60.7557 148.5,57C 157.395,52.059 166.062,46.8923 174.5,41.5 Z"/></g>
<g><path style="opacity:1" fill="#f7f700" d="M 96.5,47.5 C 109.977,49.2855 122.977,52.7855 135.5,58C 127.092,63.3995 118.425,68.3995 109.5,73C 107.167,73.6667 104.833,73.6667 102.5,73C 91.576,69.9148 80.9093,66.2481 70.5,62C 79.3903,57.3925 88.057,52.5591 96.5,47.5 Z"/></g>
<g><path style="opacity:1" fill="#f5f500" d="M 219.5,54.5 C 234.098,57.0663 248.431,60.7329 262.5,65.5C 254.461,71.3764 246.294,77.0431 238,82.5C 223.992,78.718 210.159,74.5513 196.5,70C 204.344,64.9703 212.011,59.8037 219.5,54.5 Z"/></g>
<g><path style="opacity:1" fill="#f7f700" d="M 142.5,59.5 C 156.098,63.3902 169.765,67.2235 183.5,71C 174.833,76.6667 166.167,82.3333 157.5,88C 154.485,88.2009 151.485,87.8676 148.5,87C 137.352,83.7286 126.352,80.0619 115.5,76C 124.897,70.9765 133.897,65.4765 142.5,59.5 Z"/></g>
<g><path style="opacity:1" fill="#f7f700" d="M 62.5,65.5 C 75.7392,68.6906 88.7392,72.6906 101.5,77.5C 91.3703,83.1338 81.3703,88.9672 71.5,95C 57.8938,91.9662 44.5605,87.7995 31.5,82.5C 42.0557,77.0591 52.3891,71.3925 62.5,65.5 Z"/></g>
<g><path style="opacity:1" fill="#e80000" d="M 265.5,70.5 C 266.139,71.0968 266.472,71.9302 266.5,73C 265.408,86.5004 264.241,100 263,113.5C 255.409,119.38 247.909,125.38 240.5,131.5C 240.167,130.5 239.833,129.5 239.5,128.5C 240.254,114.419 241.588,100.419 243.5,86.5C 250.901,81.1453 258.234,75.812 265.5,70.5 Z"/></g>
<g><path style="opacity:1" fill="#f7f700" d="M 190.5,73.5 C 205.298,77.2258 219.965,81.3925 234.5,86C 226.222,91.2781 218.222,96.9448 210.5,103C 208.635,104.301 206.635,104.635 204.5,104C 190.85,99.6682 177.183,95.3349 163.5,91C 172.675,85.3036 181.675,79.4703 190.5,73.5 Z"/></g>
<g><path style="opacity:1" fill="#f8f800" d="M 108.5,79.5 C 122.61,83.1464 136.61,87.3131 150.5,92C 141.167,98 131.833,104 122.5,110C 120.635,111.301 118.635,111.635 116.5,111C 103.489,106.663 90.4891,102.33 77.5,98C 87.8967,91.8073 98.23,85.6406 108.5,79.5 Z"/></g>
<g><path style="opacity:1" fill="#0000ed" d="M 28.5,88.5 C 41.3858,92.9066 54.3858,96.9066 67.5,100.5C 69.2207,115.799 69.5541,131.133 68.5,146.5C 56.2774,141.927 44.1108,137.26 32,132.5C 30.8324,117.822 29.6657,103.156 28.5,88.5 Z"/></g>
<g><path style="opacity:1" fill="#e90000" d="M 235.5,91.5 C 236.794,93.0478 237.461,95.0478 237.5,97.5C 236.878,110.182 236.045,122.849 235,135.5C 226.667,142.167 218.333,148.833 210,155.5C 209.514,140.125 210.18,124.791 212,109.5C 220.018,103.636 227.852,97.6365 235.5,91.5 Z"/></g>
<g><path style="opacity:1" fill="#f7f700" d="M 157.5,94.5 C 172.297,98.7916 186.964,103.458 201.5,108.5C 192.097,116.065 182.263,123.065 172,129.5C 156.983,124.717 142.15,119.551 127.5,114C 137.735,107.725 147.735,101.225 157.5,94.5 Z"/></g>
<g><path style="opacity:1" fill="#0000ed" d="M 74.5,103.5 C 88.8341,108.167 103.167,112.834 117.5,117.5C 117.5,132.833 117.5,148.167 117.5,163.5C 103.993,159.442 90.6599,154.775 77.5,149.5C 75.8707,134.21 74.8707,118.877 74.5,103.5 Z"/></g>
<g><path style="opacity:1" fill="#eb0000" d="M 177.5,181.5 C 176.506,172.348 176.173,163.015 176.5,153.5C 176.334,147.158 176.5,140.825 177,134.5C 186.667,127.5 196.333,120.5 206,113.5C 205.916,129.186 205.082,144.853 203.5,160.5C 194.79,167.554 186.123,174.554 177.5,181.5 Z"/></g>
<g><path style="opacity:1" fill="#0000ed" d="M 124.5,120.5 C 139.5,125.167 154.5,129.833 169.5,134.5C 169.833,150.847 169.499,167.18 168.5,183.5C 154.5,178.167 140.5,172.833 126.5,167.5C 125.682,164.893 125.182,162.226 125,159.5C 124.5,146.504 124.333,133.504 124.5,120.5 Z"/></g>
<g><path style="opacity:1" fill="#0000ec" d="M 238.5,179.5 C 237.539,177.735 237.205,175.735 237.5,173.5C 237.97,162.169 238.47,150.835 239,139.5C 246.356,133.31 253.856,127.31 261.5,121.5C 261.833,134.835 261,148.169 259,161.5C 252.295,167.709 245.462,173.709 238.5,179.5 Z"/></g>
<g><path style="opacity:1" fill="#fa9d00" d="M 32.5,140.5 C 45.1202,144.873 57.6202,149.54 70,154.5C 71.286,165.779 72.1193,177.113 72.5,188.5C 72.1667,191.167 71.8333,193.833 71.5,196.5C 59.5939,191.629 47.7605,186.629 36,181.5C 34.5758,167.85 33.4091,154.183 32.5,140.5 Z"/></g>
<g><path style="opacity:1" fill="#0000eb" d="M 233.5,143.5 C 234.585,157.408 233.918,171.408 231.5,185.5C 223.518,192.315 215.684,199.315 208,206.5C 207.697,192.16 208.03,177.827 209,163.5C 217.646,157.348 225.813,150.681 233.5,143.5 Z"/></g>
<g><path style="opacity:1" fill="#fb9f00" d="M 77.5,157.5 C 91.1568,162.078 104.657,167.078 118,172.5C 118.5,186.496 118.667,200.496 118.5,214.5C 105.309,210.491 92.4757,205.491 80,199.5C 78.9081,185.512 78.0747,171.512 77.5,157.5 Z"/></g>
<g><path style="opacity:1" fill="#5e0001" d="M 176.5,153.5 C 176.173,163.015 176.506,172.348 177.5,181.5C 177.44,182.043 177.107,182.376 176.5,182.5C 175.177,172.675 175.177,163.008 176.5,153.5 Z"/></g>
<g><path style="opacity:1" fill="#0000ef" d="M 202.5,169.5 C 203.485,173.634 203.818,177.968 203.5,182.5C 203.377,192.183 202.877,201.85 202,211.5C 193.333,218.669 184.833,226.002 176.5,233.5C 175.508,226.352 175.175,219.019 175.5,211.5C 175.334,204.492 175.5,197.492 176,190.5C 184.591,183.13 193.424,176.13 202.5,169.5 Z"/></g>
<g><path style="opacity:1" fill="#0000ea" d="M 256.5,169.5 C 257.777,170.694 258.444,172.36 258.5,174.5C 257.914,185.211 256.914,195.878 255.5,206.5C 248.5,213.167 241.5,219.833 234.5,226.5C 234.167,225.833 233.833,225.167 233.5,224.5C 234.517,212.524 235.351,200.524 236,188.5C 243.03,182.3 249.863,175.967 256.5,169.5 Z"/></g>
<g><path style="opacity:1" fill="#f99d00" d="M 125.5,175.5 C 140.239,180.136 154.739,185.469 169,191.5C 169.745,206.208 169.245,220.875 167.5,235.5C 153.595,229.963 139.761,224.296 126,218.5C 125.5,204.171 125.333,189.837 125.5,175.5 Z"/></g>
<g><path style="opacity:1" fill="#00007f" d="M 203.5,182.5 C 203.818,177.968 203.485,173.634 202.5,169.5C 202.783,168.711 203.283,168.044 204,167.5C 204.816,172.684 204.65,177.684 203.5,182.5 Z"/></g>
<g><path style="opacity:1" fill="#000080" d="M 237.5,173.5 C 237.205,175.735 237.539,177.735 238.5,179.5C 238.44,180.043 238.107,180.376 237.5,180.5C 236.203,178.027 236.203,175.693 237.5,173.5 Z"/></g>
<g><path style="opacity:1" fill="#f79c00" d="M 36.5,188.5 C 48.471,193.493 60.471,198.493 72.5,203.5C 73.9117,210.499 74.245,217.499 73.5,224.5C 68.0272,220.86 62.6938,217.027 57.5,213C 51.8458,213.636 51.1791,215.969 55.5,220C 62,224.5 68.5,229 75,233.5C 75.8236,236.882 75.657,240.216 74.5,243.5C 62.9402,238.26 51.4402,232.926 40,227.5C 38.6674,214.509 37.5008,201.509 36.5,188.5 Z"/></g>
<g><path style="opacity:1" fill="#0000e3" d="M 229.5,193.5 C 230.82,196.428 231.486,199.761 231.5,203.5C 231.059,212.503 230.559,221.503 230,230.5C 222.192,238.397 214.192,246.064 206,253.5C 205.333,248.5 205.333,243.5 206,238.5C 209.981,235.353 213.814,232.02 217.5,228.5C 218.814,229.313 219.981,230.313 221,231.5C 222.74,226.3 223.907,220.966 224.5,215.5C 219.215,216.402 214.215,218.069 209.5,220.5C 210.313,221.814 211.313,222.981 212.5,224C 210.667,225.833 208.833,227.667 207,229.5C 206.333,224.167 206.333,218.833 207,213.5C 214.992,207.339 222.492,200.673 229.5,193.5 Z"/></g>
<g><path style="opacity:1" fill="#fa9d00" d="M 80.5,207.5 C 93.3231,212.108 105.99,217.108 118.5,222.5C 119.498,230.472 119.831,238.472 119.5,246.5C 105.719,242.526 92.8859,236.526 81,228.5C 80.5004,221.508 80.3337,214.508 80.5,207.5 Z"/></g>
<g><path style="opacity:1" fill="#0000e2" d="M 201.5,218.5 C 202.65,223.316 202.816,228.316 202,233.5C 193.903,240.05 184.903,245.05 175,248.5C 174.333,246.5 174.333,244.5 175,242.5C 183.73,234.265 192.563,226.265 201.5,218.5 Z"/></g>
<g><path style="opacity:1" fill="#f99d00" d="M 126.5,226.5 C 140.53,231.852 154.53,237.185 168.5,242.5C 168.5,245.167 168.5,247.833 168.5,250.5C 154.438,252.108 140.438,251.775 126.5,249.5C 126.5,241.833 126.5,234.167 126.5,226.5 Z"/></g>
<g><path style="opacity:1" fill="#ff016e" d="M 175.5,211.5 C 175.175,219.019 175.508,226.352 176.5,233.5C 176.44,234.043 176.107,234.376 175.5,234.5C 174.18,226.677 174.18,219.01 175.5,211.5 Z"/></g>
<g><path style="opacity:1" fill="#f39a00" d="M 81.5,237.5 C 93.6864,243.925 106.353,249.258 119.5,253.5C 119.5,256.5 119.5,259.5 119.5,262.5C 107.038,257.565 94.7048,252.231 82.5,246.5C 81.5159,243.572 81.1826,240.572 81.5,237.5 Z"/></g>
<g><path style="opacity:1" fill="#0000ea" d="M 175.5,282.5 C 174.507,274.35 174.174,266.017 174.5,257.5C 174.5,256.5 174.5,255.5 174.5,254.5C 183.914,252.126 192.581,248.126 200.5,242.5C 201.663,247.802 201.829,253.136 201,258.5C 192.302,266.366 183.802,274.366 175.5,282.5 Z"/></g>
<g><path style="opacity:1" fill="#f89d00" d="M 164.5,257.5 C 165.5,257.5 166.5,257.5 167.5,257.5C 167.826,266.349 167.493,275.016 166.5,283.5C 153.405,278.121 140.405,272.454 127.5,266.5C 126.511,262.893 126.177,259.226 126.5,255.5C 139.039,258.492 151.706,259.159 164.5,257.5 Z"/></g>
<g><path style="opacity:1" fill="#9d6300" d="M 164.5,257.5 C 165.568,256.566 166.901,256.232 168.5,256.5C 168.832,265.857 168.498,275.19 167.5,284.5C 166.893,284.376 166.56,284.043 166.5,283.5C 167.493,275.016 167.826,266.349 167.5,257.5C 166.5,257.5 165.5,257.5 164.5,257.5 Z"/></g>
<g><path style="opacity:1" fill="#010247" d="M 174.5,257.5 C 174.174,266.017 174.507,274.35 175.5,282.5C 175.44,283.043 175.107,283.376 174.5,283.5C 173.179,274.675 173.179,266.009 174.5,257.5 Z"/></g>
</svg>
