<?xml version="1.0" encoding="UTF-8"?>
<!DOCTYPE svg PUBLIC "-//W3C//DTD SVG 1.1//EN" "http://www.w3.org/Graphics/SVG/1.1/DTD/svg11.dtd">
<svg xmlns="http://www.w3.org/2000/svg" version="1.1" width="150px" height="150px" style="shape-rendering:geometricPrecision; text-rendering:geometricPrecision; image-rendering:optimizeQuality; fill-rule:evenodd; clip-rule:evenodd" xmlns:xlink="http://www.w3.org/1999/xlink">
<g><path style="opacity:0.942" fill="#090902" d="M 31.5,13.5 C 60.1686,13.3334 88.8353,13.5 117.5,14C 119.051,18.3694 120.218,22.8694 121,27.5C 125.667,28.8333 130.333,30.1667 135,31.5C 135.667,60.1667 135.667,88.8333 135,117.5C 130.631,119.051 126.131,120.218 121.5,121C 120.167,125.667 118.833,130.333 117.5,135C 88.8333,135.667 60.1667,135.667 31.5,135C 29.949,130.631 28.7824,126.131 28,121.5C 23.3333,120.167 18.6667,118.833 14,117.5C 13.3333,88.8333 13.3333,60.1667 14,31.5C 18.6267,30.0101 23.2934,28.6768 28,27.5C 28.9819,22.7478 30.1486,18.0812 31.5,13.5 Z"/></g>
<g><path style="opacity:1" fill="#f7f700" d="M 32.5,15.5 C 41.1667,15.5 49.8333,15.5 58.5,15.5C 58.4955,19.5341 58.1621,23.5341 57.5,27.5C 48.5,27.5 39.5,27.5 30.5,27.5C 30.8478,23.4432 31.5145,19.4432 32.5,15.5 Z"/></g>
<g><path style="opacity:1" fill="#3f3f3f" d="M 61.5,15.5 C 70.1667,15.5 78.8333,15.5 87.5,15.5C 87.5,19.5 87.5,23.5 87.5,27.5C 78.8333,27.5 70.1667,27.5 61.5,27.5C 61.5,23.5 61.5,19.5 61.5,15.5 Z"/></g>
<g><path style="opacity:1" fill="#3f3f3f" d="M 91.5,15.5 C 99.8333,15.5 108.167,15.5 116.5,15.5C 117.295,19.4764 117.962,23.4764 118.5,27.5C 109.5,27.5 100.5,27.5 91.5,27.5C 91.5,23.5 91.5,19.5 91.5,15.5 Z"/></g>
<g><path style="opacity:1" fill="#3f3f3f" d="M 23.5,30.5 C 24.8333,30.5 26.1667,30.5 27.5,30.5C 27.5,39.5 27.5,48.5 27.5,57.5C 23.5,57.5 19.5,57.5 15.5,57.5C 15.5,49.1667 15.5,40.8333 15.5,32.5C 18.3725,32.1977 21.0392,31.531 23.5,30.5 Z"/></g>
<g><path style="opacity:1" fill="#3f3f3f" d="M 30.5,30.5 C 39.1667,30.5 47.8333,30.5 56.5,30.5C 56.5,39.1667 56.5,47.8333 56.5,56.5C 47.8333,56.5 39.1667,56.5 30.5,56.5C 30.5,47.8333 30.5,39.1667 30.5,30.5 Z"/></g>
<g><path style="opacity:1" fill="#fdfd00" d="M 61.5,30.5 C 70.1667,30.5 78.8333,30.5 87.5,30.5C 87.5,39.1667 87.5,47.8333 87.5,56.5C 78.8333,56.5 70.1667,56.5 61.5,56.5C 61.5,47.8333 61.5,39.1667 61.5,30.5 Z"/></g>
<g><path style="opacity:1" fill="#fdfd00" d="M 92.5,30.5 C 101.167,30.5 109.833,30.5 118.5,30.5C 118.5,39.1667 118.5,47.8333 118.5,56.5C 109.833,56.5 101.167,56.5 92.5,56.5C 92.5,47.8333 92.5,39.1667 92.5,30.5 Z"/></g>
<g><path style="opacity:1" fill="#3f3f3f" d="M 121.5,30.5 C 125.462,31.3755 129.462,32.0422 133.5,32.5C 133.5,41.1667 133.5,49.8333 133.5,58.5C 129.548,57.7279 125.548,57.3946 121.5,57.5C 121.5,48.5 121.5,39.5 121.5,30.5 Z"/></g>
<g><path style="opacity:1" fill="#3f3f3f" d="M 15.5,61.5 C 19.5,61.5 23.5,61.5 27.5,61.5C 27.5,70.1667 27.5,78.8333 27.5,87.5C 23.5,87.5 19.5,87.5 15.5,87.5C 15.5,78.8333 15.5,70.1667 15.5,61.5 Z"/></g>
<g><path style="opacity:1" fill="#fdfd00" d="M 30.5,61.5 C 39.1667,61.5 47.8333,61.5 56.5,61.5C 56.5,70.1667 56.5,78.8333 56.5,87.5C 47.8333,87.5 39.1667,87.5 30.5,87.5C 30.5,78.8333 30.5,70.1667 30.5,61.5 Z"/></g>
<g><path style="opacity:1" fill="#fdfe00" d="M 61.5,61.5 C 70.1667,61.5 78.8333,61.5 87.5,61.5C 87.5,70.1667 87.5,78.8333 87.5,87.5C 78.8333,87.5 70.1667,87.5 61.5,87.5C 61.5,78.8333 61.5,70.1667 61.5,61.5 Z"/></g>
<g><path style="opacity:1" fill="#3f403f" d="M 92.5,61.5 C 101.167,61.5 109.833,61.5 118.5,61.5C 118.5,70.1667 118.5,78.8333 118.5,87.5C 109.833,87.5 101.167,87.5 92.5,87.5C 92.5,78.8333 92.5,70.1667 92.5,61.5 Z"/></g>
<g><path style="opacity:1" fill="#fcfc00" d="M 121.5,61.5 C 125.5,61.5 129.5,61.5 133.5,61.5C 133.5,70.1667 133.5,78.8333 133.5,87.5C 129.5,87.5 125.5,87.5 121.5,87.5C 121.5,78.8333 121.5,70.1667 121.5,61.5 Z"/></g>
<g><path style="opacity:1" fill="#3f3f3f" d="M 15.5,91.5 C 19.5,91.5 23.5,91.5 27.5,91.5C 27.5,100.5 27.5,109.5 27.5,118.5C 23.5384,117.624 19.5384,116.958 15.5,116.5C 15.5,108.167 15.5,99.8333 15.5,91.5 Z"/></g>
<g><path style="opacity:1" fill="#3f3f3f" d="M 121.5,91.5 C 125.5,91.5 129.5,91.5 133.5,91.5C 133.5,99.8333 133.5,108.167 133.5,116.5C 129.462,116.958 125.462,117.624 121.5,118.5C 121.5,109.5 121.5,100.5 121.5,91.5 Z"/></g>
<g><path style="opacity:1" fill="#3f3f3f" d="M 30.5,92.5 C 39.1667,92.5 47.8333,92.5 56.5,92.5C 56.5,101.167 56.5,109.833 56.5,118.5C 47.8333,118.5 39.1667,118.5 30.5,118.5C 30.5,109.833 30.5,101.167 30.5,92.5 Z"/></g>
<g><path style="opacity:1" fill="#3f403f" d="M 61.5,92.5 C 70.1667,92.5 78.8333,92.5 87.5,92.5C 87.5,101.167 87.5,109.833 87.5,118.5C 78.8333,118.5 70.1667,118.5 61.5,118.5C 61.5,109.833 61.5,101.167 61.5,92.5 Z"/></g>
<g><path style="opacity:1" fill="#fdfe00" d="M 92.5,92.5 C 101.167,92.5 109.833,92.5 118.5,92.5C 118.5,101.167 118.5,109.833 118.5,118.5C 109.833,118.5 101.167,118.5 92.5,118.5C 92.5,109.833 92.5,101.167 92.5,92.5 Z"/></g>
<g><path style="opacity:1" fill="#f7f700" d="M 30.5,121.5 C 39.5,121.5 48.5,121.5 57.5,121.5C 58.2721,125.452 58.6054,129.452 58.5,133.5C 49.8078,133.831 41.1411,133.498 32.5,132.5C 31.6479,128.869 30.9812,125.202 30.5,121.5 Z"/></g>
<g><path style="opacity:1" fill="#fcfc00" d="M 61.5,121.5 C 70.1667,121.5 78.8333,121.5 87.5,121.5C 87.5,125.5 87.5,129.5 87.5,133.5C 78.8333,133.5 70.1667,133.5 61.5,133.5C 61.5,129.5 61.5,125.5 61.5,121.5 Z"/></g>
<g><path style="opacity:1" fill="#3f3f3f" d="M 91.5,121.5 C 100.5,121.5 109.5,121.5 118.5,121.5C 117.624,125.462 116.958,129.462 116.5,133.5C 107.833,133.5 99.1667,133.5 90.5,133.5C 91.2721,129.548 91.6054,125.548 91.5,121.5 Z"/></g>
</svg>
