<?xml version="1.0" encoding="UTF-8"?>
<!DOCTYPE svg PUBLIC "-//W3C//DTD SVG 1.1//EN" "http://www.w3.org/Graphics/SVG/1.1/DTD/svg11.dtd">
<svg xmlns="http://www.w3.org/2000/svg" version="1.1" width="300px" height="300px" style="shape-rendering:geometricPrecision; text-rendering:geometricPrecision; image-rendering:optimizeQuality; fill-rule:evenodd; clip-rule:evenodd" xmlns:xlink="http://www.w3.org/1999/xlink">
<g><path style="opacity:0.971" fill="#080503" d="M 128.5,26.5 C 174.702,37.384 220.702,49.2173 266.5,62C 268.049,63.214 269.215,64.714 270,66.5C 267.505,113.93 263.839,161.263 259,208.5C 230.833,235.333 202.667,262.167 174.5,289C 170.739,289.738 167.072,289.405 163.5,288C 121.75,269.527 80.083,250.861 38.5,232C 36.9512,230.786 35.7845,229.286 35,227.5C 30.4479,179.543 26.7812,131.543 24,83.5C 24.7845,81.714 25.9512,80.214 27.5,79C 61.5424,61.9808 95.209,44.4808 128.5,26.5 Z"/></g>
<g><path style="opacity:1" fill="#f5f500" d="M 129.5,30.5 C 142.449,32.5384 155.115,35.7051 167.5,40C 159.5,44.6667 151.5,49.3333 143.5,54C 141.5,54.6667 139.5,54.6667 137.5,54C 126.305,51.1207 115.305,47.7873 104.5,44C 112.927,39.4569 121.26,34.9569 129.5,30.5 Z"/></g>
<g><path style="opacity:1" fill="#f4f400" d="M 174.5,41.5 C 187.585,44.6952 200.585,48.1952 213.5,52C 205.259,57.9093 196.759,63.4093 188,68.5C 174.856,64.589 161.689,60.7557 148.5,57C 157.395,52.059 166.062,46.8923 174.5,41.5 Z"/></g>
<g><path style="opacity:1" fill="#f7f700" d="M 96.5,47.5 C 109.977,49.2855 122.977,52.7855 135.5,58C 127.092,63.3995 118.425,68.3995 109.5,73C 107.167,73.6667 104.833,73.6667 102.5,73C 91.576,69.9148 80.9093,66.2481 70.5,62C 79.3903,57.3925 88.057,52.5591 96.5,47.5 Z"/></g>
<g><path style="opacity:1" fill="#f3f3f3" d="M 219.5,54.5 C 234.051,57.2729 248.384,60.9396 262.5,65.5C 254.461,71.3764 246.294,77.0431 238,82.5C 228.202,79.5404 218.368,76.7071 208.5,74C 213.566,71.9228 218.899,71.0895 224.5,71.5C 224.215,73.288 224.548,74.9547 225.5,76.5C 230.5,74 235.5,71.5 240.5,69C 235.97,65.6377 231.303,62.4711 226.5,59.5C 225.548,61.0453 225.215,62.712 225.5,64.5C 215.523,65.2502 205.857,67.0835 196.5,70C 204.344,64.9703 212.011,59.8037 219.5,54.5 Z"/></g>
<g><path style="opacity:1" fill="#f7f700" d="M 142.5,59.5 C 156.098,63.3902 169.765,67.2235 183.5,71C 174.833,76.6667 166.167,82.3333 157.5,88C 154.485,88.2009 151.485,87.8676 148.5,87C 137.352,83.7286 126.352,80.0619 115.5,76C 124.897,70.9765 133.897,65.4765 142.5,59.5 Z"/></g>
<g><path style="opacity:1" fill="#f7f700" d="M 62.5,65.5 C 75.7392,68.6906 88.7392,72.6906 101.5,77.5C 91.3703,83.1338 81.3703,88.9672 71.5,95C 57.8938,91.9662 44.5605,87.7995 31.5,82.5C 42.0557,77.0591 52.3891,71.3925 62.5,65.5 Z"/></g>
<g><path style="opacity:1" fill="#e80000" d="M 265.5,70.5 C 266.139,71.0968 266.472,71.9302 266.5,73C 265.408,86.5004 264.241,100 263,113.5C 255.409,119.38 247.909,125.38 240.5,131.5C 240.167,130.5 239.833,129.5 239.5,128.5C 240.254,114.419 241.588,100.419 243.5,86.5C 250.901,81.1453 258.234,75.812 265.5,70.5 Z"/></g>
<g><path style="opacity:1" fill="#f9f9f9" d="M 199.5,76.5 C 211.078,78.7891 222.412,81.9558 233.5,86C 225.833,91.6667 218.167,97.3333 210.5,103C 208.635,104.301 206.635,104.635 204.5,104C 195.766,101.758 187.432,98.7582 179.5,95C 185.097,87.565 191.764,81.3983 199.5,76.5 Z"/></g>
<g><path style="opacity:1" fill="#f8f800" d="M 108.5,79.5 C 122.61,83.1464 136.61,87.3131 150.5,92C 141.167,98 131.833,104 122.5,110C 120.635,111.301 118.635,111.635 116.5,111C 103.489,106.663 90.4891,102.33 77.5,98C 87.8967,91.8073 98.23,85.6406 108.5,79.5 Z"/></g>
<g><path style="opacity:1" fill="#e3e3e3" d="M 188.5,74.5 C 189.239,74.369 189.906,74.5357 190.5,75C 183.167,79.6667 177.167,85.6667 172.5,93C 169.315,93.3879 166.315,92.7213 163.5,91C 172.241,85.9733 180.575,80.4733 188.5,74.5 Z"/></g>
<g><path style="opacity:1" fill="#0000ed" d="M 28.5,88.5 C 41.3858,92.9066 54.3858,96.9066 67.5,100.5C 69.2207,115.799 69.5541,131.133 68.5,146.5C 56.2774,141.927 44.1108,137.26 32,132.5C 30.8324,117.822 29.6657,103.156 28.5,88.5 Z"/></g>
<g><path style="opacity:1" fill="#e90000" d="M 235.5,91.5 C 236.794,93.0478 237.461,95.0478 237.5,97.5C 236.878,110.182 236.045,122.849 235,135.5C 226.667,142.167 218.333,148.833 210,155.5C 209.514,140.125 210.18,124.791 212,109.5C 220.018,103.636 227.852,97.6365 235.5,91.5 Z"/></g>
<g><path style="opacity:1" fill="#f6f6f6" d="M 157.5,94.5 C 161.447,95.0381 165.113,96.3714 168.5,98.5C 163.948,106.936 159.948,115.603 156.5,124.5C 146.685,121.285 137.019,117.785 127.5,114C 137.735,107.725 147.735,101.225 157.5,94.5 Z"/></g>
<g><path style="opacity:1" fill="#f8f8f8" d="M 175.5,100.5 C 184.355,102.563 193.022,105.23 201.5,108.5C 192.097,116.065 182.263,123.065 172,129.5C 168.759,128.82 165.926,127.486 163.5,125.5C 166.712,116.744 170.712,108.411 175.5,100.5 Z"/></g>
<g><path style="opacity:1" fill="#0000ed" d="M 74.5,103.5 C 88.8341,108.167 103.167,112.834 117.5,117.5C 117.5,132.833 117.5,148.167 117.5,163.5C 103.993,159.442 90.6599,154.775 77.5,149.5C 75.8707,134.21 74.8707,118.877 74.5,103.5 Z"/></g>
<g><path style="opacity:1" fill="#eb0000" d="M 177.5,181.5 C 176.506,172.348 176.173,163.015 176.5,153.5C 176.334,147.158 176.5,140.825 177,134.5C 186.667,127.5 196.333,120.5 206,113.5C 205.916,129.186 205.082,144.853 203.5,160.5C 194.79,167.554 186.123,174.554 177.5,181.5 Z"/></g>
<g><path style="opacity:1" fill="#00d300" d="M 124.5,120.5 C 135.28,123.202 145.613,126.869 155.5,131.5C 151.396,145.586 148.396,159.92 146.5,174.5C 139.652,172.745 132.985,170.412 126.5,167.5C 125.456,151.848 124.789,136.181 124.5,120.5 Z"/></g>
<g><path style="opacity:1" fill="#e70000" d="M 260.5,121.5 C 261.693,121.97 262.36,122.97 262.5,124.5C 261.706,136.869 260.539,149.202 259,161.5C 251.982,168.019 244.815,174.353 237.5,180.5C 237.167,179.333 236.833,178.167 236.5,177C 237.862,164.538 238.695,152.038 239,139.5C 246.357,133.636 253.524,127.636 260.5,121.5 Z"/></g>
<g><path style="opacity:1" fill="#00d100" d="M 161.5,132.5 C 164.112,133.371 166.779,134.037 169.5,134.5C 169.833,150.847 169.499,167.18 168.5,183.5C 163.609,181.593 158.776,179.593 154,177.5C 154.37,162.149 156.87,147.149 161.5,132.5 Z"/></g>
<g><path style="opacity:1" fill="#0000ec" d="M 32.5,140.5 C 45.2632,144.476 57.7632,149.143 70,154.5C 71.286,165.779 72.1193,177.113 72.5,188.5C 72.1667,191.167 71.8333,193.833 71.5,196.5C 59.5939,191.629 47.7605,186.629 36,181.5C 34.5758,167.85 33.4091,154.183 32.5,140.5 Z"/></g>
<g><path style="opacity:1" fill="#e70000" d="M 233.5,143.5 C 234.585,157.408 233.918,171.408 231.5,185.5C 223.518,192.315 215.684,199.315 208,206.5C 207.528,192.154 207.862,177.821 209,163.5C 217.646,157.348 225.813,150.681 233.5,143.5 Z"/></g>
<g><path style="opacity:1" fill="#0000ee" d="M 118.5,202.5 C 119.089,206.971 118.423,210.971 116.5,214.5C 104.169,209.918 92.0019,204.918 80,199.5C 78.6808,185.541 77.8475,171.541 77.5,157.5C 91.2623,161.809 104.762,166.809 118,172.5C 118.5,182.494 118.666,192.494 118.5,202.5 Z"/></g>
<g><path style="opacity:1" fill="#5e0001" d="M 176.5,153.5 C 176.173,163.015 176.506,172.348 177.5,181.5C 177.44,182.043 177.107,182.376 176.5,182.5C 175.177,172.675 175.177,163.008 176.5,153.5 Z"/></g>
<g><path style="opacity:1" fill="#eb0000" d="M 202.5,169.5 C 203.486,173.97 203.819,178.637 203.5,183.5C 203.332,192.848 202.832,202.181 202,211.5C 193.333,218.669 184.833,226.002 176.5,233.5C 175.507,225.35 175.174,217.017 175.5,208.5C 175.334,202.491 175.501,196.491 176,190.5C 184.591,183.13 193.424,176.13 202.5,169.5 Z"/></g>
<g><path style="opacity:1" fill="#e70000" d="M 256.5,169.5 C 257.777,170.694 258.444,172.36 258.5,174.5C 257.914,185.211 256.914,195.878 255.5,206.5C 248.833,212.833 242.167,219.167 235.5,225.5C 234.454,213.164 234.621,200.831 236,188.5C 243.03,182.3 249.863,175.967 256.5,169.5 Z"/></g>
<g><path style="opacity:1" fill="#00d000" d="M 125.5,175.5 C 132.123,177.449 138.623,179.782 145,182.5C 144.47,196.825 143.636,211.158 142.5,225.5C 137.024,223.065 131.524,220.732 126,218.5C 125.5,204.171 125.333,189.837 125.5,175.5 Z"/></g>
<g><path style="opacity:1" fill="#7b0001" d="M 203.5,183.5 C 203.819,178.637 203.486,173.97 202.5,169.5C 202.783,168.711 203.283,168.044 204,167.5C 204.817,173.016 204.651,178.35 203.5,183.5 Z"/></g>
<g><path style="opacity:1" fill="#00d000" d="M 151.5,185.5 C 157.576,186.803 163.409,188.803 169,191.5C 169.745,206.208 169.245,220.875 167.5,235.5C 161.86,233.455 156.36,231.121 151,228.5C 150.425,214.158 150.592,199.824 151.5,185.5 Z"/></g>
<g><path style="opacity:1" fill="#0000ec" d="M 74.5,235.5 C 74.8016,238.059 74.4682,240.393 73.5,242.5C 62.156,237.827 50.8227,233.16 39.5,228.5C 37.9258,215.204 37.0925,201.871 37,188.5C 48.7605,193.629 60.5939,198.629 72.5,203.5C 74.0409,214.109 74.7075,224.776 74.5,235.5 Z"/></g>
<g><path style="opacity:1" fill="#e70000" d="M 229.5,193.5 C 230.82,196.428 231.486,199.761 231.5,203.5C 231.059,212.503 230.559,221.503 230,230.5C 221.808,237.936 213.808,245.603 206,253.5C 205.846,240.155 206.346,226.822 207.5,213.5C 215.178,207.152 222.512,200.485 229.5,193.5 Z"/></g>
<g><path style="opacity:1" fill="#0000ee" d="M 81.5,207.5 C 93.9234,212.307 106.257,217.307 118.5,222.5C 119.497,229.803 119.831,237.137 119.5,244.5C 119.823,250.69 119.49,256.69 118.5,262.5C 106.164,257.583 93.9972,252.249 82,246.5C 81.4823,236.83 80.9823,227.163 80.5,217.5C 80.1872,213.958 80.5206,210.625 81.5,207.5 Z"/></g>
<g><path style="opacity:1" fill="#ff034e" d="M 118.5,202.5 C 119.485,206.634 119.818,210.968 119.5,215.5C 118.209,215.737 117.209,215.404 116.5,214.5C 118.423,210.971 119.089,206.971 118.5,202.5 Z"/></g>
<g><path style="opacity:1" fill="#fe0554" d="M 81.5,207.5 C 80.5206,210.625 80.1872,213.958 80.5,217.5C 79.1923,213.981 79.1923,210.315 80.5,206.5C 81.1067,206.624 81.44,206.957 81.5,207.5 Z"/></g>
<g><path style="opacity:1" fill="#ea0000" d="M 175.5,282.5 C 174.509,275.687 174.175,268.687 174.5,261.5C 174.334,255.158 174.5,248.825 175,242.5C 183.703,234.129 192.703,226.129 202,218.5C 202.066,231.856 201.399,245.189 200,258.5C 191.938,266.73 183.772,274.73 175.5,282.5 Z"/></g>
<g><path style="opacity:1" fill="#00d400" d="M 149.5,256.5 C 150.167,249.833 150.833,243.167 151.5,236.5C 157.066,238.783 162.733,240.783 168.5,242.5C 168.5,249.833 168.5,257.167 168.5,264.5C 167.833,270.833 167.167,277.167 166.5,283.5C 153.405,278.121 140.405,272.454 127.5,266.5C 126.501,253.183 126.167,239.85 126.5,226.5C 132.021,227.924 137.354,229.924 142.5,232.5C 143.332,240.479 143.832,248.479 144,256.5C 145.969,259.124 147.802,259.124 149.5,256.5 Z"/></g>
<g><path style="opacity:1" fill="#6a0000" d="M 175.5,208.5 C 175.174,217.017 175.507,225.35 176.5,233.5C 176.44,234.043 176.107,234.376 175.5,234.5C 174.179,225.675 174.179,217.009 175.5,208.5 Z"/></g>
<g><path style="opacity:1" fill="#000080" d="M 74.5,235.5 C 75.8003,238.024 75.8003,240.691 74.5,243.5C 73.8933,243.376 73.56,243.043 73.5,242.5C 74.4682,240.393 74.8016,238.059 74.5,235.5 Z"/></g>
<g><path style="opacity:1" fill="#013401" d="M 151.5,236.5 C 150.833,243.167 150.167,249.833 149.5,256.5C 149.17,249.468 149.503,242.468 150.5,235.5C 151.107,235.624 151.44,235.957 151.5,236.5 Z"/></g>
<g><path style="opacity:1" fill="#00024c" d="M 119.5,244.5 C 120.817,250.678 120.817,257.012 119.5,263.5C 118.893,263.376 118.56,263.043 118.5,262.5C 119.49,256.69 119.823,250.69 119.5,244.5 Z"/></g>
<g><path style="opacity:1" fill="#500000" d="M 174.5,261.5 C 174.175,268.687 174.509,275.687 175.5,282.5C 175.44,283.043 175.107,283.376 174.5,283.5C 173.181,276.01 173.181,268.677 174.5,261.5 Z"/></g>
<g><path style="opacity:1" fill="#006b00" d="M 168.5,264.5 C 168.83,271.2 168.497,277.866 167.5,284.5C 166.893,284.376 166.56,284.043 166.5,283.5C 167.167,277.167 167.833,270.833 168.5,264.5 Z"/></g>
</svg>
