<?xml version="1.0" encoding="UTF-8"?>
<!DOCTYPE svg PUBLIC "-//W3C//DTD SVG 1.1//EN" "http://www.w3.org/Graphics/SVG/1.1/DTD/svg11.dtd">
<svg xmlns="http://www.w3.org/2000/svg" version="1.1" width="300px" height="300px" style="shape-rendering:geometricPrecision; text-rendering:geometricPrecision; image-rendering:optimizeQuality; fill-rule:evenodd; clip-rule:evenodd" xmlns:xlink="http://www.w3.org/1999/xlink">
<g><path style="opacity:0.971" fill="#080403" d="M 128.5,26.5 C 174.702,37.384 220.702,49.2173 266.5,62C 268.049,63.214 269.215,64.714 270,66.5C 267.505,113.93 263.839,161.263 259,208.5C 230.833,235.333 202.667,262.167 174.5,289C 170.739,289.738 167.072,289.405 163.5,288C 121.75,269.527 80.083,250.861 38.5,232C 36.9512,230.786 35.7845,229.286 35,227.5C 30.4479,179.543 26.7812,131.543 24,83.5C 24.7845,81.714 25.9512,80.214 27.5,79C 61.5424,61.9808 95.209,44.4808 128.5,26.5 Z"/></g>
<g><path style="opacity:1" fill="#f2f2f2" d="M 129.5,30.5 C 142.387,32.7218 155.054,35.8884 167.5,40C 158.734,45.3815 149.734,50.2148 140.5,54.5C 131.498,52.7523 122.832,50.0856 114.5,46.5C 119.792,45.5052 125.125,45.1718 130.5,45.5C 130.215,47.288 130.548,48.9547 131.5,50.5C 136.629,48.4353 141.629,46.102 146.5,43.5C 142.112,39.7786 137.445,36.4453 132.5,33.5C 131.548,35.0453 131.215,36.712 131.5,38.5C 126.489,38.6659 121.489,38.4993 116.5,38C 120.896,35.4731 125.229,32.9731 129.5,30.5 Z"/></g>
<g><path style="opacity:1" fill="#f4f400" d="M 174.5,41.5 C 187.585,44.6952 200.585,48.1952 213.5,52C 205.259,57.9093 196.759,63.4093 188,68.5C 174.856,64.589 161.689,60.7557 148.5,57C 157.395,52.059 166.062,46.8923 174.5,41.5 Z"/></g>
<g><path style="opacity:1" fill="#f9f9f9" d="M 102.5,48.5 C 113.677,51.0904 124.677,54.257 135.5,58C 127.092,63.3995 118.425,68.3995 109.5,73C 106.134,73.3301 102.801,72.9967 99.5,72C 93.0164,70.2701 86.6831,68.1034 80.5,65.5C 86.7103,58.2787 94.0437,52.6121 102.5,48.5 Z"/></g>
<g><path style="opacity:1" fill="#f5f500" d="M 219.5,54.5 C 234.098,57.0663 248.431,60.7329 262.5,65.5C 254.461,71.3764 246.294,77.0431 238,82.5C 223.992,78.718 210.159,74.5513 196.5,70C 204.344,64.9703 212.011,59.8037 219.5,54.5 Z"/></g>
<g><path style="opacity:1" fill="#f7f700" d="M 142.5,59.5 C 156.098,63.3902 169.765,67.2235 183.5,71C 174.833,76.6667 166.167,82.3333 157.5,88C 154.485,88.2009 151.485,87.8676 148.5,87C 137.352,83.7286 126.352,80.0619 115.5,76C 124.897,70.9765 133.897,65.4765 142.5,59.5 Z"/></g>
<g><path style="opacity:1" fill="#d2d2d2" d="M 75.5,58.5 C 76.2389,58.369 76.9056,58.5357 77.5,59C 76.1667,60.3333 74.8333,61.6667 73.5,63C 72.2752,63.5628 71.2752,63.2295 70.5,62C 72.2331,60.8111 73.8998,59.6444 75.5,58.5 Z"/></g>
<g><path style="opacity:1" fill="#f5f5f5" d="M 62.5,65.5 C 65.4629,65.1507 67.7962,66.1507 69.5,68.5C 64.999,75.6734 61.6656,83.3401 59.5,91.5C 49.9953,89.6105 40.9953,86.4438 32.5,82C 42.7226,76.7258 52.7226,71.2258 62.5,65.5 Z"/></g>
<g><path style="opacity:1" fill="#f6f6f6" d="M 76.5,69.5 C 84.9672,71.7011 93.3005,74.3678 101.5,77.5C 91.3703,83.1338 81.3703,88.9672 71.5,95C 65.8422,95.7638 64.3422,93.5972 67,88.5C 69.666,81.8346 72.8327,75.5013 76.5,69.5 Z"/></g>
<g><path style="opacity:1" fill="#e80000" d="M 265.5,70.5 C 266.139,71.0968 266.472,71.9302 266.5,73C 265.408,86.5004 264.241,100 263,113.5C 255.409,119.38 247.909,125.38 240.5,131.5C 240.167,130.5 239.833,129.5 239.5,128.5C 240.254,114.419 241.588,100.419 243.5,86.5C 250.901,81.1453 258.234,75.812 265.5,70.5 Z"/></g>
<g><path style="opacity:1" fill="#f7f700" d="M 190.5,73.5 C 205.298,77.2258 219.965,81.3925 234.5,86C 226.222,91.2781 218.222,96.9448 210.5,103C 208.635,104.301 206.635,104.635 204.5,104C 190.85,99.6682 177.183,95.3349 163.5,91C 172.675,85.3036 181.675,79.4703 190.5,73.5 Z"/></g>
<g><path style="opacity:1" fill="#f8f800" d="M 108.5,79.5 C 122.61,83.1464 136.61,87.3131 150.5,92C 141.167,98 131.833,104 122.5,110C 120.635,111.301 118.635,111.635 116.5,111C 103.489,106.663 90.4891,102.33 77.5,98C 87.8967,91.8073 98.23,85.6406 108.5,79.5 Z"/></g>
<g><path style="opacity:1" fill="#00d400" d="M 28.5,88.5 C 38.3024,91.4341 47.969,94.7675 57.5,98.5C 55.3061,103.963 53.8061,109.63 53,115.5C 52.2924,123.584 51.1257,131.584 49.5,139.5C 43.6099,137.26 37.7766,134.927 32,132.5C 30.8327,117.826 29.6661,103.16 28.5,88.5 Z"/></g>
<g><path style="opacity:1" fill="#e90000" d="M 235.5,91.5 C 236.794,93.0478 237.461,95.0478 237.5,97.5C 236.878,110.182 236.045,122.849 235,135.5C 226.667,142.167 218.333,148.833 210,155.5C 209.514,140.125 210.18,124.791 212,109.5C 220.018,103.636 227.852,97.6365 235.5,91.5 Z"/></g>
<g><path style="opacity:1" fill="#f7f700" d="M 157.5,94.5 C 172.297,98.7916 186.964,103.458 201.5,108.5C 192.097,116.065 182.263,123.065 172,129.5C 156.983,124.717 142.15,119.551 127.5,114C 137.735,107.725 147.735,101.225 157.5,94.5 Z"/></g>
<g><path style="opacity:1" fill="#00c900" d="M 62.5,100.5 C 64.1667,100.5 65.8333,100.5 67.5,100.5C 69.2207,115.799 69.5541,131.133 68.5,146.5C 65.1667,145.167 61.8333,143.833 58.5,142.5C 58.1667,140 57.8333,137.5 57.5,135C 58.2467,123.355 59.9134,111.855 62.5,100.5 Z"/></g>
<g><path style="opacity:1" fill="#0000ed" d="M 74.5,103.5 C 88.8341,108.167 103.167,112.834 117.5,117.5C 117.5,132.833 117.5,148.167 117.5,163.5C 103.993,159.442 90.6599,154.775 77.5,149.5C 75.8707,134.21 74.8707,118.877 74.5,103.5 Z"/></g>
<g><path style="opacity:1" fill="#eb0000" d="M 177.5,181.5 C 176.506,172.348 176.173,163.015 176.5,153.5C 176.334,147.158 176.5,140.825 177,134.5C 186.667,127.5 196.333,120.5 206,113.5C 205.916,129.186 205.082,144.853 203.5,160.5C 194.79,167.554 186.123,174.554 177.5,181.5 Z"/></g>
<g><path style="opacity:1" fill="#0000ed" d="M 124.5,120.5 C 139.5,125.167 154.5,129.833 169.5,134.5C 169.833,150.847 169.499,167.18 168.5,183.5C 154.5,178.167 140.5,172.833 126.5,167.5C 125.682,164.893 125.182,162.226 125,159.5C 124.5,146.504 124.333,133.504 124.5,120.5 Z"/></g>
<g><path style="opacity:1" fill="#e70000" d="M 260.5,121.5 C 261.693,121.97 262.36,122.97 262.5,124.5C 261.706,136.869 260.539,149.202 259,161.5C 251.982,168.019 244.815,174.353 237.5,180.5C 237.167,179.333 236.833,178.167 236.5,177C 237.862,164.538 238.695,152.038 239,139.5C 246.357,133.636 253.524,127.636 260.5,121.5 Z"/></g>
<g><path style="opacity:1" fill="#00d300" d="M 49.5,146.5 C 49.8289,160.01 49.4956,173.344 48.5,186.5C 44.1812,185.259 40.0145,183.592 36,181.5C 34.5758,167.85 33.4091,154.183 32.5,140.5C 38.3109,142.104 43.9776,144.104 49.5,146.5 Z"/></g>
<g><path style="opacity:1" fill="#e70000" d="M 233.5,143.5 C 234.585,157.408 233.918,171.408 231.5,185.5C 223.518,192.315 215.684,199.315 208,206.5C 207.528,192.154 207.862,177.821 209,163.5C 217.646,157.348 225.813,150.681 233.5,143.5 Z"/></g>
<g><path style="opacity:1" fill="#00d100" d="M 56.5,149.5 C 61.0477,151.023 65.5477,152.69 70,154.5C 71.2026,166.62 72.036,178.787 72.5,191C 72.1667,192.833 71.8333,194.667 71.5,196.5C 66.7513,194.695 62.0846,192.695 57.5,190.5C 56.5008,176.85 56.1675,163.183 56.5,149.5 Z"/></g>
<g><path style="opacity:1" fill="#0000ee" d="M 118.5,202.5 C 119.089,206.971 118.423,210.971 116.5,214.5C 104.169,209.918 92.0019,204.918 80,199.5C 78.6808,185.541 77.8475,171.541 77.5,157.5C 91.2623,161.809 104.762,166.809 118,172.5C 118.5,182.494 118.666,192.494 118.5,202.5 Z"/></g>
<g><path style="opacity:1" fill="#ff4503" d="M 49.5,146.5 C 50.8255,160.006 50.8255,173.672 49.5,187.5C 48.8933,187.376 48.56,187.043 48.5,186.5C 49.4956,173.344 49.8289,160.01 49.5,146.5 Z"/></g>
<g><path style="opacity:1" fill="#5e0001" d="M 176.5,153.5 C 176.173,163.015 176.506,172.348 177.5,181.5C 177.44,182.043 177.107,182.376 176.5,182.5C 175.177,172.675 175.177,163.008 176.5,153.5 Z"/></g>
<g><path style="opacity:1" fill="#eb0000" d="M 202.5,169.5 C 203.486,173.97 203.819,178.637 203.5,183.5C 203.332,192.848 202.832,202.181 202,211.5C 193.333,218.669 184.833,226.002 176.5,233.5C 175.507,225.35 175.174,217.017 175.5,208.5C 175.334,202.491 175.501,196.491 176,190.5C 184.591,183.13 193.424,176.13 202.5,169.5 Z"/></g>
<g><path style="opacity:1" fill="#e70000" d="M 256.5,169.5 C 257.777,170.694 258.444,172.36 258.5,174.5C 257.914,185.211 256.914,195.878 255.5,206.5C 248.833,212.833 242.167,219.167 235.5,225.5C 234.454,213.164 234.621,200.831 236,188.5C 243.03,182.3 249.863,175.967 256.5,169.5 Z"/></g>
<g><path style="opacity:1" fill="#0000eb" d="M 125.5,175.5 C 140.239,180.136 154.739,185.469 169,191.5C 169.915,206.223 169.415,220.89 167.5,235.5C 153.595,229.963 139.761,224.296 126,218.5C 125.5,204.171 125.333,189.837 125.5,175.5 Z"/></g>
<g><path style="opacity:1" fill="#7b0001" d="M 203.5,183.5 C 203.819,178.637 203.486,173.97 202.5,169.5C 202.783,168.711 203.283,168.044 204,167.5C 204.817,173.016 204.651,178.35 203.5,183.5 Z"/></g>
<g><path style="opacity:1" fill="#00d200" d="M 74.5,231.5 C 74.815,235.371 74.4816,239.038 73.5,242.5C 62.1314,237.987 50.9648,232.987 40,227.5C 38.5003,214.507 37.5003,201.507 37,188.5C 41.3578,190.787 45.8578,192.787 50.5,194.5C 51.5112,202.145 52.3445,209.811 53,217.5C 54.3957,219.527 56.0624,219.86 58,218.5C 58.2234,211.437 58.39,204.437 58.5,197.5C 63.0846,199.695 67.7513,201.695 72.5,203.5C 73.5357,212.81 74.2023,222.143 74.5,231.5 Z"/></g>
<g><path style="opacity:1" fill="#e70000" d="M 229.5,193.5 C 230.82,196.428 231.486,199.761 231.5,203.5C 231.059,212.503 230.559,221.503 230,230.5C 221.808,237.936 213.808,245.603 206,253.5C 205.846,240.155 206.346,226.822 207.5,213.5C 215.178,207.152 222.512,200.485 229.5,193.5 Z"/></g>
<g><path style="opacity:1" fill="#0000ee" d="M 81.5,207.5 C 93.9234,212.307 106.257,217.307 118.5,222.5C 119.497,229.803 119.831,237.137 119.5,244.5C 119.823,250.69 119.49,256.69 118.5,262.5C 106.164,257.583 93.9972,252.249 82,246.5C 81.4823,236.83 80.9823,227.163 80.5,217.5C 80.1872,213.958 80.5206,210.625 81.5,207.5 Z"/></g>
<g><path style="opacity:1" fill="#ff034e" d="M 118.5,202.5 C 119.485,206.634 119.818,210.968 119.5,215.5C 118.209,215.737 117.209,215.404 116.5,214.5C 118.423,210.971 119.089,206.971 118.5,202.5 Z"/></g>
<g><path style="opacity:1" fill="#fe0554" d="M 81.5,207.5 C 80.5206,210.625 80.1872,213.958 80.5,217.5C 79.1923,213.981 79.1923,210.315 80.5,206.5C 81.1067,206.624 81.44,206.957 81.5,207.5 Z"/></g>
<g><path style="opacity:1" fill="#ea0000" d="M 175.5,282.5 C 174.509,275.687 174.175,268.687 174.5,261.5C 174.334,255.158 174.5,248.825 175,242.5C 183.703,234.129 192.703,226.129 202,218.5C 202.066,231.856 201.399,245.189 200,258.5C 191.938,266.73 183.772,274.73 175.5,282.5 Z"/></g>
<g><path style="opacity:1" fill="#0000ee" d="M 168.5,267.5 C 167.833,272.833 167.167,278.167 166.5,283.5C 153.405,278.121 140.405,272.454 127.5,266.5C 126.501,253.183 126.167,239.85 126.5,226.5C 140.53,231.852 154.53,237.185 168.5,242.5C 168.5,250.833 168.5,259.167 168.5,267.5 Z"/></g>
<g><path style="opacity:1" fill="#6a0000" d="M 175.5,208.5 C 175.174,217.017 175.507,225.35 176.5,233.5C 176.44,234.043 176.107,234.376 175.5,234.5C 174.179,225.675 174.179,217.009 175.5,208.5 Z"/></g>
<g><path style="opacity:1" fill="#005c02" d="M 74.5,231.5 C 75.8095,235.351 75.8095,239.351 74.5,243.5C 73.8933,243.376 73.56,243.043 73.5,242.5C 74.4816,239.038 74.815,235.371 74.5,231.5 Z"/></g>
<g><path style="opacity:1" fill="#00024c" d="M 119.5,244.5 C 120.817,250.678 120.817,257.012 119.5,263.5C 118.893,263.376 118.56,263.043 118.5,262.5C 119.49,256.69 119.823,250.69 119.5,244.5 Z"/></g>
<g><path style="opacity:1" fill="#500000" d="M 174.5,261.5 C 174.175,268.687 174.509,275.687 175.5,282.5C 175.44,283.043 175.107,283.376 174.5,283.5C 173.181,276.01 173.181,268.677 174.5,261.5 Z"/></g>
<g><path style="opacity:1" fill="#000076" d="M 168.5,267.5 C 168.829,273.206 168.495,278.872 167.5,284.5C 166.893,284.376 166.56,284.043 166.5,283.5C 167.167,278.167 167.833,272.833 168.5,267.5 Z"/></g>
</svg>
