<?xml version="1.0" encoding="UTF-8"?>
<!DOCTYPE svg PUBLIC "-//W3C//DTD SVG 1.1//EN" "http://www.w3.org/Graphics/SVG/1.1/DTD/svg11.dtd">
<svg xmlns="http://www.w3.org/2000/svg" version="1.1" width="300px" height="300px" style="shape-rendering:geometricPrecision; text-rendering:geometricPrecision; image-rendering:optimizeQuality; fill-rule:evenodd; clip-rule:evenodd" xmlns:xlink="http://www.w3.org/1999/xlink">
<g><path style="opacity:0.971" fill="#080404" d="M 128.5,26.5 C 174.702,37.384 220.702,49.2173 266.5,62C 268.049,63.214 269.215,64.714 270,66.5C 267.505,113.93 263.839,161.263 259,208.5C 230.833,235.333 202.667,262.167 174.5,289C 170.739,289.738 167.072,289.405 163.5,288C 121.75,269.527 80.083,250.861 38.5,232C 36.9512,230.786 35.7845,229.286 35,227.5C 30.4479,179.543 26.7812,131.543 24,83.5C 24.7845,81.714 25.9512,80.214 27.5,79C 61.5424,61.9808 95.209,44.4808 128.5,26.5 Z"/></g>
<g><path style="opacity:1" fill="#f5f500" d="M 129.5,30.5 C 142.449,32.5384 155.115,35.7051 167.5,40C 159.5,44.6667 151.5,49.3333 143.5,54C 141.5,54.6667 139.5,54.6667 137.5,54C 126.305,51.1207 115.305,47.7873 104.5,44C 112.927,39.4569 121.26,34.9569 129.5,30.5 Z"/></g>
<g><path style="opacity:1" fill="#f4f400" d="M 174.5,41.5 C 187.585,44.6952 200.585,48.1952 213.5,52C 205.259,57.9093 196.759,63.4093 188,68.5C 174.856,64.589 161.689,60.7557 148.5,57C 157.395,52.059 166.062,46.8923 174.5,41.5 Z"/></g>
<g><path style="opacity:1" fill="#f7f700" d="M 96.5,47.5 C 109.977,49.2855 122.977,52.7855 135.5,58C 127.092,63.3995 118.425,68.3995 109.5,73C 107.167,73.6667 104.833,73.6667 102.5,73C 91.576,69.9148 80.9093,66.2481 70.5,62C 79.3903,57.3925 88.057,52.5591 96.5,47.5 Z"/></g>
<g><path style="opacity:1" fill="#f5f500" d="M 219.5,54.5 C 234.098,57.0663 248.431,60.7329 262.5,65.5C 254.461,71.3764 246.294,77.0431 238,82.5C 223.992,78.718 210.159,74.5513 196.5,70C 204.344,64.9703 212.011,59.8037 219.5,54.5 Z"/></g>
<g><path style="opacity:1" fill="#f7f700" d="M 142.5,59.5 C 156.098,63.3902 169.765,67.2235 183.5,71C 174.833,76.6667 166.167,82.3333 157.5,88C 154.485,88.2009 151.485,87.8676 148.5,87C 137.352,83.7286 126.352,80.0619 115.5,76C 124.897,70.9765 133.897,65.4765 142.5,59.5 Z"/></g>
<g><path style="opacity:1" fill="#f5f5f5" d="M 62.5,65.5 C 75.7392,68.6906 88.7392,72.6906 101.5,77.5C 97.843,79.9112 94.0097,81.9112 90,83.5C 81.6652,80.6227 73.1652,78.7893 64.5,78C 63.1667,79.6667 63.1667,81.3333 64.5,83C 70.2746,84.5208 75.9413,86.3542 81.5,88.5C 77.3389,92.0851 72.6722,94.2518 67.5,95C 56.5,91.3333 45.5,87.6667 34.5,84C 33.8333,83.3333 33.1667,82.6667 32.5,82C 42.7226,76.7258 52.7226,71.2258 62.5,65.5 Z"/></g>
<g><path style="opacity:1" fill="#e80000" d="M 265.5,70.5 C 266.139,71.0968 266.472,71.9302 266.5,73C 265.408,86.5004 264.241,100 263,113.5C 255.409,119.38 247.909,125.38 240.5,131.5C 240.167,130.5 239.833,129.5 239.5,128.5C 240.254,114.419 241.588,100.419 243.5,86.5C 250.901,81.1453 258.234,75.812 265.5,70.5 Z"/></g>
<g><path style="opacity:1" fill="#f7f700" d="M 190.5,73.5 C 205.298,77.2258 219.965,81.3925 234.5,86C 226.222,91.2781 218.222,96.9448 210.5,103C 208.635,104.301 206.635,104.635 204.5,104C 190.85,99.6682 177.183,95.3349 163.5,91C 172.675,85.3036 181.675,79.4703 190.5,73.5 Z"/></g>
<g><path style="opacity:1" fill="#f6f6f6" d="M 108.5,79.5 C 122.518,83.4738 136.518,87.6405 150.5,92C 146.5,94.6667 142.5,97.3333 138.5,100C 136.833,100.667 135.167,100.667 133.5,100C 121.946,95.0565 110.279,90.3898 98.5,86C 102.009,83.9703 105.342,81.8036 108.5,79.5 Z"/></g>
<g><path style="opacity:1" fill="#0000ed" d="M 28.5,88.5 C 41.3858,92.9066 54.3858,96.9066 67.5,100.5C 69.2207,115.799 69.5541,131.133 68.5,146.5C 56.2774,141.927 44.1108,137.26 32,132.5C 30.8324,117.822 29.6657,103.156 28.5,88.5 Z"/></g>
<g><path style="opacity:1" fill="#f6f6f6" d="M 89.5,90.5 C 102.902,94.5216 115.902,99.5216 128.5,105.5C 125.496,108.004 122.163,110.004 118.5,111.5C 104.791,107.097 91.1245,102.597 77.5,98C 81.407,95.2411 85.407,92.7411 89.5,90.5 Z"/></g>
<g><path style="opacity:1" fill="#e90000" d="M 235.5,91.5 C 236.794,93.0478 237.461,95.0478 237.5,97.5C 236.878,110.182 236.045,122.849 235,135.5C 226.667,142.167 218.333,148.833 210,155.5C 209.514,140.125 210.18,124.791 212,109.5C 220.018,103.636 227.852,97.6365 235.5,91.5 Z"/></g>
<g><path style="opacity:1" fill="#f9f9f9" d="M 157.5,94.5 C 172.297,98.7916 186.964,103.458 201.5,108.5C 193.381,114.733 185.048,120.733 176.5,126.5C 166.044,118.382 155.044,111.049 143.5,104.5C 148.196,101.157 152.863,97.8238 157.5,94.5 Z"/></g>
<g><path style="opacity:1" fill="#0000ed" d="M 74.5,103.5 C 88.8341,108.167 103.167,112.834 117.5,117.5C 117.5,132.833 117.5,148.167 117.5,163.5C 103.993,159.442 90.6599,154.775 77.5,149.5C 75.8707,134.21 74.8707,118.877 74.5,103.5 Z"/></g>
<g><path style="opacity:1" fill="#e8e8e8" d="M 135.5,108.5 C 145.803,113.317 155.47,119.15 164.5,126C 151.901,123.023 139.568,119.023 127.5,114C 130.407,112.391 133.073,110.558 135.5,108.5 Z"/></g>
<g><path style="opacity:1" fill="#f89d00" d="M 205.5,113.5 C 206.152,114.449 206.486,115.615 206.5,117C 205.487,131.482 204.82,145.982 204.5,160.5C 203.325,160.719 202.325,160.386 201.5,159.5C 196.773,148.775 190.107,139.441 181.5,131.5C 189.568,125.479 197.568,119.479 205.5,113.5 Z"/></g>
<g><path style="opacity:1" fill="#0000ed" d="M 124.5,120.5 C 139.5,125.167 154.5,129.833 169.5,134.5C 169.833,150.847 169.499,167.18 168.5,183.5C 154.5,178.167 140.5,172.833 126.5,167.5C 125.682,164.893 125.182,162.226 125,159.5C 124.5,146.504 124.333,133.504 124.5,120.5 Z"/></g>
<g><path style="opacity:1" fill="#e70000" d="M 260.5,121.5 C 261.693,121.97 262.36,122.97 262.5,124.5C 261.706,136.869 260.539,149.202 259,161.5C 251.982,168.019 244.815,174.353 237.5,180.5C 237.167,179.333 236.833,178.167 236.5,177C 237.862,164.538 238.695,152.038 239,139.5C 246.357,133.636 253.524,127.636 260.5,121.5 Z"/></g>
<g><path style="opacity:1" fill="#f89d00" d="M 177.5,181.5 C 176.509,175.021 176.176,168.354 176.5,161.5C 176.334,153.16 176.5,144.827 177,136.5C 185.499,144.66 191.999,154.16 196.5,165C 190.608,170.955 184.275,176.455 177.5,181.5 Z"/></g>
<g><path style="opacity:1" fill="#0000ec" d="M 32.5,140.5 C 45.2632,144.476 57.7632,149.143 70,154.5C 71.286,165.779 72.1193,177.113 72.5,188.5C 72.1667,191.167 71.8333,193.833 71.5,196.5C 59.5939,191.629 47.7605,186.629 36,181.5C 34.5758,167.85 33.4091,154.183 32.5,140.5 Z"/></g>
<g><path style="opacity:1" fill="#e90000" d="M 233.5,143.5 C 234.585,157.408 233.918,171.408 231.5,185.5C 223.518,192.315 215.684,199.315 208,206.5C 208.245,192.198 208.578,177.865 209,163.5C 217.646,157.348 225.813,150.681 233.5,143.5 Z"/></g>
<g><path style="opacity:1" fill="#0000ee" d="M 118.5,202.5 C 119.089,206.971 118.423,210.971 116.5,214.5C 104.169,209.918 92.0019,204.918 80,199.5C 78.6808,185.541 77.8475,171.541 77.5,157.5C 91.2623,161.809 104.762,166.809 118,172.5C 118.5,182.494 118.666,192.494 118.5,202.5 Z"/></g>
<g><path style="opacity:1" fill="#e70000" d="M 256.5,169.5 C 257.777,170.694 258.444,172.36 258.5,174.5C 257.914,185.211 256.914,195.878 255.5,206.5C 248.833,212.833 242.167,219.167 235.5,225.5C 234.454,213.164 234.621,200.831 236,188.5C 243.03,182.3 249.863,175.967 256.5,169.5 Z"/></g>
<g><path style="opacity:1" fill="#fb9e00" d="M 176.5,233.5 C 175.507,225.35 175.174,217.017 175.5,208.5C 175.334,202.491 175.501,196.491 176,190.5C 183.356,184.31 190.856,178.31 198.5,172.5C 200.705,178.595 201.705,184.928 201.5,191.5C 201.324,198.909 200.491,206.242 199,213.5C 191.629,220.375 184.129,227.041 176.5,233.5 Z"/></g>
<g><path style="opacity:1" fill="#0000eb" d="M 125.5,175.5 C 140.239,180.136 154.739,185.469 169,191.5C 169.915,206.223 169.415,220.89 167.5,235.5C 153.595,229.963 139.761,224.296 126,218.5C 125.5,204.171 125.333,189.837 125.5,175.5 Z"/></g>
<g><path style="opacity:1" fill="#7d4f00" d="M 176.5,161.5 C 176.176,168.354 176.509,175.021 177.5,181.5C 177.44,182.043 177.107,182.376 176.5,182.5C 175.181,175.344 175.181,168.344 176.5,161.5 Z"/></g>
<g><path style="opacity:1" fill="#0000ec" d="M 74.5,235.5 C 74.8016,238.059 74.4682,240.393 73.5,242.5C 62.156,237.827 50.8227,233.16 39.5,228.5C 37.9258,215.204 37.0925,201.871 37,188.5C 48.7605,193.629 60.5939,198.629 72.5,203.5C 74.0409,214.109 74.7075,224.776 74.5,235.5 Z"/></g>
<g><path style="opacity:1" fill="#e70000" d="M 229.5,193.5 C 230.82,196.428 231.486,199.761 231.5,203.5C 231.059,212.503 230.559,221.503 230,230.5C 221.808,237.936 213.808,245.603 206,253.5C 205.846,240.155 206.346,226.822 207.5,213.5C 215.178,207.152 222.512,200.485 229.5,193.5 Z"/></g>
<g><path style="opacity:1" fill="#0000ee" d="M 81.5,207.5 C 93.9234,212.307 106.257,217.307 118.5,222.5C 119.497,229.803 119.831,237.137 119.5,244.5C 119.823,250.69 119.49,256.69 118.5,262.5C 106.164,257.583 93.9972,252.249 82,246.5C 81.4823,236.83 80.9823,227.163 80.5,217.5C 80.1872,213.958 80.5206,210.625 81.5,207.5 Z"/></g>
<g><path style="opacity:1" fill="#ff034e" d="M 118.5,202.5 C 119.485,206.634 119.818,210.968 119.5,215.5C 118.209,215.737 117.209,215.404 116.5,214.5C 118.423,210.971 119.089,206.971 118.5,202.5 Z"/></g>
<g><path style="opacity:1" fill="#fe0554" d="M 81.5,207.5 C 80.5206,210.625 80.1872,213.958 80.5,217.5C 79.1923,213.981 79.1923,210.315 80.5,206.5C 81.1067,206.624 81.44,206.957 81.5,207.5 Z"/></g>
<g><path style="opacity:1" fill="#0000ee" d="M 168.5,267.5 C 167.833,272.833 167.167,278.167 166.5,283.5C 153.405,278.121 140.405,272.454 127.5,266.5C 126.501,253.183 126.167,239.85 126.5,226.5C 140.53,231.852 154.53,237.185 168.5,242.5C 168.5,250.833 168.5,259.167 168.5,267.5 Z"/></g>
<g><path style="opacity:1" fill="#f49a00" d="M 200.5,229.5 C 201.461,231.265 201.795,233.265 201.5,235.5C 201.666,243.174 201.5,250.841 201,258.5C 192.302,266.366 183.802,274.366 175.5,282.5C 174.507,274.35 174.174,266.017 174.5,257.5C 174.334,252.489 174.501,247.489 175,242.5C 181.667,236.5 188.333,230.5 195,224.5C 193.821,231.523 190.988,237.857 186.5,243.5C 185.252,242.96 184.085,242.293 183,241.5C 182.333,247.5 182.333,253.5 183,259.5C 188.09,256.706 192.923,253.54 197.5,250C 195.939,249.059 194.605,247.892 193.5,246.5C 196.122,240.926 198.456,235.259 200.5,229.5 Z"/></g>
<g><path style="opacity:1" fill="#653f01" d="M 201.5,235.5 C 201.795,233.265 201.461,231.265 200.5,229.5C 201.09,228.234 201.59,226.901 202,225.5C 202.808,229.027 202.641,232.36 201.5,235.5 Z"/></g>
<g><path style="opacity:1" fill="#714701" d="M 175.5,208.5 C 175.174,217.017 175.507,225.35 176.5,233.5C 176.44,234.043 176.107,234.376 175.5,234.5C 174.179,225.675 174.179,217.009 175.5,208.5 Z"/></g>
<g><path style="opacity:1" fill="#000080" d="M 74.5,235.5 C 75.8003,238.024 75.8003,240.691 74.5,243.5C 73.8933,243.376 73.56,243.043 73.5,242.5C 74.4682,240.393 74.8016,238.059 74.5,235.5 Z"/></g>
<g><path style="opacity:1" fill="#00024c" d="M 119.5,244.5 C 120.817,250.678 120.817,257.012 119.5,263.5C 118.893,263.376 118.56,263.043 118.5,262.5C 119.49,256.69 119.823,250.69 119.5,244.5 Z"/></g>
<g><path style="opacity:1" fill="#4b2f02" d="M 174.5,257.5 C 174.174,266.017 174.507,274.35 175.5,282.5C 175.44,283.043 175.107,283.376 174.5,283.5C 173.179,274.675 173.179,266.009 174.5,257.5 Z"/></g>
<g><path style="opacity:1" fill="#000076" d="M 168.5,267.5 C 168.829,273.206 168.495,278.872 167.5,284.5C 166.893,284.376 166.56,284.043 166.5,283.5C 167.167,278.167 167.833,272.833 168.5,267.5 Z"/></g>
</svg>
