<?xml version="1.0" encoding="UTF-8"?>
<!DOCTYPE svg PUBLIC "-//W3C//DTD SVG 1.1//EN" "http://www.w3.org/Graphics/SVG/1.1/DTD/svg11.dtd">
<svg xmlns="http://www.w3.org/2000/svg" version="1.1" width="689px" height="723px" style="shape-rendering:geometricPrecision; text-rendering:geometricPrecision; image-rendering:optimizeQuality; fill-rule:evenodd; clip-rule:evenodd" xmlns:xlink="http://www.w3.org/1999/xlink">
<g><path style="opacity:1" fill="#050504" d="M 329.5,23.5 C 335.853,22.9011 341.853,24.0678 347.5,27C 443.717,68.9419 540.05,110.609 636.5,152C 644.584,156.154 648.917,162.821 649.5,172C 638.761,280.797 628.261,389.63 618,498.5C 617.605,502.019 616.605,505.352 615,508.5C 609.483,513.681 603.65,518.514 597.5,523C 512.675,582.58 427.675,641.913 342.5,701C 337.167,703 331.833,703 326.5,701C 241.325,641.913 156.325,582.58 71.5,523C 65.3503,518.514 59.5169,513.681 54,508.5C 52.3953,505.352 51.3953,502.019 51,498.5C 40.7096,389.472 30.2096,280.472 19.5,171.5C 20.4836,162.697 24.8169,156.197 32.5,152C 131.642,109.24 230.642,66.4063 329.5,23.5 Z"/></g>
<g><path style="opacity:1" fill="#3f3f3f" d="M 332.5,32.5 C 335.647,32.7366 338.647,33.5699 341.5,35C 366.076,45.3559 390.41,56.1892 414.5,67.5C 387.954,80.3524 361.287,93.0191 334.5,105.5C 307.56,93.3629 280.893,80.6963 254.5,67.5C 280.328,55.4465 306.328,43.7798 332.5,32.5 Z"/></g>
<g><path style="opacity:1" fill="#3f3f3f" d="M 235.5,74.5 C 263.49,86.1153 291.157,98.6153 318.5,112C 289.531,125.817 260.531,139.651 231.5,153.5C 204.187,140.177 177.187,126.344 150.5,112C 179.059,99.7677 207.393,87.2677 235.5,74.5 Z"/></g>
<g><path style="opacity:1" fill="#3f3f3f" d="M 429.5,74.5 C 459.365,86.4297 489.032,98.9297 518.5,112C 491.61,126.778 464.277,140.445 436.5,153C 407.713,139.519 379.046,125.852 350.5,112C 376.924,99.4522 403.258,86.9522 429.5,74.5 Z"/></g>
<g><path style="opacity:1" fill="#3f3f3f" d="M 132.5,119.5 C 159.936,133.051 187.269,146.885 214.5,161C 183.167,175.667 151.833,190.333 120.5,205C 117.983,205.257 115.65,204.59 113.5,203C 88.6616,188.747 63.6616,174.747 38.5,161C 69.9419,147.248 101.275,133.415 132.5,119.5 Z"/></g>
<g><path style="opacity:1" fill="#3f3f3f" d="M 333.5,119.5 C 363.355,132.845 393.021,146.678 422.5,161C 393.353,176.074 364.02,190.907 334.5,205.5C 305.011,190.922 275.678,176.089 246.5,161C 275.56,147.135 304.56,133.302 333.5,119.5 Z"/></g>
<g><path style="opacity:1" fill="#3f3f3f" d="M 534.5,119.5 C 566.595,133.046 598.595,146.879 630.5,161C 605.338,174.747 580.338,188.747 555.5,203C 553.35,204.59 551.017,205.257 548.5,205C 517.167,190.333 485.833,175.667 454.5,161C 481.385,147.392 508.052,133.559 534.5,119.5 Z"/></g>
<g><path style="opacity:1" fill="#3f3f3f" d="M 229.5,168.5 C 258.995,183.414 288.328,198.58 317.5,214C 286.198,229.985 254.865,245.985 223.5,262C 221.711,262.52 220.044,262.187 218.5,261C 190.5,245.333 162.5,229.667 134.5,214C 166.227,198.802 197.894,183.635 229.5,168.5 Z"/></g>
<g><path style="opacity:1" fill="#3f3f3f" d="M 436.5,169.5 C 440.998,170.411 445.332,171.911 449.5,174C 477.535,187.34 505.535,200.674 533.5,214C 504.5,230.167 475.5,246.333 446.5,262.5C 414.344,246.589 382.344,230.422 350.5,214C 379.071,198.882 407.738,184.049 436.5,169.5 Z"/></g>
<g><path style="opacity:1" fill="#3f3f3f" d="M 30.5,174.5 C 57.1395,189.154 83.8062,203.821 110.5,218.5C 113.758,254.449 115.925,290.449 117,326.5C 91.9167,311.041 66.75,295.708 41.5,280.5C 37.0135,245.272 33.3469,209.938 30.5,174.5 Z"/></g>
<g><path style="opacity:1" fill="#3f3f3f" d="M 636.5,174.5 C 637.693,174.97 638.36,175.97 638.5,177.5C 634.836,211.477 631.336,245.477 628,279.5C 602.416,295.041 576.916,310.708 551.5,326.5C 551.167,324.833 550.833,323.167 550.5,321.5C 552.887,287.131 555.554,252.798 558.5,218.5C 584.562,203.806 610.562,189.139 636.5,174.5 Z"/></g>
<g><path style="opacity:1" fill="#3e403e" d="M 333.5,222.5 C 334.873,222.343 336.207,222.51 337.5,223C 368.833,239 400.167,255 431.5,271C 400.491,289.173 369.157,306.84 337.5,324C 335.5,324.667 333.5,324.667 331.5,324C 299.91,306.734 268.577,289.067 237.5,271C 254.91,261.628 272.577,252.795 290.5,244.5C 305.31,237.929 319.643,230.596 333.5,222.5 Z"/></g>
<g><path style="opacity:1" fill="#3f3f3f" d="M 125.5,227.5 C 154.72,243.695 183.887,260.028 213,276.5C 214.927,309.799 216.427,343.133 217.5,376.5C 217.167,379.833 216.833,383.167 216.5,386.5C 188.583,369.626 160.75,352.626 133,335.5C 130.558,299.49 128.058,263.49 125.5,227.5 Z"/></g>
<g><path style="opacity:1" fill="#3f3f3f" d="M 541.5,227.5 C 542.139,228.097 542.472,228.93 542.5,230C 539.844,265.152 537.344,300.318 535,335.5C 507.25,352.626 479.417,369.626 451.5,386.5C 451.167,383.167 450.833,379.833 450.5,376.5C 451.573,343.133 453.073,309.799 455,276.5C 483.977,260.266 512.81,243.933 541.5,227.5 Z"/></g>
<g><path style="opacity:1" fill="#254525" d="M 333.5,222.5 C 319.643,230.596 305.31,237.929 290.5,244.5C 304.357,236.404 318.69,229.071 333.5,222.5 Z"/></g>
<g><path style="opacity:1" fill="#403f3f" d="M 325.5,338.5 C 325.832,376.337 325.498,414.004 324.5,451.5C 294.273,433.952 264.273,415.952 234.5,397.5C 233.692,395.577 233.192,393.577 233,391.5C 231.476,356.171 230.476,320.838 230,285.5C 261.78,303.306 293.613,320.972 325.5,338.5 Z"/></g>
<g><path style="opacity:1" fill="#404040" d="M 437.5,285.5 C 438.777,286.694 439.444,288.36 439.5,290.5C 438.095,325.836 436.595,361.169 435,396.5C 404.583,415.292 374.083,433.959 343.5,452.5C 342.333,414.504 342.167,376.504 343,338.5C 374.643,320.932 406.143,303.266 437.5,285.5 Z"/></g>
<g><path style="opacity:1" fill="#3f403e" d="M 625.5,314.5 C 624.318,320.301 623.652,326.301 623.5,332.5C 622.178,353.538 620.345,374.538 618,395.5C 592.919,412.291 567.752,428.957 542.5,445.5C 543.65,411.875 545.983,378.208 549.5,344.5C 575,328.582 600.667,312.916 626.5,297.5C 627.249,303.192 626.916,308.859 625.5,314.5 Z"/></g>
<g><path style="opacity:1" fill="#03d600" d="M 42.5,298.5 C 68.3887,314.03 94.222,329.697 120,345.5C 121.769,377.698 123.935,409.865 126.5,442C 126.167,442.833 125.833,443.667 125.5,444.5C 100.833,428.5 76.1667,412.5 51.5,396.5C 48.0054,363.877 45.0054,331.21 42.5,298.5 Z"/></g>
<g><path style="opacity:1" fill="#304d1b" d="M 625.5,314.5 C 625.724,320.739 625.057,326.739 623.5,332.5C 623.652,326.301 624.318,320.301 625.5,314.5 Z"/></g>
<g><path style="opacity:1" fill="#582020" d="M 325.5,338.5 C 326.664,376.664 326.831,414.998 326,453.5C 325.283,452.956 324.783,452.289 324.5,451.5C 325.498,414.004 325.832,376.337 325.5,338.5 Z"/></g>
<g><path style="opacity:1" fill="#eb0000" d="M 221.5,489.5 C 221.822,495.358 221.489,501.025 220.5,506.5C 193.943,489.301 167.443,471.968 141,454.5C 138.833,424.664 136.667,394.831 134.5,365C 134.833,361.833 135.167,358.667 135.5,355.5C 163.167,372.167 190.833,388.833 218.5,405.5C 220.166,433.476 221.166,461.476 221.5,489.5 Z"/></g>
<g><path style="opacity:1" fill="#00d500" d="M 533.5,354.5 C 534.164,356.978 534.497,359.645 534.5,362.5C 532.609,393.205 530.276,423.871 527.5,454.5C 500.752,472.291 473.919,489.958 447,507.5C 447.239,473.487 448.239,439.487 450,405.5C 478.147,388.851 505.981,371.851 533.5,354.5 Z"/></g>
<g><path style="opacity:1" fill="#3f403e" d="M 614.5,412.5 C 615.693,412.97 616.36,413.97 616.5,415.5C 613.601,444.824 610.768,474.158 608,503.5C 583.746,520.377 559.579,537.377 535.5,554.5C 536.157,523.478 537.99,492.478 541,461.5C 565.823,445.515 590.323,429.182 614.5,412.5 Z"/></g>
<g><path style="opacity:1" fill="#413e3e" d="M 52.5,412.5 C 77.6424,428.574 102.642,444.907 127.5,461.5C 130.53,492.787 132.697,524.121 134,555.5C 109.667,538.167 85.3333,520.833 61,503.5C 57.7697,473.198 54.9364,442.864 52.5,412.5 Z"/></g>
<g><path style="opacity:1" fill="#3f3f3f" d="M 234.5,416.5 C 265.027,434.685 295.527,453.018 326,471.5C 326.833,506.171 326.667,540.838 325.5,575.5C 296.247,556.291 267.081,536.957 238,517.5C 236.191,483.855 235.025,450.188 234.5,416.5 Z"/></g>
<g><path style="opacity:1" fill="#3f3f3f" d="M 433.5,415.5 C 434.165,418.817 434.499,422.317 434.5,426C 433.321,456.499 432.155,486.999 431,517.5C 401.667,536.833 372.333,556.167 343,575.5C 342.333,540.833 342.333,506.167 343,471.5C 373.314,452.933 403.481,434.267 433.5,415.5 Z"/></g>
<g><path style="opacity:1" fill="#eb0000" d="M 141.5,471.5 C 168.642,488.907 195.642,506.574 222.5,524.5C 224.927,556.118 226.094,587.785 226,619.5C 200.175,600.921 174.175,582.587 148,564.5C 145.855,533.495 143.689,502.495 141.5,471.5 Z"/></g>
<g><path style="opacity:1" fill="#00d500" d="M 525.5,472.5 C 526.461,474.265 526.795,476.265 526.5,478.5C 524.832,507.189 522.832,535.856 520.5,564.5C 494.833,582.5 469.167,600.5 443.5,618.5C 442.716,587.125 443.549,555.792 446,524.5C 472.443,507.032 498.943,489.699 525.5,472.5 Z"/></g>
<g><path style="opacity:1" fill="#006000" d="M 525.5,472.5 C 525.56,471.957 525.893,471.624 526.5,471.5C 527.797,473.973 527.797,476.307 526.5,478.5C 526.795,476.265 526.461,474.265 525.5,472.5 Z"/></g>
<g><path style="opacity:1" fill="#790001" d="M 221.5,489.5 C 222.817,495.346 222.817,501.346 221.5,507.5C 220.893,507.376 220.56,507.043 220.5,506.5C 221.489,501.025 221.822,495.358 221.5,489.5 Z"/></g>
<g><path style="opacity:1" fill="#ec0100" d="M 428.5,535.5 C 429.824,539.107 430.491,543.107 430.5,547.5C 429.555,574.843 428.388,602.176 427,629.5C 399.5,649 372,668.5 344.5,688C 343.552,688.483 342.552,688.649 341.5,688.5C 341.167,656.493 341.5,624.493 342.5,592.5C 371.246,573.471 399.913,554.471 428.5,535.5 Z"/></g>
<g><path style="opacity:1" fill="#fdfcfc" d="M 240.5,536.5 C 269.237,555.192 297.903,573.859 326.5,592.5C 326.667,624.502 326.5,656.502 326,688.5C 325.329,687.748 324.496,687.414 323.5,687.5C 295.797,668.89 268.297,649.89 241,630.5C 239.691,604.513 238.858,578.513 238.5,552.5C 237.887,546.729 238.554,541.396 240.5,536.5 Z"/></g>
<g><path style="opacity:1" fill="#b28c8c" d="M 240.5,536.5 C 238.554,541.396 237.887,546.729 238.5,552.5C 237.511,547.025 237.178,541.358 237.5,535.5C 238.791,535.263 239.791,535.596 240.5,536.5 Z"/></g>
<g><path style="opacity:1" fill="#b48a8a" d="M 326.5,592.5 C 327.498,624.662 327.832,656.996 327.5,689.5C 325.62,689.771 324.287,689.104 323.5,687.5C 324.496,687.414 325.329,687.748 326,688.5C 326.5,656.502 326.667,624.502 326.5,592.5 Z"/></g>
</svg>
