<?xml version="1.0" encoding="UTF-8"?>
<!DOCTYPE svg PUBLIC "-//W3C//DTD SVG 1.1//EN" "http://www.w3.org/Graphics/SVG/1.1/DTD/svg11.dtd">
<svg xmlns="http://www.w3.org/2000/svg" version="1.1" width="689px" height="723px" style="shape-rendering:geometricPrecision; text-rendering:geometricPrecision; image-rendering:optimizeQuality; fill-rule:evenodd; clip-rule:evenodd" xmlns:xlink="http://www.w3.org/1999/xlink">
<g><path style="opacity:1" fill="#050404" d="M 329.5,23.5 C 335.853,22.9011 341.853,24.0678 347.5,27C 443.717,68.9419 540.05,110.609 636.5,152C 644.584,156.154 648.917,162.821 649.5,172C 638.761,280.797 628.261,389.63 618,498.5C 617.605,502.019 616.605,505.352 615,508.5C 609.483,513.681 603.65,518.514 597.5,523C 512.675,582.58 427.675,641.913 342.5,701C 337.167,703 331.833,703 326.5,701C 241.325,641.913 156.325,582.58 71.5,523C 65.3503,518.514 59.5169,513.681 54,508.5C 52.3953,505.352 51.3953,502.019 51,498.5C 40.7096,389.472 30.2096,280.472 19.5,171.5C 20.4836,162.697 24.8169,156.197 32.5,152C 131.642,109.24 230.642,66.4063 329.5,23.5 Z"/></g>
<g><path style="opacity:1" fill="#3f3f3f" d="M 332.5,32.5 C 335.647,32.7366 338.647,33.5699 341.5,35C 366.076,45.3559 390.41,56.1892 414.5,67.5C 387.954,80.3524 361.287,93.0191 334.5,105.5C 307.56,93.3629 280.893,80.6963 254.5,67.5C 280.328,55.4465 306.328,43.7798 332.5,32.5 Z"/></g>
<g><path style="opacity:1" fill="#3f3f3f" d="M 235.5,74.5 C 263.49,86.1153 291.157,98.6153 318.5,112C 289.531,125.817 260.531,139.651 231.5,153.5C 204.187,140.177 177.187,126.344 150.5,112C 179.059,99.7677 207.393,87.2677 235.5,74.5 Z"/></g>
<g><path style="opacity:1" fill="#3f3f3f" d="M 429.5,74.5 C 459.365,86.4297 489.032,98.9297 518.5,112C 491.61,126.778 464.277,140.445 436.5,153C 407.713,139.519 379.046,125.852 350.5,112C 376.924,99.4522 403.258,86.9522 429.5,74.5 Z"/></g>
<g><path style="opacity:1" fill="#3f3f3f" d="M 132.5,119.5 C 159.936,133.051 187.269,146.885 214.5,161C 183.167,175.667 151.833,190.333 120.5,205C 117.983,205.257 115.65,204.59 113.5,203C 88.6616,188.747 63.6616,174.747 38.5,161C 69.9419,147.248 101.275,133.415 132.5,119.5 Z"/></g>
<g><path style="opacity:1" fill="#3f3f3f" d="M 333.5,119.5 C 363.355,132.845 393.021,146.678 422.5,161C 393.353,176.074 364.02,190.907 334.5,205.5C 305.011,190.922 275.678,176.089 246.5,161C 275.56,147.135 304.56,133.302 333.5,119.5 Z"/></g>
<g><path style="opacity:1" fill="#3f3f3f" d="M 534.5,119.5 C 566.595,133.046 598.595,146.879 630.5,161C 605.338,174.747 580.338,188.747 555.5,203C 553.35,204.59 551.017,205.257 548.5,205C 517.167,190.333 485.833,175.667 454.5,161C 481.385,147.392 508.052,133.559 534.5,119.5 Z"/></g>
<g><path style="opacity:1" fill="#3f3f3f" d="M 229.5,168.5 C 258.995,183.414 288.328,198.58 317.5,214C 286.198,229.985 254.865,245.985 223.5,262C 221.711,262.52 220.044,262.187 218.5,261C 190.5,245.333 162.5,229.667 134.5,214C 166.227,198.802 197.894,183.635 229.5,168.5 Z"/></g>
<g><path style="opacity:1" fill="#3f3f3f" d="M 436.5,169.5 C 440.998,170.411 445.332,171.911 449.5,174C 477.535,187.34 505.535,200.674 533.5,214C 504.5,230.167 475.5,246.333 446.5,262.5C 414.344,246.589 382.344,230.422 350.5,214C 379.071,198.882 407.738,184.049 436.5,169.5 Z"/></g>
<g><path style="opacity:1" fill="#3f3f3f" d="M 30.5,174.5 C 57.1395,189.154 83.8062,203.821 110.5,218.5C 113.758,254.449 115.925,290.449 117,326.5C 91.9167,311.041 66.75,295.708 41.5,280.5C 37.0135,245.272 33.3469,209.938 30.5,174.5 Z"/></g>
<g><path style="opacity:1" fill="#3f3f3f" d="M 636.5,174.5 C 637.693,174.97 638.36,175.97 638.5,177.5C 634.836,211.477 631.336,245.477 628,279.5C 602.416,295.041 576.916,310.708 551.5,326.5C 551.167,324.833 550.833,323.167 550.5,321.5C 552.887,287.131 555.554,252.798 558.5,218.5C 584.562,203.806 610.562,189.139 636.5,174.5 Z"/></g>
<g><path style="opacity:1" fill="#3e403e" d="M 333.5,222.5 C 334.873,222.343 336.207,222.51 337.5,223C 368.833,239 400.167,255 431.5,271C 400.491,289.173 369.157,306.84 337.5,324C 335.5,324.667 333.5,324.667 331.5,324C 299.91,306.734 268.577,289.067 237.5,271C 254.91,261.628 272.577,252.795 290.5,244.5C 305.31,237.929 319.643,230.596 333.5,222.5 Z"/></g>
<g><path style="opacity:1" fill="#3f3f3f" d="M 125.5,227.5 C 154.72,243.695 183.887,260.028 213,276.5C 214.927,309.799 216.427,343.133 217.5,376.5C 217.167,379.833 216.833,383.167 216.5,386.5C 188.583,369.626 160.75,352.626 133,335.5C 130.558,299.49 128.058,263.49 125.5,227.5 Z"/></g>
<g><path style="opacity:1" fill="#3f3f3f" d="M 541.5,227.5 C 542.139,228.097 542.472,228.93 542.5,230C 539.844,265.152 537.344,300.318 535,335.5C 507.25,352.626 479.417,369.626 451.5,386.5C 451.167,383.167 450.833,379.833 450.5,376.5C 451.573,343.133 453.073,309.799 455,276.5C 483.977,260.266 512.81,243.933 541.5,227.5 Z"/></g>
<g><path style="opacity:1" fill="#254525" d="M 333.5,222.5 C 319.643,230.596 305.31,237.929 290.5,244.5C 304.357,236.404 318.69,229.071 333.5,222.5 Z"/></g>
<g><path style="opacity:1" fill="#403f3f" d="M 325.5,338.5 C 325.832,376.337 325.498,414.004 324.5,451.5C 294.273,433.952 264.273,415.952 234.5,397.5C 233.692,395.577 233.192,393.577 233,391.5C 231.476,356.171 230.476,320.838 230,285.5C 261.78,303.306 293.613,320.972 325.5,338.5 Z"/></g>
<g><path style="opacity:1" fill="#404040" d="M 437.5,285.5 C 438.777,286.694 439.444,288.36 439.5,290.5C 438.095,325.836 436.595,361.169 435,396.5C 404.583,415.292 374.083,433.959 343.5,452.5C 342.333,414.504 342.167,376.504 343,338.5C 374.643,320.932 406.143,303.266 437.5,285.5 Z"/></g>
<g><path style="opacity:1" fill="#751304" d="M 627.5,299.5 C 625.624,296.825 624.124,297.158 623,300.5C 622.601,300.272 622.435,299.938 622.5,299.5C 623.048,296.916 624.715,295.916 627.5,296.5C 627.5,297.5 627.5,298.5 627.5,299.5 Z"/></g>
<g><path style="opacity:1" fill="#ea0300" d="M 627.5,299.5 C 627.716,302.432 627.049,305.098 625.5,307.5C 625.543,308.416 625.876,309.083 626.5,309.5C 626.552,311.903 626.219,314.236 625.5,316.5C 624.903,316.735 624.57,317.235 624.5,318C 626.177,320.547 626.844,323.38 626.5,326.5C 625.5,326.5 624.5,326.5 623.5,326.5C 623.232,328.099 623.566,329.432 624.5,330.5C 624.552,332.903 624.219,335.236 623.5,337.5C 622.903,337.735 622.57,338.235 622.5,339C 625.363,342.839 625.03,346.339 621.5,349.5C 621.543,350.416 621.876,351.083 622.5,351.5C 622.552,353.903 622.219,356.236 621.5,358.5C 620.903,358.735 620.57,359.235 620.5,360C 623.363,363.839 623.03,367.339 619.5,370.5C 619.543,371.416 619.876,372.083 620.5,372.5C 620.552,374.903 620.219,377.236 619.5,379.5C 618.903,379.735 618.57,380.235 618.5,381C 621.363,384.839 621.03,388.339 617.5,391.5C 617.543,392.416 617.876,393.083 618.5,393.5C 618.69,395.959 617.69,397.626 615.5,398.5C 592.832,414.722 569.499,430.056 545.5,444.5C 544.292,445.234 542.959,445.567 541.5,445.5C 541.575,442.794 541.908,440.127 542.5,437.5C 543.833,435.5 543.833,433.5 542.5,431.5C 542.401,428.763 542.735,426.096 543.5,423.5C 543.5,423.167 543.5,422.833 543.5,422.5C 543.666,417.962 543.999,413.296 544.5,408.5C 545.641,405.495 545.641,402.329 544.5,399C 545.461,396.41 546.128,393.743 546.5,391C 546.486,389.615 546.152,388.449 545.5,387.5C 545.508,384.455 545.841,381.455 546.5,378.5C 547.833,376.5 547.833,374.5 546.5,372.5C 546.508,369.455 546.841,366.455 547.5,363.5C 548.833,361.5 548.833,359.5 547.5,357.5C 547.508,354.455 547.841,351.455 548.5,348.5C 549.302,347.048 549.802,345.382 550,343.5C 550.995,342.934 551.828,342.267 552.5,341.5C 554.955,339.1 557.955,337.433 561.5,336.5C 562.789,334.752 564.289,334.419 566,335.5C 566.941,333.939 568.108,332.605 569.5,331.5C 570.086,331.709 570.586,332.043 571,332.5C 572.059,330.341 573.559,328.674 575.5,327.5C 578.889,325.281 582.222,322.781 585.5,320C 586.793,319.51 588.127,319.343 589.5,319.5C 590.789,317.752 592.289,317.419 594,318.5C 595.059,316.341 596.559,314.674 598.5,313.5C 601.889,311.281 605.222,308.781 608.5,306C 609.793,305.51 611.127,305.343 612.5,305.5C 613.789,303.752 615.289,303.419 617,304.5C 618.059,302.341 619.559,300.674 621.5,299.5C 621.833,299.5 622.167,299.5 622.5,299.5C 622.435,299.938 622.601,300.272 623,300.5C 624.124,297.158 625.624,296.825 627.5,299.5 Z"/></g>
<g><path style="opacity:1" fill="#3f403e" d="M 41.5,298.5 C 42.8734,298.343 44.2068,298.51 45.5,299C 70.1484,314.569 94.9818,329.736 120,344.5C 122.931,378.129 124.931,411.796 126,445.5C 101.081,429.291 76.2477,412.958 51.5,396.5C 47.6267,363.894 44.2934,331.228 41.5,298.5 Z"/></g>
<g><path style="opacity:1" fill="#780703" d="M 621.5,299.5 C 619.559,300.674 618.059,302.341 617,304.5C 615.289,303.419 613.789,303.752 612.5,305.5C 612.414,304.504 612.748,303.671 613.5,303C 616.267,301.839 618.933,300.673 621.5,299.5 Z"/></g>
<g><path style="opacity:1" fill="#701c06" d="M 627.5,299.5 C 628.147,300.274 628.48,301.274 628.5,302.5C 627.818,304.841 627.151,307.174 626.5,309.5C 625.876,309.083 625.543,308.416 625.5,307.5C 627.049,305.098 627.716,302.432 627.5,299.5 Z"/></g>
<g><path style="opacity:1" fill="#6d0000" d="M 626.5,309.5 C 627.147,310.274 627.48,311.274 627.5,312.5C 627.66,314.355 626.993,315.688 625.5,316.5C 626.219,314.236 626.552,311.903 626.5,309.5 Z"/></g>
<g><path style="opacity:1" fill="#780703" d="M 598.5,313.5 C 596.559,314.674 595.059,316.341 594,318.5C 592.289,317.419 590.789,317.752 589.5,319.5C 589.414,318.504 589.748,317.671 590.5,317C 593.267,315.839 595.933,314.673 598.5,313.5 Z"/></g>
<g><path style="opacity:1" fill="#7a0803" d="M 575.5,327.5 C 573.559,328.674 572.059,330.341 571,332.5C 570.586,332.043 570.086,331.709 569.5,331.5C 568.108,332.605 566.941,333.939 566,335.5C 564.289,334.419 562.789,334.752 561.5,336.5C 561.414,335.504 561.748,334.671 562.5,334C 566.796,331.684 571.129,329.517 575.5,327.5 Z"/></g>
<g><path style="opacity:1" fill="#6d0000" d="M 624.5,330.5 C 625.147,331.274 625.48,332.274 625.5,333.5C 625.66,335.355 624.993,336.688 623.5,337.5C 624.219,335.236 624.552,332.903 624.5,330.5 Z"/></g>
<g><path style="opacity:1" fill="#582020" d="M 325.5,338.5 C 326.664,376.664 326.831,414.998 326,453.5C 325.283,452.956 324.783,452.289 324.5,451.5C 325.498,414.004 325.832,376.337 325.5,338.5 Z"/></g>
<g><path style="opacity:1" fill="#731c07" d="M 552.5,341.5 C 551.828,342.267 550.995,342.934 550,343.5C 549.802,345.382 549.302,347.048 548.5,348.5C 548.338,346.473 548.505,344.473 549,342.5C 550.011,341.663 551.178,341.33 552.5,341.5 Z"/></g>
<g><path style="opacity:1" fill="#6d0000" d="M 548.5,348.5 C 547.841,351.455 547.508,354.455 547.5,357.5C 546.848,356.551 546.514,355.385 546.5,354C 546.393,351.779 547.06,349.946 548.5,348.5 Z"/></g>
<g><path style="opacity:1" fill="#6d0000" d="M 622.5,351.5 C 623.147,352.274 623.48,353.274 623.5,354.5C 623.66,356.355 622.993,357.688 621.5,358.5C 622.219,356.236 622.552,353.903 622.5,351.5 Z"/></g>
<g><path style="opacity:1" fill="#eb0000" d="M 221.5,489.5 C 221.822,495.358 221.489,501.025 220.5,506.5C 193.943,489.301 167.443,471.968 141,454.5C 138.833,424.664 136.667,394.831 134.5,365C 134.833,361.833 135.167,358.667 135.5,355.5C 163.167,372.167 190.833,388.833 218.5,405.5C 220.166,433.476 221.166,461.476 221.5,489.5 Z"/></g>
<g><path style="opacity:1" fill="#00d500" d="M 533.5,354.5 C 534.164,356.978 534.497,359.645 534.5,362.5C 532.609,393.205 530.276,423.871 527.5,454.5C 500.752,472.291 473.919,489.958 447,507.5C 447.239,473.487 448.239,439.487 450,405.5C 478.147,388.851 505.981,371.851 533.5,354.5 Z"/></g>
<g><path style="opacity:1" fill="#6d0000" d="M 547.5,363.5 C 546.841,366.455 546.508,369.455 546.5,372.5C 545.848,371.551 545.514,370.385 545.5,369C 545.393,366.779 546.06,364.946 547.5,363.5 Z"/></g>
<g><path style="opacity:1" fill="#6d0000" d="M 620.5,372.5 C 621.147,373.274 621.48,374.274 621.5,375.5C 621.66,377.355 620.993,378.688 619.5,379.5C 620.219,377.236 620.552,374.903 620.5,372.5 Z"/></g>
<g><path style="opacity:1" fill="#6d0000" d="M 546.5,378.5 C 545.841,381.455 545.508,384.455 545.5,387.5C 544.848,386.551 544.514,385.385 544.5,384C 544.393,381.779 545.06,379.946 546.5,378.5 Z"/></g>
<g><path style="opacity:1" fill="#77290a" d="M 545.5,387.5 C 546.152,388.449 546.486,389.615 546.5,391C 546.128,393.743 545.461,396.41 544.5,399C 545.641,402.329 545.641,405.495 544.5,408.5C 544.441,405.31 544.107,402.143 543.5,399C 544.866,395.306 545.532,391.472 545.5,387.5 Z"/></g>
<g><path style="opacity:1" fill="#6d0000" d="M 618.5,393.5 C 620.273,396.676 619.273,398.343 615.5,398.5C 617.69,397.626 618.69,395.959 618.5,393.5 Z"/></g>
<g><path style="opacity:1" fill="#731c06" d="M 544.5,408.5 C 543.999,413.296 543.666,417.962 543.5,422.5C 542.751,418.181 542.585,413.848 543,409.5C 543.383,408.944 543.883,408.611 544.5,408.5 Z"/></g>
<g><path style="opacity:1" fill="#3f403e" d="M 614.5,412.5 C 615.693,412.97 616.36,413.97 616.5,415.5C 613.601,444.824 610.768,474.158 608,503.5C 583.746,520.377 559.579,537.377 535.5,554.5C 536.157,523.478 537.99,492.478 541,461.5C 565.823,445.515 590.323,429.182 614.5,412.5 Z"/></g>
<g><path style="opacity:1" fill="#413e3e" d="M 52.5,412.5 C 77.6424,428.574 102.642,444.907 127.5,461.5C 130.53,492.787 132.697,524.121 134,555.5C 109.667,538.167 85.3333,520.833 61,503.5C 57.7697,473.198 54.9364,442.864 52.5,412.5 Z"/></g>
<g><path style="opacity:1" fill="#3f3f3f" d="M 234.5,416.5 C 265.027,434.685 295.527,453.018 326,471.5C 326.833,506.171 326.667,540.838 325.5,575.5C 296.247,556.291 267.081,536.957 238,517.5C 236.191,483.855 235.025,450.188 234.5,416.5 Z"/></g>
<g><path style="opacity:1" fill="#3f3f3f" d="M 433.5,415.5 C 434.165,418.817 434.499,422.317 434.5,426C 433.321,456.499 432.155,486.999 431,517.5C 401.667,536.833 372.333,556.167 343,575.5C 342.333,540.833 342.333,506.167 343,471.5C 373.314,452.933 403.481,434.267 433.5,415.5 Z"/></g>
<g><path style="opacity:1" fill="#6d0000" d="M 543.5,423.5 C 542.735,426.096 542.401,428.763 542.5,431.5C 541.848,430.551 541.514,429.385 541.5,428C 541.307,425.992 541.974,424.492 543.5,423.5 Z"/></g>
<g><path style="opacity:1" fill="#6d0000" d="M 542.5,437.5 C 541.908,440.127 541.575,442.794 541.5,445.5C 542.959,445.567 544.292,445.234 545.5,444.5C 544.448,446.256 542.781,446.923 540.5,446.5C 540.068,443.123 540.735,440.123 542.5,437.5 Z"/></g>
<g><path style="opacity:1" fill="#eb0000" d="M 141.5,471.5 C 168.642,488.907 195.642,506.574 222.5,524.5C 224.927,556.118 226.094,587.785 226,619.5C 200.175,600.921 174.175,582.587 148,564.5C 145.855,533.495 143.689,502.495 141.5,471.5 Z"/></g>
<g><path style="opacity:1" fill="#00d500" d="M 525.5,472.5 C 526.461,474.265 526.795,476.265 526.5,478.5C 524.832,507.189 522.832,535.856 520.5,564.5C 494.833,582.5 469.167,600.5 443.5,618.5C 442.716,587.125 443.549,555.792 446,524.5C 472.443,507.032 498.943,489.699 525.5,472.5 Z"/></g>
<g><path style="opacity:1" fill="#006000" d="M 525.5,472.5 C 525.56,471.957 525.893,471.624 526.5,471.5C 527.797,473.973 527.797,476.307 526.5,478.5C 526.795,476.265 526.461,474.265 525.5,472.5 Z"/></g>
<g><path style="opacity:1" fill="#790001" d="M 221.5,489.5 C 222.817,495.346 222.817,501.346 221.5,507.5C 220.893,507.376 220.56,507.043 220.5,506.5C 221.489,501.025 221.822,495.358 221.5,489.5 Z"/></g>
<g><path style="opacity:1" fill="#fbfcfb" d="M 427.5,535.5 C 428.833,535.5 430.167,535.5 431.5,535.5C 430.356,566.869 429.023,598.203 427.5,629.5C 402.972,647.194 378.306,664.694 353.5,682C 349.563,684.465 345.563,686.632 341.5,688.5C 341.333,656.498 341.5,624.498 342,592.5C 370.823,573.849 399.323,554.849 427.5,535.5 Z"/></g>
<g><path style="opacity:1" fill="#03d500" d="M 326.5,592.5 C 326.667,624.502 326.5,656.502 326,688.5C 325.329,687.748 324.496,687.414 323.5,687.5C 296.475,669.323 269.808,650.656 243.5,631.5C 242.131,629.268 241.131,626.934 240.5,624.5C 239.678,597.662 238.678,570.829 237.5,544C 237.833,541.167 238.167,538.333 238.5,535.5C 267.871,554.514 297.205,573.514 326.5,592.5 Z"/></g>
<g><path style="opacity:1" fill="#2d7502" d="M 326.5,592.5 C 327.498,624.662 327.832,656.996 327.5,689.5C 325.62,689.771 324.287,689.104 323.5,687.5C 324.496,687.414 325.329,687.748 326,688.5C 326.5,656.502 326.667,624.502 326.5,592.5 Z"/></g>
<g><path style="opacity:1" fill="#2b8202" d="M 240.5,624.5 C 241.131,626.934 242.131,629.268 243.5,631.5C 242.504,631.586 241.671,631.252 241,630.5C 240.505,628.527 240.338,626.527 240.5,624.5 Z"/></g>
</svg>
