<?xml version="1.0" encoding="UTF-8"?>
<!DOCTYPE svg PUBLIC "-//W3C//DTD SVG 1.1//EN" "http://www.w3.org/Graphics/SVG/1.1/DTD/svg11.dtd">
<svg xmlns="http://www.w3.org/2000/svg" version="1.1" width="150px" height="150px" style="shape-rendering:geometricPrecision; text-rendering:geometricPrecision; image-rendering:optimizeQuality; fill-rule:evenodd; clip-rule:evenodd" xmlns:xlink="http://www.w3.org/1999/xlink">
<g><path style="opacity:0.946" fill="#0f0d01" d="M 31.5,13.5 C 60.1686,13.3334 88.8353,13.5 117.5,14C 119.051,18.3694 120.218,22.8694 121,27.5C 125.667,28.8333 130.333,30.1667 135,31.5C 135.667,60.1667 135.667,88.8333 135,117.5C 130.631,119.051 126.131,120.218 121.5,121C 120.167,125.667 118.833,130.333 117.5,135C 88.8333,135.667 60.1667,135.667 31.5,135C 29.949,130.631 28.7824,126.131 28,121.5C 23.3333,120.167 18.6667,118.833 14,117.5C 13.3333,88.8333 13.3333,60.1667 14,31.5C 18.6267,30.0101 23.2934,28.6768 28,27.5C 28.9819,22.7478 30.1486,18.0812 31.5,13.5 Z"/></g>
<g><path style="opacity:1" fill="#00d200" d="M 32.5,15.5 C 41.1667,15.5 49.8333,15.5 58.5,15.5C 58.4955,19.5341 58.1621,23.5341 57.5,27.5C 48.5,27.5 39.5,27.5 30.5,27.5C 30.8478,23.4432 31.5145,19.4432 32.5,15.5 Z"/></g>
<g><path style="opacity:1" fill="#00d600" d="M 61.5,15.5 C 70.1667,15.5 78.8333,15.5 87.5,15.5C 87.5,19.5 87.5,23.5 87.5,27.5C 78.8333,27.5 70.1667,27.5 61.5,27.5C 61.5,23.5 61.5,19.5 61.5,15.5 Z"/></g>
<g><path style="opacity:1" fill="#00d500" d="M 91.5,15.5 C 99.8599,15.1688 108.193,15.5021 116.5,16.5C 117.681,20.0716 118.348,23.7383 118.5,27.5C 109.5,27.5 100.5,27.5 91.5,27.5C 91.5,23.5 91.5,19.5 91.5,15.5 Z"/></g>
<g><path style="opacity:1" fill="#fb9f00" d="M 22.5,30.5 C 24.1667,30.5 25.8333,30.5 27.5,30.5C 27.5,39.5 27.5,48.5 27.5,57.5C 23.5,57.5 19.5,57.5 15.5,57.5C 15.1688,49.1401 15.5021,40.8068 16.5,32.5C 18.6568,31.9495 20.6568,31.2829 22.5,30.5 Z"/></g>
<g><path style="opacity:1" fill="#fcfc00" d="M 30.5,30.5 C 39.1667,30.5 47.8333,30.5 56.5,30.5C 56.5,39.1667 56.5,47.8333 56.5,56.5C 47.8333,56.5 39.1667,56.5 30.5,56.5C 30.5,47.8333 30.5,39.1667 30.5,30.5 Z"/></g>
<g><path style="opacity:1" fill="#fdfd00" d="M 61.5,30.5 C 70.1667,30.5 78.8333,30.5 87.5,30.5C 87.5,39.1667 87.5,47.8333 87.5,56.5C 78.8333,56.5 70.1667,56.5 61.5,56.5C 61.5,47.8333 61.5,39.1667 61.5,30.5 Z"/></g>
<g><path style="opacity:1" fill="#fdfd00" d="M 92.5,30.5 C 101.167,30.5 109.833,30.5 118.5,30.5C 118.5,39.1667 118.5,47.8333 118.5,56.5C 109.833,56.5 101.167,56.5 92.5,56.5C 92.5,47.8333 92.5,39.1667 92.5,30.5 Z"/></g>
<g><path style="opacity:1" fill="#e70000" d="M 121.5,30.5 C 125.524,31.0381 129.524,31.7048 133.5,32.5C 133.5,41.1667 133.5,49.8333 133.5,58.5C 129.76,58.7592 126.094,58.4259 122.5,57.5C 121.502,48.5246 121.168,39.5246 121.5,30.5 Z"/></g>
<g><path style="opacity:1" fill="#ec0000" d="M 15.5,61.5 C 19.5,61.5 23.5,61.5 27.5,61.5C 27.5,70.1667 27.5,78.8333 27.5,87.5C 23.5,87.5 19.5,87.5 15.5,87.5C 15.5,78.8333 15.5,70.1667 15.5,61.5 Z"/></g>
<g><path style="opacity:1" fill="#fafa00" d="M 30.5,61.5 C 39.1667,61.5 47.8333,61.5 56.5,61.5C 56.5,65.1667 56.5,68.8333 56.5,72.5C 53.8333,72.5 51.1667,72.5 48.5,72.5C 48.5,73.5 48.5,74.5 48.5,75.5C 46.6693,74.9478 45.0026,74.9478 43.5,75.5C 44.154,77.1151 44.654,78.7818 45,80.5C 48.3801,81.8712 51.2134,84.0379 53.5,87C 45.8406,87.4997 38.1739,87.6664 30.5,87.5C 30.5,78.8333 30.5,70.1667 30.5,61.5 Z"/></g>
<g><path style="opacity:1" fill="#fdfe00" d="M 61.5,61.5 C 70.1667,61.5 78.8333,61.5 87.5,61.5C 87.5,65.1667 87.5,68.8333 87.5,72.5C 78.8333,72.5 70.1667,72.5 61.5,72.5C 61.5,68.8333 61.5,65.1667 61.5,61.5 Z"/></g>
<g><path style="opacity:1" fill="#fcfc00" d="M 92.5,61.5 C 101.167,61.5 109.833,61.5 118.5,61.5C 118.5,70.1667 118.5,78.8333 118.5,87.5C 110.826,87.6664 103.159,87.4997 95.5,87C 98.5511,84.2857 101.218,81.2857 103.5,78C 103.095,77.0546 102.428,76.3879 101.5,76C 102.308,75.6924 102.975,75.1924 103.5,74.5C 101.5,73.1667 99.5,71.8333 97.5,70.5C 96.1585,72.0049 94.4918,72.6715 92.5,72.5C 92.5,68.8333 92.5,65.1667 92.5,61.5 Z"/></g>
<g><path style="opacity:1" fill="#0000ee" d="M 121.5,61.5 C 125.5,61.5 129.5,61.5 133.5,61.5C 133.5,70.1667 133.5,78.8333 133.5,87.5C 129.5,87.8333 125.5,88.1667 121.5,88.5C 121.5,79.5 121.5,70.5 121.5,61.5 Z"/></g>
<g><path style="opacity:1" fill="#4a4a02" d="M 56.5,76.5 C 54.3792,76.3253 52.3792,76.6586 50.5,77.5C 50.3893,76.8826 50.056,76.3826 49.5,76C 52.0385,75.2042 54.3718,75.3709 56.5,76.5 Z"/></g>
<g><path style="opacity:1" fill="#f7f700" d="M 56.5,76.5 C 56.6641,79.1873 56.4974,81.854 56,84.5C 53.5464,82.5588 51.713,80.2254 50.5,77.5C 52.3792,76.6586 54.3792,76.3253 56.5,76.5 Z"/></g>
<g><path style="opacity:1" fill="#fdfe00" d="M 61.5,76.5 C 70.1667,76.5 78.8333,76.5 87.5,76.5C 87.5,80.1667 87.5,83.8333 87.5,87.5C 78.8333,87.5 70.1667,87.5 61.5,87.5C 61.5,83.8333 61.5,80.1667 61.5,76.5 Z"/></g>
<g><path style="opacity:1" fill="#f4f400" d="M 92.5,76.5 C 94.8309,76.4977 96.8309,77.331 98.5,79C 96.6667,80.8333 94.8333,82.6667 93,84.5C 92.5026,81.854 92.3359,79.1873 92.5,76.5 Z"/></g>
<g><path style="opacity:1" fill="#f89d00" d="M 15.5,90.5 C 19.5341,90.5045 23.5341,90.8379 27.5,91.5C 27.5,100.5 27.5,109.5 27.5,118.5C 23.4432,118.152 19.4432,117.486 15.5,116.5C 15.5,107.833 15.5,99.1667 15.5,90.5 Z"/></g>
<g><path style="opacity:1" fill="#3c3c00" d="M 84.5,93.5 C 77.8333,92.1667 71.1667,92.1667 64.5,93.5C 63.9569,93.44 63.6236,93.1067 63.5,92.5C 70.8333,91.1667 78.1667,91.1667 85.5,92.5C 85.3764,93.1067 85.0431,93.44 84.5,93.5 Z"/></g>
<g><path style="opacity:1" fill="#ea0000" d="M 128.5,90.5 C 130.167,90.5 131.833,90.5 133.5,90.5C 133.5,99.1667 133.5,107.833 133.5,116.5C 129.5,117.167 125.5,117.833 121.5,118.5C 121.5,109.5 121.5,100.5 121.5,91.5C 124.059,91.8016 126.393,91.4682 128.5,90.5 Z"/></g>
<g><path style="opacity:1" fill="#fdfd00" d="M 30.5,92.5 C 39.1667,92.5 47.8333,92.5 56.5,92.5C 56.5,101.167 56.5,109.833 56.5,118.5C 47.8333,118.5 39.1667,118.5 30.5,118.5C 30.5,109.833 30.5,101.167 30.5,92.5 Z"/></g>
<g><path style="opacity:1" fill="#fdfe00" d="M 92.5,92.5 C 101.167,92.5 109.833,92.5 118.5,92.5C 118.5,101.167 118.5,109.833 118.5,118.5C 109.833,118.5 101.167,118.5 92.5,118.5C 92.5,109.833 92.5,101.167 92.5,92.5 Z"/></g>
<g><path style="opacity:1" fill="#f9f900" d="M 64.5,93.5 C 71.1667,92.1667 77.8333,92.1667 84.5,93.5C 82.0795,96.0875 79.2462,98.0875 76,99.5C 75.187,101.436 74.687,103.436 74.5,105.5C 76.6547,105.628 78.6547,105.128 80.5,104C 81.5391,100.874 83.7057,98.0411 87,95.5C 87.4997,103.159 87.6664,110.826 87.5,118.5C 78.8333,118.5 70.1667,118.5 61.5,118.5C 61.3336,110.826 61.5003,103.159 62,95.5C 64.8576,99.2138 68.3576,101.88 72.5,103.5C 71.0051,99.327 68.3384,95.9937 64.5,93.5 Z"/></g>
<g><path style="opacity:1" fill="#0000eb" d="M 30.5,121.5 C 39.5,121.5 48.5,121.5 57.5,121.5C 58.2721,125.452 58.6054,129.452 58.5,133.5C 49.8333,133.5 41.1667,133.5 32.5,133.5C 31.5145,129.557 30.8478,125.557 30.5,121.5 Z"/></g>
<g><path style="opacity:1" fill="#fda000" d="M 61.5,121.5 C 70.1667,121.5 78.8333,121.5 87.5,121.5C 87.5,125.5 87.5,129.5 87.5,133.5C 78.8333,133.5 70.1667,133.5 61.5,133.5C 61.5,129.5 61.5,125.5 61.5,121.5 Z"/></g>
<g><path style="opacity:1" fill="#0000eb" d="M 91.5,121.5 C 100.5,121.5 109.5,121.5 118.5,121.5C 118.152,125.557 117.486,129.557 116.5,133.5C 107.833,133.5 99.1667,133.5 90.5,133.5C 90.307,129.434 90.6403,125.434 91.5,121.5 Z"/></g>
</svg>
