<?xml version="1.0" encoding="UTF-8"?>
<!DOCTYPE svg PUBLIC "-//W3C//DTD SVG 1.1//EN" "http://www.w3.org/Graphics/SVG/1.1/DTD/svg11.dtd">
<svg xmlns="http://www.w3.org/2000/svg" version="1.1" width="150px" height="150px" style="shape-rendering:geometricPrecision; text-rendering:geometricPrecision; image-rendering:optimizeQuality; fill-rule:evenodd; clip-rule:evenodd" xmlns:xlink="http://www.w3.org/1999/xlink">
<g><path style="opacity:0.948" fill="#0e0c01" d="M 31.5,13.5 C 60.1686,13.3334 88.8353,13.5 117.5,14C 119.051,18.3694 120.218,22.8694 121,27.5C 125.667,28.8333 130.333,30.1667 135,31.5C 135.667,60.1667 135.667,88.8333 135,117.5C 130.631,119.051 126.131,120.218 121.5,121C 120.167,125.667 118.833,130.333 117.5,135C 88.8333,135.667 60.1667,135.667 31.5,135C 29.949,130.631 28.7824,126.131 28,121.5C 23.3333,120.167 18.6667,118.833 14,117.5C 13.3333,88.8333 13.3333,60.1667 14,31.5C 18.6267,30.0101 23.2934,28.6768 28,27.5C 28.9819,22.7478 30.1486,18.0812 31.5,13.5 Z"/></g>
<g><path style="opacity:1" fill="#ea0000" d="M 32.5,15.5 C 41.1667,15.5 49.8333,15.5 58.5,15.5C 57.8379,19.4659 57.5045,23.4659 57.5,27.5C 48.5,27.5 39.5,27.5 30.5,27.5C 30.8478,23.4432 31.5145,19.4432 32.5,15.5 Z"/></g>
<g><path style="opacity:1" fill="#00d600" d="M 61.5,15.5 C 70.1667,15.5 78.8333,15.5 87.5,15.5C 87.5,19.5 87.5,23.5 87.5,27.5C 78.8333,27.5 70.1667,27.5 61.5,27.5C 61.5,23.5 61.5,19.5 61.5,15.5 Z"/></g>
<g><path style="opacity:1" fill="#0000ec" d="M 90.5,15.5 C 99.1922,15.1686 107.859,15.502 116.5,16.5C 117.681,20.0716 118.348,23.7383 118.5,27.5C 109.5,27.5 100.5,27.5 91.5,27.5C 91.1667,23.5 90.8333,19.5 90.5,15.5 Z"/></g>
<g><path style="opacity:1" fill="#00d500" d="M 22.5,30.5 C 24.1667,30.5 25.8333,30.5 27.5,30.5C 27.5,39.5 27.5,48.5 27.5,57.5C 23.5,57.5 19.5,57.5 15.5,57.5C 15.1688,49.1401 15.5021,40.8068 16.5,32.5C 18.6568,31.9495 20.6568,31.2829 22.5,30.5 Z"/></g>
<g><path style="opacity:1" fill="#f8f800" d="M 30.5,30.5 C 39.1667,30.5 47.8333,30.5 56.5,30.5C 56.5,34.5 56.5,38.5 56.5,42.5C 53.8333,42.5 51.1667,42.5 48.5,42.5C 48.5,43.5 48.5,44.5 48.5,45.5C 51.1667,45.5 53.8333,45.5 56.5,45.5C 56.5,49.1667 56.5,52.8333 56.5,56.5C 52.8333,56.5 49.1667,56.5 45.5,56.5C 45.3285,54.5082 45.9951,52.8415 47.5,51.5C 46.6493,49.1184 45.316,47.1184 43.5,45.5C 42.0413,47.583 40.7079,49.7497 39.5,52C 40.448,52.4828 41.448,52.6495 42.5,52.5C 42.5,53.8333 42.5,55.1667 42.5,56.5C 38.5,56.5 34.5,56.5 30.5,56.5C 30.5,47.8333 30.5,39.1667 30.5,30.5 Z"/></g>
<g><path style="opacity:1" fill="#f1f100" d="M 61.5,30.5 C 70.1667,30.5 78.8333,30.5 87.5,30.5C 87.5,34.5 87.5,38.5 87.5,42.5C 78.8333,42.5 70.1667,42.5 61.5,42.5C 61.5,38.5 61.5,34.5 61.5,30.5 Z"/></g>
<g><path style="opacity:1" fill="#fafa00" d="M 118.5,56.5 C 110.648,56.8254 102.982,56.492 95.5,55.5C 98.3644,53.9767 100.031,51.6433 100.5,48.5C 97.3864,49.0913 94.8864,50.758 93,53.5C 92.5026,50.854 92.3359,48.1873 92.5,45.5C 94.4918,45.3285 96.1585,45.9951 97.5,47.5C 99.8816,46.6493 101.882,45.316 103.5,43.5C 101.417,42.0413 99.2503,40.7079 97,39.5C 96.5172,40.448 96.3505,41.448 96.5,42.5C 95.1667,42.5 93.8333,42.5 92.5,42.5C 92.5,38.5 92.5,34.5 92.5,30.5C 101.167,30.5 109.833,30.5 118.5,30.5C 118.5,39.1667 118.5,47.8333 118.5,56.5 Z"/></g>
<g><path style="opacity:1" fill="#fa9e00" d="M 121.5,30.5 C 125.524,31.0381 129.524,31.7048 133.5,32.5C 133.5,41.1667 133.5,49.8333 133.5,58.5C 129.5,58.1667 125.5,57.8333 121.5,57.5C 121.5,48.5 121.5,39.5 121.5,30.5 Z"/></g>
<g><path style="opacity:1" fill="#fdfe00" d="M 61.5,45.5 C 70.1667,45.5 78.8333,45.5 87.5,45.5C 87.5,49.1667 87.5,52.8333 87.5,56.5C 78.8333,56.5 70.1667,56.5 61.5,56.5C 61.5,52.8333 61.5,49.1667 61.5,45.5 Z"/></g>
<g><path style="opacity:1" fill="#3e3e00" d="M 95.5,55.5 C 102.982,56.492 110.648,56.8254 118.5,56.5C 110.657,57.8204 102.657,57.8204 94.5,56.5C 94.6236,55.8933 94.9569,55.56 95.5,55.5 Z"/></g>
<g><path style="opacity:1" fill="#fda000" d="M 15.5,61.5 C 19.5,61.5 23.5,61.5 27.5,61.5C 27.5,70.1667 27.5,78.8333 27.5,87.5C 23.5,87.5 19.5,87.5 15.5,87.5C 15.5,78.8333 15.5,70.1667 15.5,61.5 Z"/></g>
<g><path style="opacity:1" fill="#f1f100" d="M 30.5,61.5 C 34.5,61.5 38.5,61.5 42.5,61.5C 42.5,70.1667 42.5,78.8333 42.5,87.5C 38.5,87.5 34.5,87.5 30.5,87.5C 30.5,78.8333 30.5,70.1667 30.5,61.5 Z"/></g>
<g><path style="opacity:1" fill="#fdfe00" d="M 45.5,61.5 C 49.1667,61.5 52.8333,61.5 56.5,61.5C 56.5,70.1667 56.5,78.8333 56.5,87.5C 52.8333,87.5 49.1667,87.5 45.5,87.5C 45.5,78.8333 45.5,70.1667 45.5,61.5 Z"/></g>
<g><path style="opacity:1" fill="#fdfd00" d="M 61.5,61.5 C 69.1739,61.3336 76.8406,61.5003 84.5,62C 77,69.5 69.5,77 62,84.5C 61.5003,76.8406 61.3336,69.1739 61.5,61.5 Z"/></g>
<g><path style="opacity:1" fill="#fdfe00" d="M 92.5,61.5 C 101.167,61.5 109.833,61.5 118.5,61.5C 118.5,70.1667 118.5,78.8333 118.5,87.5C 109.833,87.5 101.167,87.5 92.5,87.5C 92.5,78.8333 92.5,70.1667 92.5,61.5 Z"/></g>
<g><path style="opacity:1" fill="#ec0000" d="M 121.5,61.5 C 125.5,61.5 129.5,61.5 133.5,61.5C 133.5,70.1667 133.5,78.8333 133.5,87.5C 129.5,87.5 125.5,87.5 121.5,87.5C 121.5,78.8333 121.5,70.1667 121.5,61.5 Z"/></g>
<g><path style="opacity:1" fill="#fdfd00" d="M 86.5,64.5 C 87.492,71.9818 87.8254,79.6484 87.5,87.5C 79.8261,87.6664 72.1594,87.4997 64.5,87C 72.0358,79.6316 79.3692,72.1316 86.5,64.5 Z"/></g>
<g><path style="opacity:1" fill="#00d200" d="M 15.5,90.5 C 19.5341,90.5045 23.5341,90.8379 27.5,91.5C 27.5,100.5 27.5,109.5 27.5,118.5C 23.4432,118.152 19.4432,117.486 15.5,116.5C 15.5,107.833 15.5,99.1667 15.5,90.5 Z"/></g>
<g><path style="opacity:1" fill="#e90000" d="M 125.5,90.5 C 128.167,90.5 130.833,90.5 133.5,90.5C 133.5,99.1667 133.5,107.833 133.5,116.5C 129.5,117.167 125.5,117.833 121.5,118.5C 121.5,109.5 121.5,100.5 121.5,91.5C 123.099,91.7678 124.432,91.4345 125.5,90.5 Z"/></g>
<g><path style="opacity:1" fill="#f9f900" d="M 55.5,95.5 C 56.492,102.982 56.8254,110.648 56.5,118.5C 47.8333,118.5 39.1667,118.5 30.5,118.5C 30.5,109.833 30.5,101.167 30.5,92.5C 34.5,92.5 38.5,92.5 42.5,92.5C 42.5,95.1667 42.5,97.8333 42.5,100.5C 43.5,100.5 44.5,100.5 45.5,100.5C 45.5,97.8333 45.5,95.1667 45.5,92.5C 48.1873,92.3359 50.854,92.5026 53.5,93C 52.3709,95.1678 50.8709,95.6678 49,94.5C 47.8644,97.0964 47.031,99.763 46.5,102.5C 49.4245,102.54 52.0912,101.707 54.5,100C 53.4186,98.2894 53.752,96.7894 55.5,95.5 Z"/></g>
<g><path style="opacity:1" fill="#fdfe00" d="M 61.5,92.5 C 70.1667,92.5 78.8333,92.5 87.5,92.5C 87.5,101.167 87.5,109.833 87.5,118.5C 78.8333,118.5 70.1667,118.5 61.5,118.5C 61.5,109.833 61.5,101.167 61.5,92.5 Z"/></g>
<g><path style="opacity:1" fill="#fdfe00" d="M 92.5,92.5 C 101.167,92.5 109.833,92.5 118.5,92.5C 118.5,101.167 118.5,109.833 118.5,118.5C 109.833,118.5 101.167,118.5 92.5,118.5C 92.5,109.833 92.5,101.167 92.5,92.5 Z"/></g>
<g><path style="opacity:1" fill="#3e3e00" d="M 55.5,95.5 C 55.56,94.9569 55.8933,94.6236 56.5,94.5C 57.8204,102.657 57.8204,110.657 56.5,118.5C 56.8254,110.648 56.492,102.982 55.5,95.5 Z"/></g>
<g><path style="opacity:1" fill="#f99d00" d="M 30.5,121.5 C 39.5,121.5 48.5,121.5 57.5,121.5C 58.2721,125.452 58.6054,129.452 58.5,133.5C 49.8333,133.5 41.1667,133.5 32.5,133.5C 31.8333,129.5 31.1667,125.5 30.5,121.5 Z"/></g>
<g><path style="opacity:1" fill="#0000ee" d="M 60.5,121.5 C 69.5,121.5 78.5,121.5 87.5,121.5C 87.5,125.5 87.5,129.5 87.5,133.5C 78.8333,133.5 70.1667,133.5 61.5,133.5C 61.1667,129.5 60.8333,125.5 60.5,121.5 Z"/></g>
<g><path style="opacity:1" fill="#0000eb" d="M 91.5,121.5 C 100.5,121.5 109.5,121.5 118.5,121.5C 118.152,125.557 117.486,129.557 116.5,133.5C 107.833,133.5 99.1667,133.5 90.5,133.5C 90.307,129.434 90.6403,125.434 91.5,121.5 Z"/></g>
</svg>
