<?xml version="1.0" encoding="UTF-8"?>
<!DOCTYPE svg PUBLIC "-//W3C//DTD SVG 1.1//EN" "http://www.w3.org/Graphics/SVG/1.1/DTD/svg11.dtd">
<svg xmlns="http://www.w3.org/2000/svg" version="1.1" width="150px" height="150px" style="shape-rendering:geometricPrecision; text-rendering:geometricPrecision; image-rendering:optimizeQuality; fill-rule:evenodd; clip-rule:evenodd" xmlns:xlink="http://www.w3.org/1999/xlink">
<g><path style="opacity:0.947" fill="#0d0c01" d="M 31.5,13.5 C 60.1686,13.3334 88.8353,13.5 117.5,14C 119.051,18.3694 120.218,22.8694 121,27.5C 125.667,28.8333 130.333,30.1667 135,31.5C 135.667,60.1667 135.667,88.8333 135,117.5C 130.631,119.051 126.131,120.218 121.5,121C 120.167,125.667 118.833,130.333 117.5,135C 88.8333,135.667 60.1667,135.667 31.5,135C 29.949,130.631 28.7824,126.131 28,121.5C 23.3333,120.167 18.6667,118.833 14,117.5C 13.3333,88.8333 13.3333,60.1667 14,31.5C 18.6267,30.0101 23.2934,28.6768 28,27.5C 28.9819,22.7478 30.1486,18.0812 31.5,13.5 Z"/></g>
<g><path style="opacity:1" fill="#0000ed" d="M 32.5,15.5 C 41.1667,15.5 49.8333,15.5 58.5,15.5C 58.3542,19.5191 58.0209,23.5191 57.5,27.5C 48.5,27.5 39.5,27.5 30.5,27.5C 30.8478,23.4432 31.5145,19.4432 32.5,15.5 Z"/></g>
<g><path style="opacity:1" fill="#fda000" d="M 61.5,15.5 C 70.1667,15.5 78.8333,15.5 87.5,15.5C 87.5,19.5 87.5,23.5 87.5,27.5C 78.8333,27.5 70.1667,27.5 61.5,27.5C 61.5,23.5 61.5,19.5 61.5,15.5 Z"/></g>
<g><path style="opacity:1" fill="#00d500" d="M 91.5,15.5 C 99.8599,15.1688 108.193,15.5021 116.5,16.5C 117.681,20.0716 118.348,23.7383 118.5,27.5C 109.5,27.5 100.5,27.5 91.5,27.5C 91.5,23.5 91.5,19.5 91.5,15.5 Z"/></g>
<g><path style="opacity:1" fill="#eb0000" d="M 22.5,30.5 C 24.1667,30.5 25.8333,30.5 27.5,30.5C 27.5,39.5 27.5,48.5 27.5,57.5C 23.5,57.5 19.5,57.5 15.5,57.5C 15.5,49.1667 15.5,40.8333 15.5,32.5C 18.0673,32.2785 20.4006,31.6118 22.5,30.5 Z"/></g>
<g><path style="opacity:1" fill="#fbfb00" d="M 30.5,30.5 C 39.1667,30.5 47.8333,30.5 56.5,30.5C 56.6664,38.1739 56.4997,45.8406 56,53.5C 54.9783,52.646 54.1449,51.646 53.5,50.5C 54.6405,49.5745 54.6405,48.7412 53.5,48C 51.444,47.6892 49.444,47.1892 47.5,46.5C 46.985,49.1566 47.485,51.8233 49,54.5C 50.8709,53.3322 52.3709,53.8322 53.5,56C 45.8406,56.4997 38.1739,56.6664 30.5,56.5C 30.5,47.8333 30.5,39.1667 30.5,30.5 Z"/></g>
<g><path style="opacity:1" fill="#fafa00" d="M 61.5,30.5 C 70.1667,30.5 78.8333,30.5 87.5,30.5C 87.5,39.1667 87.5,47.8333 87.5,56.5C 79.8261,56.6664 72.1594,56.4997 64.5,56C 66.6743,52.6301 69.6743,50.7967 73.5,50.5C 73.6741,48.139 74.0074,45.8056 74.5,43.5C 72.1944,43.9926 69.861,44.3259 67.5,44.5C 67.2033,48.3257 65.3699,51.3257 62,53.5C 61.5003,45.8406 61.3336,38.1739 61.5,30.5 Z"/></g>
<g><path style="opacity:1" fill="#fdfd00" d="M 92.5,30.5 C 101.167,30.5 109.833,30.5 118.5,30.5C 118.5,39.1667 118.5,47.8333 118.5,56.5C 109.833,56.5 101.167,56.5 92.5,56.5C 92.5,47.8333 92.5,39.1667 92.5,30.5 Z"/></g>
<g><path style="opacity:1" fill="#e70000" d="M 121.5,30.5 C 125.524,31.0381 129.524,31.7048 133.5,32.5C 133.5,41.1667 133.5,49.8333 133.5,58.5C 129.76,58.7592 126.094,58.4259 122.5,57.5C 121.502,48.5246 121.168,39.5246 121.5,30.5 Z"/></g>
<g><path style="opacity:1" fill="#00d600" d="M 15.5,61.5 C 19.5,61.5 23.5,61.5 27.5,61.5C 27.5,70.1667 27.5,78.8333 27.5,87.5C 23.5,87.5 19.5,87.5 15.5,87.5C 15.5,78.8333 15.5,70.1667 15.5,61.5 Z"/></g>
<g><path style="opacity:1" fill="#fafa00" d="M 30.5,61.5 C 38.1739,61.3336 45.8406,61.5003 53.5,62C 51.2134,64.9621 48.3801,67.1288 45,68.5C 43.872,70.3453 43.372,72.3453 43.5,74.5C 45.8056,74.0074 48.139,73.6741 50.5,73.5C 50.7967,69.6743 52.6301,66.6743 56,64.5C 56.4997,72.1594 56.6664,79.8261 56.5,87.5C 47.8333,87.5 39.1667,87.5 30.5,87.5C 30.5,78.8333 30.5,70.1667 30.5,61.5 Z"/></g>
<g><path style="opacity:1" fill="#fcfc00" d="M 64.5,62.5 C 71.9818,61.508 79.6484,61.1746 87.5,61.5C 87.6664,69.1739 87.4997,76.8406 87,84.5C 79.6316,76.9642 72.1316,69.6308 64.5,62.5 Z"/></g>
<g><path style="opacity:1" fill="#fdfe00" d="M 92.5,61.5 C 101.167,61.5 109.833,61.5 118.5,61.5C 118.5,70.1667 118.5,78.8333 118.5,87.5C 109.833,87.5 101.167,87.5 92.5,87.5C 92.5,78.8333 92.5,70.1667 92.5,61.5 Z"/></g>
<g><path style="opacity:1" fill="#ec0000" d="M 121.5,61.5 C 125.5,61.5 129.5,61.5 133.5,61.5C 133.5,70.1667 133.5,78.8333 133.5,87.5C 129.5,87.5 125.5,87.5 121.5,87.5C 121.5,78.8333 121.5,70.1667 121.5,61.5 Z"/></g>
<g><path style="opacity:1" fill="#fcfc00" d="M 61.5,64.5 C 69.2983,71.7975 76.9649,79.2975 84.5,87C 76.8406,87.4997 69.1739,87.6664 61.5,87.5C 61.5,79.8333 61.5,72.1667 61.5,64.5 Z"/></g>
<g><path style="opacity:1" fill="#f89d00" d="M 15.5,90.5 C 19.5341,90.5045 23.5341,90.8379 27.5,91.5C 27.5,100.5 27.5,109.5 27.5,118.5C 23.4432,118.152 19.4432,117.486 15.5,116.5C 15.5,107.833 15.5,99.1667 15.5,90.5 Z"/></g>
<g><path style="opacity:1" fill="#f99d00" d="M 124.5,90.5 C 127.5,90.5 130.5,90.5 133.5,90.5C 133.5,99.1667 133.5,107.833 133.5,116.5C 129.5,117.167 125.5,117.833 121.5,118.5C 121.5,109.5 121.5,100.5 121.5,91.5C 122.791,91.7373 123.791,91.404 124.5,90.5 Z"/></g>
<g><path style="opacity:1" fill="#fdfd00" d="M 30.5,92.5 C 39.1667,92.5 47.8333,92.5 56.5,92.5C 56.5,101.167 56.5,109.833 56.5,118.5C 47.8333,118.5 39.1667,118.5 30.5,118.5C 30.5,109.833 30.5,101.167 30.5,92.5 Z"/></g>
<g><path style="opacity:1" fill="#fdfe00" d="M 61.5,92.5 C 70.1667,92.5 78.8333,92.5 87.5,92.5C 87.5,101.167 87.5,109.833 87.5,118.5C 78.8333,118.5 70.1667,118.5 61.5,118.5C 61.5,109.833 61.5,101.167 61.5,92.5 Z"/></g>
<g><path style="opacity:1" fill="#fcfc00" d="M 95.5,93.5 C 102.982,92.508 110.648,92.1746 118.5,92.5C 118.5,101.167 118.5,109.833 118.5,118.5C 109.833,118.5 101.167,118.5 92.5,118.5C 92.3336,110.826 92.5003,103.159 93,95.5C 94.7172,96.9882 95.8839,98.8215 96.5,101C 98.3453,102.128 100.345,102.628 102.5,102.5C 102.76,97.4319 100.427,94.4319 95.5,93.5 Z"/></g>
<g><path style="opacity:1" fill="#0000eb" d="M 30.5,121.5 C 39.5,121.5 48.5,121.5 57.5,121.5C 58.2721,125.452 58.6054,129.452 58.5,133.5C 49.8333,133.5 41.1667,133.5 32.5,133.5C 31.5145,129.557 30.8478,125.557 30.5,121.5 Z"/></g>
<g><path style="opacity:1" fill="#0000ee" d="M 60.5,121.5 C 69.5,121.5 78.5,121.5 87.5,121.5C 87.5,125.5 87.5,129.5 87.5,133.5C 78.8333,133.5 70.1667,133.5 61.5,133.5C 61.1667,129.5 60.8333,125.5 60.5,121.5 Z"/></g>
<g><path style="opacity:1" fill="#00d200" d="M 91.5,121.5 C 100.5,121.5 109.5,121.5 118.5,121.5C 118.152,125.557 117.486,129.557 116.5,133.5C 107.833,133.5 99.1667,133.5 90.5,133.5C 90.307,129.434 90.6403,125.434 91.5,121.5 Z"/></g>
</svg>
