<?xml version="1.0" encoding="UTF-8"?>
<!DOCTYPE svg PUBLIC "-//W3C//DTD SVG 1.1//EN" "http://www.w3.org/Graphics/SVG/1.1/DTD/svg11.dtd">
<svg xmlns="http://www.w3.org/2000/svg" version="1.1" width="150px" height="150px" style="shape-rendering:geometricPrecision; text-rendering:geometricPrecision; image-rendering:optimizeQuality; fill-rule:evenodd; clip-rule:evenodd" xmlns:xlink="http://www.w3.org/1999/xlink">
<g><path style="opacity:0.948" fill="#0e0c01" d="M 31.5,13.5 C 60.1686,13.3334 88.8353,13.5 117.5,14C 119.051,18.3694 120.218,22.8694 121,27.5C 125.667,28.8333 130.333,30.1667 135,31.5C 135.667,60.1667 135.667,88.8333 135,117.5C 130.631,119.051 126.131,120.218 121.5,121C 120.167,125.667 118.833,130.333 117.5,135C 88.8333,135.667 60.1667,135.667 31.5,135C 29.949,130.631 28.7824,126.131 28,121.5C 23.3333,120.167 18.6667,118.833 14,117.5C 13.3333,88.8333 13.3333,60.1667 14,31.5C 18.6267,30.0101 23.2934,28.6768 28,27.5C 28.9819,22.7478 30.1486,18.0812 31.5,13.5 Z"/></g>
<g><path style="opacity:1" fill="#f89d00" d="M 32.5,15.5 C 41.1667,15.5 49.8333,15.5 58.5,15.5C 58.4955,19.5341 58.1621,23.5341 57.5,27.5C 48.5,27.5 39.5,27.5 30.5,27.5C 30.8478,23.4432 31.5145,19.4432 32.5,15.5 Z"/></g>
<g><path style="opacity:1" fill="#00d600" d="M 61.5,15.5 C 70.1667,15.5 78.8333,15.5 87.5,15.5C 87.5,19.5 87.5,23.5 87.5,27.5C 78.8333,27.5 70.1667,27.5 61.5,27.5C 61.5,23.5 61.5,19.5 61.5,15.5 Z"/></g>
<g><path style="opacity:1" fill="#00d500" d="M 91.5,15.5 C 99.8599,15.1688 108.193,15.5021 116.5,16.5C 117.681,20.0716 118.348,23.7383 118.5,27.5C 109.5,27.5 100.5,27.5 91.5,27.5C 91.5,23.5 91.5,19.5 91.5,15.5 Z"/></g>
<g><path style="opacity:1" fill="#0000ed" d="M 22.5,30.5 C 24.1667,30.5 25.8333,30.5 27.5,30.5C 27.5,39.5 27.5,48.5 27.5,57.5C 23.5,57.8333 19.5,58.1667 15.5,58.5C 15.5,49.8333 15.5,41.1667 15.5,32.5C 18.0673,32.2785 20.4006,31.6118 22.5,30.5 Z"/></g>
<g><path style="opacity:1" fill="#f9f900" d="M 56.5,30.5 C 56.8254,38.3516 56.492,46.0182 55.5,53.5C 53.7155,51.8228 53.0488,49.9895 53.5,48C 51.444,47.6892 49.444,47.1892 47.5,46.5C 46.985,49.1566 47.485,51.8233 49,54.5C 50.8709,53.3322 52.3709,53.8322 53.5,56C 50.854,56.4974 48.1873,56.6641 45.5,56.5C 45.5,53.8333 45.5,51.1667 45.5,48.5C 44.5,48.5 43.5,48.5 42.5,48.5C 42.5,51.1667 42.5,53.8333 42.5,56.5C 38.5,56.5 34.5,56.5 30.5,56.5C 30.5,47.8333 30.5,39.1667 30.5,30.5C 39.1667,30.5 47.8333,30.5 56.5,30.5 Z"/></g>
<g><path style="opacity:1" fill="#3e3e00" d="M 56.5,30.5 C 57.8204,38.3428 57.8204,46.3428 56.5,54.5C 55.8933,54.3764 55.56,54.0431 55.5,53.5C 56.492,46.0182 56.8254,38.3516 56.5,30.5 Z"/></g>
<g><path style="opacity:1" fill="#fdfd00" d="M 61.5,30.5 C 70.1667,30.5 78.8333,30.5 87.5,30.5C 87.5,39.1667 87.5,47.8333 87.5,56.5C 78.8333,56.5 70.1667,56.5 61.5,56.5C 61.5,47.8333 61.5,39.1667 61.5,30.5 Z"/></g>
<g><path style="opacity:1" fill="#fdfd00" d="M 92.5,30.5 C 101.167,30.5 109.833,30.5 118.5,30.5C 118.5,39.1667 118.5,47.8333 118.5,56.5C 109.833,56.5 101.167,56.5 92.5,56.5C 92.5,47.8333 92.5,39.1667 92.5,30.5 Z"/></g>
<g><path style="opacity:1" fill="#e70000" d="M 121.5,30.5 C 125.524,31.0381 129.524,31.7048 133.5,32.5C 133.5,41.1667 133.5,49.8333 133.5,58.5C 129.76,58.7592 126.094,58.4259 122.5,57.5C 121.502,48.5246 121.168,39.5246 121.5,30.5 Z"/></g>
<g><path style="opacity:1" fill="#fda000" d="M 15.5,61.5 C 19.5,61.5 23.5,61.5 27.5,61.5C 27.5,70.1667 27.5,78.8333 27.5,87.5C 23.5,87.5 19.5,87.5 15.5,87.5C 15.5,78.8333 15.5,70.1667 15.5,61.5 Z"/></g>
<g><path style="opacity:1" fill="#f1f100" d="M 30.5,61.5 C 34.5,61.5 38.5,61.5 42.5,61.5C 42.5,70.1667 42.5,78.8333 42.5,87.5C 38.5,87.5 34.5,87.5 30.5,87.5C 30.5,78.8333 30.5,70.1667 30.5,61.5 Z"/></g>
<g><path style="opacity:1" fill="#fdfe00" d="M 45.5,61.5 C 49.1667,61.5 52.8333,61.5 56.5,61.5C 56.5,70.1667 56.5,78.8333 56.5,87.5C 52.8333,87.5 49.1667,87.5 45.5,87.5C 45.5,78.8333 45.5,70.1667 45.5,61.5 Z"/></g>
<g><path style="opacity:1" fill="#fdfd00" d="M 64.5,62.5 C 71.9818,61.508 79.6484,61.1746 87.5,61.5C 87.6664,69.1739 87.4997,76.8406 87,84.5C 79.6316,76.9642 72.1316,69.6308 64.5,62.5 Z"/></g>
<g><path style="opacity:1" fill="#fdfe00" d="M 92.5,61.5 C 101.167,61.5 109.833,61.5 118.5,61.5C 118.5,70.1667 118.5,78.8333 118.5,87.5C 109.833,87.5 101.167,87.5 92.5,87.5C 92.5,78.8333 92.5,70.1667 92.5,61.5 Z"/></g>
<g><path style="opacity:1" fill="#ec0000" d="M 121.5,61.5 C 125.5,61.5 129.5,61.5 133.5,61.5C 133.5,70.1667 133.5,78.8333 133.5,87.5C 129.5,87.5 125.5,87.5 121.5,87.5C 121.5,78.8333 121.5,70.1667 121.5,61.5 Z"/></g>
<g><path style="opacity:1" fill="#fdfd00" d="M 61.5,64.5 C 69.2983,71.7975 76.9649,79.2975 84.5,87C 76.8406,87.4997 69.1739,87.6664 61.5,87.5C 61.5,79.8333 61.5,72.1667 61.5,64.5 Z"/></g>
<g><path style="opacity:1" fill="#0000ed" d="M 15.5,90.5 C 19.5191,90.6458 23.5191,90.9791 27.5,91.5C 27.5,100.5 27.5,109.5 27.5,118.5C 23.4432,118.152 19.4432,117.486 15.5,116.5C 15.5,107.833 15.5,99.1667 15.5,90.5 Z"/></g>
<g><path style="opacity:1" fill="#3e3e00" d="M 118.5,92.5 C 110.648,92.1746 102.982,92.508 95.5,93.5C 94.9569,93.44 94.6236,93.1067 94.5,92.5C 102.657,91.1796 110.657,91.1796 118.5,92.5 Z"/></g>
<g><path style="opacity:1" fill="#f99d00" d="M 124.5,90.5 C 127.5,90.5 130.5,90.5 133.5,90.5C 133.5,99.1667 133.5,107.833 133.5,116.5C 129.5,117.167 125.5,117.833 121.5,118.5C 121.5,109.5 121.5,100.5 121.5,91.5C 122.791,91.7373 123.791,91.404 124.5,90.5 Z"/></g>
<g><path style="opacity:1" fill="#f9f900" d="M 30.5,92.5 C 34.5,92.5 38.5,92.5 42.5,92.5C 42.5,93.8333 42.5,95.1667 42.5,96.5C 41.325,96.281 40.325,96.6143 39.5,97.5C 41,99.8333 42.5,102.167 44,104.5C 44.9299,102.064 46.0966,99.7305 47.5,97.5C 45.9951,96.1585 45.3285,94.4918 45.5,92.5C 49.1667,92.5 52.8333,92.5 56.5,92.5C 56.5,96.1667 56.5,99.8333 56.5,103.5C 53.8333,103.5 51.1667,103.5 48.5,103.5C 48.5,104.5 48.5,105.5 48.5,106.5C 51.1667,106.5 53.8333,106.5 56.5,106.5C 56.5,110.5 56.5,114.5 56.5,118.5C 47.8333,118.5 39.1667,118.5 30.5,118.5C 30.5,109.833 30.5,101.167 30.5,92.5 Z"/></g>
<g><path style="opacity:1" fill="#fdfe00" d="M 61.5,92.5 C 70.1667,92.5 78.8333,92.5 87.5,92.5C 87.5,96.1667 87.5,99.8333 87.5,103.5C 78.8333,103.5 70.1667,103.5 61.5,103.5C 61.5,99.8333 61.5,96.1667 61.5,92.5 Z"/></g>
<g><path style="opacity:1" fill="#fbfb00" d="M 95.5,93.5 C 102.982,92.508 110.648,92.1746 118.5,92.5C 118.5,101.167 118.5,109.833 118.5,118.5C 109.833,118.5 101.167,118.5 92.5,118.5C 92.5,114.5 92.5,110.5 92.5,106.5C 93.8333,106.5 95.1667,106.5 96.5,106.5C 96.281,107.675 96.6143,108.675 97.5,109.5C 99.0009,108.248 100.668,107.248 102.5,106.5C 102.173,104.159 100.507,102.492 97.5,101.5C 96.1585,103.005 94.4918,103.672 92.5,103.5C 91.1893,95.2011 92.856,94.0345 97.5,100C 98.448,100.483 99.448,100.649 100.5,100.5C 100.031,97.3567 98.3644,95.0233 95.5,93.5 Z"/></g>
<g><path style="opacity:1" fill="#f2f200" d="M 61.5,106.5 C 70.1667,106.5 78.8333,106.5 87.5,106.5C 87.5,110.5 87.5,114.5 87.5,118.5C 78.8333,118.5 70.1667,118.5 61.5,118.5C 61.5,114.5 61.5,110.5 61.5,106.5 Z"/></g>
<g><path style="opacity:1" fill="#ea0000" d="M 30.5,121.5 C 39.5,121.5 48.5,121.5 57.5,121.5C 57.6458,125.519 57.9791,129.519 58.5,133.5C 49.8333,133.5 41.1667,133.5 32.5,133.5C 31.8333,129.5 31.1667,125.5 30.5,121.5 Z"/></g>
<g><path style="opacity:1" fill="#0000ee" d="M 60.5,121.5 C 69.5,121.5 78.5,121.5 87.5,121.5C 87.5,125.5 87.5,129.5 87.5,133.5C 78.8333,133.5 70.1667,133.5 61.5,133.5C 61.1667,129.5 60.8333,125.5 60.5,121.5 Z"/></g>
<g><path style="opacity:1" fill="#00d200" d="M 91.5,121.5 C 100.5,121.5 109.5,121.5 118.5,121.5C 118.152,125.557 117.486,129.557 116.5,133.5C 107.833,133.5 99.1667,133.5 90.5,133.5C 90.307,129.434 90.6403,125.434 91.5,121.5 Z"/></g>
</svg>
