<?xml version="1.0" encoding="UTF-8"?>
<!DOCTYPE svg PUBLIC "-//W3C//DTD SVG 1.1//EN" "http://www.w3.org/Graphics/SVG/1.1/DTD/svg11.dtd">
<svg xmlns="http://www.w3.org/2000/svg" version="1.1" width="150px" height="150px" style="shape-rendering:geometricPrecision; text-rendering:geometricPrecision; image-rendering:optimizeQuality; fill-rule:evenodd; clip-rule:evenodd" xmlns:xlink="http://www.w3.org/1999/xlink">
<g><path style="opacity:0.947" fill="#0d0c01" d="M 31.5,13.5 C 60.1686,13.3334 88.8353,13.5 117.5,14C 119.051,18.3694 120.218,22.8694 121,27.5C 125.667,28.8333 130.333,30.1667 135,31.5C 135.667,60.1667 135.667,88.8333 135,117.5C 130.631,119.051 126.131,120.218 121.5,121C 120.167,125.667 118.833,130.333 117.5,135C 88.8333,135.667 60.1667,135.667 31.5,135C 29.949,130.631 28.7824,126.131 28,121.5C 23.3333,120.167 18.6667,118.833 14,117.5C 13.3333,88.8333 13.3333,60.1667 14,31.5C 18.6267,30.0101 23.2934,28.6768 28,27.5C 28.9819,22.7478 30.1486,18.0812 31.5,13.5 Z"/></g>
<g><path style="opacity:1" fill="#0000ed" d="M 32.5,15.5 C 41.1667,15.5 49.8333,15.5 58.5,15.5C 58.3542,19.5191 58.0209,23.5191 57.5,27.5C 48.5,27.5 39.5,27.5 30.5,27.5C 30.8478,23.4432 31.5145,19.4432 32.5,15.5 Z"/></g>
<g><path style="opacity:1" fill="#00d600" d="M 61.5,15.5 C 70.1667,15.5 78.8333,15.5 87.5,15.5C 87.5,19.5 87.5,23.5 87.5,27.5C 78.8333,27.5 70.1667,27.5 61.5,27.5C 61.5,23.5 61.5,19.5 61.5,15.5 Z"/></g>
<g><path style="opacity:1" fill="#00d500" d="M 91.5,15.5 C 99.8599,15.1688 108.193,15.5021 116.5,16.5C 117.681,20.0716 118.348,23.7383 118.5,27.5C 109.5,27.5 100.5,27.5 91.5,27.5C 91.5,23.5 91.5,19.5 91.5,15.5 Z"/></g>
<g><path style="opacity:1" fill="#eb0000" d="M 22.5,30.5 C 24.1667,30.5 25.8333,30.5 27.5,30.5C 27.5,39.5 27.5,48.5 27.5,57.5C 23.5,57.5 19.5,57.5 15.5,57.5C 15.5,49.1667 15.5,40.8333 15.5,32.5C 18.0673,32.2785 20.4006,31.6118 22.5,30.5 Z"/></g>
<g><path style="opacity:1" fill="#fbfb00" d="M 30.5,30.5 C 39.1667,30.5 47.8333,30.5 56.5,30.5C 56.6664,38.1739 56.4997,45.8406 56,53.5C 54.9783,52.646 54.1449,51.646 53.5,50.5C 54.6405,49.5745 54.6405,48.7412 53.5,48C 51.444,47.6892 49.444,47.1892 47.5,46.5C 46.985,49.1566 47.485,51.8233 49,54.5C 50.8709,53.3322 52.3709,53.8322 53.5,56C 45.8406,56.4997 38.1739,56.6664 30.5,56.5C 30.5,47.8333 30.5,39.1667 30.5,30.5 Z"/></g>
<g><path style="opacity:1" fill="#fdfd00" d="M 61.5,30.5 C 70.1667,30.5 78.8333,30.5 87.5,30.5C 87.5,39.1667 87.5,47.8333 87.5,56.5C 78.8333,56.5 70.1667,56.5 61.5,56.5C 61.5,47.8333 61.5,39.1667 61.5,30.5 Z"/></g>
<g><path style="opacity:1" fill="#fdfd00" d="M 92.5,30.5 C 101.167,30.5 109.833,30.5 118.5,30.5C 118.5,39.1667 118.5,47.8333 118.5,56.5C 109.833,56.5 101.167,56.5 92.5,56.5C 92.5,47.8333 92.5,39.1667 92.5,30.5 Z"/></g>
<g><path style="opacity:1" fill="#e70000" d="M 121.5,30.5 C 125.524,31.0381 129.524,31.7048 133.5,32.5C 133.5,41.1667 133.5,49.8333 133.5,58.5C 129.76,58.7592 126.094,58.4259 122.5,57.5C 121.502,48.5246 121.168,39.5246 121.5,30.5 Z"/></g>
<g><path style="opacity:1" fill="#ec0000" d="M 15.5,61.5 C 19.5,61.5 23.5,61.5 27.5,61.5C 27.5,70.1667 27.5,78.8333 27.5,87.5C 23.5,87.5 19.5,87.5 15.5,87.5C 15.5,78.8333 15.5,70.1667 15.5,61.5 Z"/></g>
<g><path style="opacity:1" fill="#fcfc00" d="M 30.5,61.5 C 39.1667,61.5 47.8333,61.5 56.5,61.5C 56.5,65.1667 56.5,68.8333 56.5,72.5C 54.5082,72.6715 52.8415,72.0049 51.5,70.5C 49.2279,71.4411 47.2279,72.7745 45.5,74.5C 47.2279,76.2255 49.2279,77.5589 51.5,78.5C 52.8415,76.9951 54.5082,76.3285 56.5,76.5C 56.5,80.1667 56.5,83.8333 56.5,87.5C 47.8333,87.5 39.1667,87.5 30.5,87.5C 30.5,78.8333 30.5,70.1667 30.5,61.5 Z"/></g>
<g><path style="opacity:1" fill="#fcfc00" d="M 64.5,62.5 C 71.9818,61.508 79.6484,61.1746 87.5,61.5C 87.5,65.1667 87.5,68.8333 87.5,72.5C 83.1539,72.6657 78.8206,72.499 74.5,72C 71.2975,68.6291 67.9641,65.4625 64.5,62.5 Z"/></g>
<g><path style="opacity:1" fill="#fcfc00" d="M 92.5,61.5 C 101.167,61.5 109.833,61.5 118.5,61.5C 118.5,70.1667 118.5,78.8333 118.5,87.5C 109.833,87.5 101.167,87.5 92.5,87.5C 92.5,83.8333 92.5,80.1667 92.5,76.5C 94.4918,76.3285 96.1585,76.9951 97.5,78.5C 99.7721,77.5589 101.772,76.2255 103.5,74.5C 101.5,73.1667 99.5,71.8333 97.5,70.5C 96.1585,72.0049 94.4918,72.6715 92.5,72.5C 92.5,68.8333 92.5,65.1667 92.5,61.5 Z"/></g>
<g><path style="opacity:1" fill="#fda000" d="M 121.5,61.5 C 125.5,61.5 129.5,61.5 133.5,61.5C 133.5,70.1667 133.5,78.8333 133.5,87.5C 129.5,87.5 125.5,87.5 121.5,87.5C 121.5,78.8333 121.5,70.1667 121.5,61.5 Z"/></g>
<g><path style="opacity:1" fill="#f9f900" d="M 61.5,64.5 C 64.2971,66.795 66.9638,69.295 69.5,72C 66.854,72.4974 64.1873,72.6641 61.5,72.5C 61.5,69.8333 61.5,67.1667 61.5,64.5 Z"/></g>
<g><path style="opacity:1" fill="#fcfc00" d="M 61.5,76.5 C 65.8461,76.3343 70.1794,76.501 74.5,77C 77.8333,80.3333 81.1667,83.6667 84.5,87C 76.8406,87.4997 69.1739,87.6664 61.5,87.5C 61.5,83.8333 61.5,80.1667 61.5,76.5 Z"/></g>
<g><path style="opacity:1" fill="#f9f900" d="M 79.5,77.5 C 81.9479,76.5269 84.6146,76.1936 87.5,76.5C 87.6641,79.1873 87.4974,81.854 87,84.5C 84.6303,81.9614 82.1303,79.6281 79.5,77.5 Z"/></g>
<g><path style="opacity:1" fill="#f89d00" d="M 15.5,90.5 C 19.5341,90.5045 23.5341,90.8379 27.5,91.5C 27.5,100.5 27.5,109.5 27.5,118.5C 23.4432,118.152 19.4432,117.486 15.5,116.5C 15.5,107.833 15.5,99.1667 15.5,90.5 Z"/></g>
<g><path style="opacity:1" fill="#f99d00" d="M 124.5,90.5 C 127.5,90.5 130.5,90.5 133.5,90.5C 133.5,99.1667 133.5,107.833 133.5,116.5C 129.5,117.167 125.5,117.833 121.5,118.5C 121.5,109.5 121.5,100.5 121.5,91.5C 122.791,91.7373 123.791,91.404 124.5,90.5 Z"/></g>
<g><path style="opacity:1" fill="#fdfd00" d="M 30.5,92.5 C 39.1667,92.5 47.8333,92.5 56.5,92.5C 56.5,101.167 56.5,109.833 56.5,118.5C 47.8333,118.5 39.1667,118.5 30.5,118.5C 30.5,109.833 30.5,101.167 30.5,92.5 Z"/></g>
<g><path style="opacity:1" fill="#fdfe00" d="M 61.5,92.5 C 70.1667,92.5 78.8333,92.5 87.5,92.5C 87.5,101.167 87.5,109.833 87.5,118.5C 78.8333,118.5 70.1667,118.5 61.5,118.5C 61.5,109.833 61.5,101.167 61.5,92.5 Z"/></g>
<g><path style="opacity:1" fill="#fcfc00" d="M 95.5,93.5 C 102.982,92.508 110.648,92.1746 118.5,92.5C 118.5,101.167 118.5,109.833 118.5,118.5C 109.833,118.5 101.167,118.5 92.5,118.5C 92.3336,110.826 92.5003,103.159 93,95.5C 94.7172,96.9882 95.8839,98.8215 96.5,101C 98.3453,102.128 100.345,102.628 102.5,102.5C 102.76,97.4319 100.427,94.4319 95.5,93.5 Z"/></g>
<g><path style="opacity:1" fill="#0000eb" d="M 30.5,121.5 C 39.5,121.5 48.5,121.5 57.5,121.5C 58.2721,125.452 58.6054,129.452 58.5,133.5C 49.8333,133.5 41.1667,133.5 32.5,133.5C 31.5145,129.557 30.8478,125.557 30.5,121.5 Z"/></g>
<g><path style="opacity:1" fill="#0000ee" d="M 60.5,121.5 C 69.5,121.5 78.5,121.5 87.5,121.5C 87.5,125.5 87.5,129.5 87.5,133.5C 78.8333,133.5 70.1667,133.5 61.5,133.5C 61.1667,129.5 60.8333,125.5 60.5,121.5 Z"/></g>
<g><path style="opacity:1" fill="#00d200" d="M 91.5,121.5 C 100.5,121.5 109.5,121.5 118.5,121.5C 118.152,125.557 117.486,129.557 116.5,133.5C 107.833,133.5 99.1667,133.5 90.5,133.5C 90.307,129.434 90.6403,125.434 91.5,121.5 Z"/></g>
</svg>
