<?xml version="1.0" encoding="UTF-8"?>
<!DOCTYPE svg PUBLIC "-//W3C//DTD SVG 1.1//EN" "http://www.w3.org/Graphics/SVG/1.1/DTD/svg11.dtd">
<svg xmlns="http://www.w3.org/2000/svg" version="1.1" width="150px" height="150px" style="shape-rendering:geometricPrecision; text-rendering:geometricPrecision; image-rendering:optimizeQuality; fill-rule:evenodd; clip-rule:evenodd" xmlns:xlink="http://www.w3.org/1999/xlink">
<g><path style="opacity:0.946" fill="#0e0c01" d="M 31.5,13.5 C 60.1686,13.3334 88.8353,13.5 117.5,14C 119.051,18.3694 120.218,22.8694 121,27.5C 125.667,28.8333 130.333,30.1667 135,31.5C 135.667,60.1667 135.667,88.8333 135,117.5C 130.631,119.051 126.131,120.218 121.5,121C 120.167,125.667 118.833,130.333 117.5,135C 88.8333,135.667 60.1667,135.667 31.5,135C 29.949,130.631 28.7824,126.131 28,121.5C 23.3333,120.167 18.6667,118.833 14,117.5C 13.3333,88.8333 13.3333,60.1667 14,31.5C 18.6267,30.0101 23.2934,28.6768 28,27.5C 28.9819,22.7478 30.1486,18.0812 31.5,13.5 Z"/></g>
<g><path style="opacity:1" fill="#ea0000" d="M 32.5,15.5 C 41.1667,15.5 49.8333,15.5 58.5,15.5C 57.8379,19.4659 57.5045,23.4659 57.5,27.5C 48.5,27.5 39.5,27.5 30.5,27.5C 30.8478,23.4432 31.5145,19.4432 32.5,15.5 Z"/></g>
<g><path style="opacity:1" fill="#ec0000" d="M 61.5,15.5 C 70.1667,15.5 78.8333,15.5 87.5,15.5C 87.5,19.5 87.5,23.5 87.5,27.5C 78.8333,27.5 70.1667,27.5 61.5,27.5C 61.5,23.5 61.5,19.5 61.5,15.5 Z"/></g>
<g><path style="opacity:1" fill="#0000ec" d="M 90.5,15.5 C 99.1922,15.1686 107.859,15.502 116.5,16.5C 117.681,20.0716 118.348,23.7383 118.5,27.5C 109.5,27.5 100.5,27.5 91.5,27.5C 91.1667,23.5 90.8333,19.5 90.5,15.5 Z"/></g>
<g><path style="opacity:1" fill="#00d500" d="M 22.5,30.5 C 24.1667,30.5 25.8333,30.5 27.5,30.5C 27.5,39.5 27.5,48.5 27.5,57.5C 23.5,57.5 19.5,57.5 15.5,57.5C 15.1688,49.1401 15.5021,40.8068 16.5,32.5C 18.6568,31.9495 20.6568,31.2829 22.5,30.5 Z"/></g>
<g><path style="opacity:1" fill="#fcfc00" d="M 30.5,30.5 C 39.1667,30.5 47.8333,30.5 56.5,30.5C 56.5,39.1667 56.5,47.8333 56.5,56.5C 47.8333,56.5 39.1667,56.5 30.5,56.5C 30.5,47.8333 30.5,39.1667 30.5,30.5 Z"/></g>
<g><path style="opacity:1" fill="#fdfd00" d="M 61.5,30.5 C 70.1667,30.5 78.8333,30.5 87.5,30.5C 87.5,39.1667 87.5,47.8333 87.5,56.5C 78.8333,56.5 70.1667,56.5 61.5,56.5C 61.5,47.8333 61.5,39.1667 61.5,30.5 Z"/></g>
<g><path style="opacity:1" fill="#fcfc00" d="M 92.5,30.5 C 101.167,30.5 109.833,30.5 118.5,30.5C 118.5,39.1667 118.5,47.8333 118.5,56.5C 114.833,56.5 111.167,56.5 107.5,56.5C 107.328,54.5082 107.995,52.8415 109.5,51.5C 108.167,49.5 106.833,47.5 105.5,45.5C 103.774,47.2279 102.441,49.2279 101.5,51.5C 103.005,52.8415 103.672,54.5082 103.5,56.5C 99.8333,56.5 96.1667,56.5 92.5,56.5C 92.5,47.8333 92.5,39.1667 92.5,30.5 Z"/></g>
<g><path style="opacity:1" fill="#fa9e00" d="M 121.5,30.5 C 125.524,31.0381 129.524,31.7048 133.5,32.5C 133.5,41.1667 133.5,49.8333 133.5,58.5C 129.5,58.1667 125.5,57.8333 121.5,57.5C 121.5,48.5 121.5,39.5 121.5,30.5 Z"/></g>
<g><path style="opacity:1" fill="#00d600" d="M 15.5,61.5 C 19.5,61.5 23.5,61.5 27.5,61.5C 27.5,70.1667 27.5,78.8333 27.5,87.5C 23.5,87.5 19.5,87.5 15.5,87.5C 15.5,78.8333 15.5,70.1667 15.5,61.5 Z"/></g>
<g><path style="opacity:1" fill="#fdfd00" d="M 30.5,61.5 C 39.1667,61.5 47.8333,61.5 56.5,61.5C 56.5,70.1667 56.5,78.8333 56.5,87.5C 47.8333,87.5 39.1667,87.5 30.5,87.5C 30.5,78.8333 30.5,70.1667 30.5,61.5 Z"/></g>
<g><path style="opacity:1" fill="#fdfe00" d="M 61.5,61.5 C 70.1667,61.5 78.8333,61.5 87.5,61.5C 87.5,70.1667 87.5,78.8333 87.5,87.5C 78.8333,87.5 70.1667,87.5 61.5,87.5C 61.5,78.8333 61.5,70.1667 61.5,61.5 Z"/></g>
<g><path style="opacity:1" fill="#f9f900" d="M 92.5,61.5 C 96.1667,61.5 99.8333,61.5 103.5,61.5C 103.826,65.8839 103.492,70.2172 102.5,74.5C 101.264,75.2458 99.9305,75.5792 98.5,75.5C 98.2033,79.3257 96.3699,82.3257 93,84.5C 92.5003,76.8406 92.3336,69.1739 92.5,61.5 Z"/></g>
<g><path style="opacity:1" fill="#fdfe00" d="M 107.5,61.5 C 111.167,61.5 114.833,61.5 118.5,61.5C 118.5,70.1667 118.5,78.8333 118.5,87.5C 114.833,87.5 111.167,87.5 107.5,87.5C 107.5,78.8333 107.5,70.1667 107.5,61.5 Z"/></g>
<g><path style="opacity:1" fill="#fda000" d="M 121.5,61.5 C 125.5,61.5 129.5,61.5 133.5,61.5C 133.5,70.1667 133.5,78.8333 133.5,87.5C 129.5,87.5 125.5,87.5 121.5,87.5C 121.5,78.8333 121.5,70.1667 121.5,61.5 Z"/></g>
<g><path style="opacity:1" fill="#f9f900" d="M 101.5,80.5 C 103.163,82.4385 103.829,84.7718 103.5,87.5C 100.813,87.6641 98.146,87.4974 95.5,87C 97.7059,84.9633 99.7059,82.7966 101.5,80.5 Z"/></g>
<g><path style="opacity:1" fill="#00d200" d="M 15.5,90.5 C 19.5341,90.5045 23.5341,90.8379 27.5,91.5C 27.5,100.5 27.5,109.5 27.5,118.5C 23.4432,118.152 19.4432,117.486 15.5,116.5C 15.5,107.833 15.5,99.1667 15.5,90.5 Z"/></g>
<g><path style="opacity:1" fill="#ea0000" d="M 128.5,90.5 C 130.167,90.5 131.833,90.5 133.5,90.5C 133.5,99.1667 133.5,107.833 133.5,116.5C 129.5,117.167 125.5,117.833 121.5,118.5C 121.5,109.5 121.5,100.5 121.5,91.5C 124.059,91.8016 126.393,91.4682 128.5,90.5 Z"/></g>
<g><path style="opacity:1" fill="#fdfd00" d="M 30.5,92.5 C 39.1667,92.5 47.8333,92.5 56.5,92.5C 56.5,101.167 56.5,109.833 56.5,118.5C 47.8333,118.5 39.1667,118.5 30.5,118.5C 30.5,109.833 30.5,101.167 30.5,92.5 Z"/></g>
<g><path style="opacity:1" fill="#fafa00" d="M 61.5,92.5 C 69.1739,92.3336 76.8406,92.5003 84.5,93C 82.2134,95.9621 79.3801,98.1288 76,99.5C 75.187,101.436 74.687,103.436 74.5,105.5C 76.6547,105.628 78.6547,105.128 80.5,104C 81.5713,100.85 83.738,98.0167 87,95.5C 87.4997,103.159 87.6664,110.826 87.5,118.5C 78.8333,118.5 70.1667,118.5 61.5,118.5C 61.5,109.833 61.5,101.167 61.5,92.5 Z"/></g>
<g><path style="opacity:1" fill="#fcfc00" d="M 92.5,92.5 C 96.1667,92.5 99.8333,92.5 103.5,92.5C 103.672,94.4918 103.005,96.1585 101.5,97.5C 102.351,99.8816 103.684,101.882 105.5,103.5C 106.833,101.5 108.167,99.5 109.5,97.5C 107.995,96.1585 107.328,94.4918 107.5,92.5C 111.167,92.5 114.833,92.5 118.5,92.5C 118.5,101.167 118.5,109.833 118.5,118.5C 109.833,118.5 101.167,118.5 92.5,118.5C 92.5,109.833 92.5,101.167 92.5,92.5 Z"/></g>
<g><path style="opacity:1" fill="#f99d00" d="M 30.5,121.5 C 39.5,121.5 48.5,121.5 57.5,121.5C 58.2721,125.452 58.6054,129.452 58.5,133.5C 49.8333,133.5 41.1667,133.5 32.5,133.5C 31.8333,129.5 31.1667,125.5 30.5,121.5 Z"/></g>
<g><path style="opacity:1" fill="#0000ee" d="M 60.5,121.5 C 69.5,121.5 78.5,121.5 87.5,121.5C 87.5,125.5 87.5,129.5 87.5,133.5C 78.8333,133.5 70.1667,133.5 61.5,133.5C 61.1667,129.5 60.8333,125.5 60.5,121.5 Z"/></g>
<g><path style="opacity:1" fill="#0000eb" d="M 91.5,121.5 C 100.5,121.5 109.5,121.5 118.5,121.5C 118.152,125.557 117.486,129.557 116.5,133.5C 107.833,133.5 99.1667,133.5 90.5,133.5C 90.307,129.434 90.6403,125.434 91.5,121.5 Z"/></g>
</svg>
