<?xml version="1.0" encoding="UTF-8"?>
<!DOCTYPE svg PUBLIC "-//W3C//DTD SVG 1.1//EN" "http://www.w3.org/Graphics/SVG/1.1/DTD/svg11.dtd">
<svg xmlns="http://www.w3.org/2000/svg" version="1.1" width="150px" height="150px" style="shape-rendering:geometricPrecision; text-rendering:geometricPrecision; image-rendering:optimizeQuality; fill-rule:evenodd; clip-rule:evenodd" xmlns:xlink="http://www.w3.org/1999/xlink">
<g><path style="opacity:0.947" fill="#0e0c01" d="M 31.5,13.5 C 60.1686,13.3334 88.8353,13.5 117.5,14C 119.051,18.3694 120.218,22.8694 121,27.5C 125.667,28.8333 130.333,30.1667 135,31.5C 135.667,60.1667 135.667,88.8333 135,117.5C 130.631,119.051 126.131,120.218 121.5,121C 120.167,125.667 118.833,130.333 117.5,135C 88.8333,135.667 60.1667,135.667 31.5,135C 29.949,130.631 28.7824,126.131 28,121.5C 23.3333,120.167 18.6667,118.833 14,117.5C 13.3333,88.8333 13.3333,60.1667 14,31.5C 18.6267,30.0101 23.2934,28.6768 28,27.5C 28.9819,22.7478 30.1486,18.0812 31.5,13.5 Z"/></g>
<g><path style="opacity:1" fill="#00d200" d="M 32.5,15.5 C 41.1667,15.5 49.8333,15.5 58.5,15.5C 58.4955,19.5341 58.1621,23.5341 57.5,27.5C 48.5,27.5 39.5,27.5 30.5,27.5C 30.8478,23.4432 31.5145,19.4432 32.5,15.5 Z"/></g>
<g><path style="opacity:1" fill="#00d600" d="M 61.5,15.5 C 70.1667,15.5 78.8333,15.5 87.5,15.5C 87.5,19.5 87.5,23.5 87.5,27.5C 78.8333,27.5 70.1667,27.5 61.5,27.5C 61.5,23.5 61.5,19.5 61.5,15.5 Z"/></g>
<g><path style="opacity:1" fill="#0000ec" d="M 90.5,15.5 C 99.1922,15.1686 107.859,15.502 116.5,16.5C 117.681,20.0716 118.348,23.7383 118.5,27.5C 109.5,27.5 100.5,27.5 91.5,27.5C 91.1667,23.5 90.8333,19.5 90.5,15.5 Z"/></g>
<g><path style="opacity:1" fill="#fb9f00" d="M 22.5,30.5 C 24.1667,30.5 25.8333,30.5 27.5,30.5C 27.5,39.5 27.5,48.5 27.5,57.5C 23.5,57.5 19.5,57.5 15.5,57.5C 15.1688,49.1401 15.5021,40.8068 16.5,32.5C 18.6568,31.9495 20.6568,31.2829 22.5,30.5 Z"/></g>
<g><path style="opacity:1" fill="#fcfc00" d="M 30.5,30.5 C 39.1667,30.5 47.8333,30.5 56.5,30.5C 56.5,39.1667 56.5,47.8333 56.5,56.5C 47.8333,56.5 39.1667,56.5 30.5,56.5C 30.5,47.8333 30.5,39.1667 30.5,30.5 Z"/></g>
<g><path style="opacity:1" fill="#fdfd00" d="M 61.5,30.5 C 70.1667,30.5 78.8333,30.5 87.5,30.5C 87.5,39.1667 87.5,47.8333 87.5,56.5C 78.8333,56.5 70.1667,56.5 61.5,56.5C 61.5,47.8333 61.5,39.1667 61.5,30.5 Z"/></g>
<g><path style="opacity:1" fill="#fbfb00" d="M 92.5,30.5 C 101.167,30.5 109.833,30.5 118.5,30.5C 118.5,39.1667 118.5,47.8333 118.5,56.5C 110.826,56.6664 103.159,56.4997 95.5,56C 96.6291,53.8322 98.1291,53.3322 100,54.5C 100.986,52.2222 101.82,49.8889 102.5,47.5C 100.234,46.7942 97.9009,46.9609 95.5,48C 94.3595,48.7412 94.3595,49.5745 95.5,50.5C 94.8551,51.646 94.0217,52.646 93,53.5C 92.5003,45.8406 92.3336,38.1739 92.5,30.5 Z"/></g>
<g><path style="opacity:1" fill="#fa9e00" d="M 121.5,30.5 C 125.524,31.0381 129.524,31.7048 133.5,32.5C 133.5,41.1667 133.5,49.8333 133.5,58.5C 129.5,58.1667 125.5,57.8333 121.5,57.5C 121.5,48.5 121.5,39.5 121.5,30.5 Z"/></g>
<g><path style="opacity:1" fill="#ec0000" d="M 15.5,61.5 C 19.5,61.5 23.5,61.5 27.5,61.5C 27.5,70.1667 27.5,78.8333 27.5,87.5C 23.5,87.5 19.5,87.5 15.5,87.5C 15.5,78.8333 15.5,70.1667 15.5,61.5 Z"/></g>
<g><path style="opacity:1" fill="#fcfc00" d="M 30.5,61.5 C 39.1667,61.5 47.8333,61.5 56.5,61.5C 56.5,65.1667 56.5,68.8333 56.5,72.5C 54.5082,72.6715 52.8415,72.0049 51.5,70.5C 49.2279,71.4411 47.2279,72.7745 45.5,74.5C 47.2279,76.2255 49.2279,77.5589 51.5,78.5C 52.8415,76.9951 54.5082,76.3285 56.5,76.5C 56.5,80.1667 56.5,83.8333 56.5,87.5C 47.8333,87.5 39.1667,87.5 30.5,87.5C 30.5,78.8333 30.5,70.1667 30.5,61.5 Z"/></g>
<g><path style="opacity:1" fill="#fcfc00" d="M 61.5,61.5 C 69.1739,61.3336 76.8406,61.5003 84.5,62C 81.1667,65.3333 77.8333,68.6667 74.5,72C 70.1794,72.499 65.8461,72.6657 61.5,72.5C 61.5,68.8333 61.5,65.1667 61.5,61.5 Z"/></g>
<g><path style="opacity:1" fill="#fcfc00" d="M 92.5,61.5 C 101.167,61.5 109.833,61.5 118.5,61.5C 118.5,70.1667 118.5,78.8333 118.5,87.5C 109.833,87.5 101.167,87.5 92.5,87.5C 92.5,83.8333 92.5,80.1667 92.5,76.5C 94.4918,76.3285 96.1585,76.9951 97.5,78.5C 99.7721,77.5589 101.772,76.2255 103.5,74.5C 101.5,73.1667 99.5,71.8333 97.5,70.5C 96.1585,72.0049 94.4918,72.6715 92.5,72.5C 92.5,68.8333 92.5,65.1667 92.5,61.5 Z"/></g>
<g><path style="opacity:1" fill="#fda000" d="M 121.5,61.5 C 125.5,61.5 129.5,61.5 133.5,61.5C 133.5,70.1667 133.5,78.8333 133.5,87.5C 129.5,87.5 125.5,87.5 121.5,87.5C 121.5,78.8333 121.5,70.1667 121.5,61.5 Z"/></g>
<g><path style="opacity:1" fill="#f9f900" d="M 86.5,64.5 C 87.4731,66.9479 87.8064,69.6146 87.5,72.5C 84.8127,72.6641 82.146,72.4974 79.5,72C 82.0386,69.6303 84.3719,67.1303 86.5,64.5 Z"/></g>
<g><path style="opacity:1" fill="#f9f900" d="M 61.5,76.5 C 64.1873,76.3359 66.854,76.5026 69.5,77C 67,79.5 64.5,82 62,84.5C 61.5026,81.854 61.3359,79.1873 61.5,76.5 Z"/></g>
<g><path style="opacity:1" fill="#fcfc00" d="M 74.5,76.5 C 78.8333,76.5 83.1667,76.5 87.5,76.5C 87.5,80.1667 87.5,83.8333 87.5,87.5C 79.8261,87.6664 72.1594,87.4997 64.5,87C 68.0374,83.6309 71.3707,80.1309 74.5,76.5 Z"/></g>
<g><path style="opacity:1" fill="#ea0000" d="M 15.5,90.5 C 19.4659,91.1621 23.4659,91.4955 27.5,91.5C 27.5,100.5 27.5,109.5 27.5,118.5C 23.4432,118.152 19.4432,117.486 15.5,116.5C 15.5,107.833 15.5,99.1667 15.5,90.5 Z"/></g>
<g><path style="opacity:1" fill="#ea0000" d="M 128.5,90.5 C 130.167,90.5 131.833,90.5 133.5,90.5C 133.5,99.1667 133.5,107.833 133.5,116.5C 129.5,117.167 125.5,117.833 121.5,118.5C 121.5,109.5 121.5,100.5 121.5,91.5C 124.059,91.8016 126.393,91.4682 128.5,90.5 Z"/></g>
<g><path style="opacity:1" fill="#fbfb00" d="M 30.5,92.5 C 38.1739,92.3336 45.8406,92.5003 53.5,93C 52.3709,95.1678 50.8709,95.6678 49,94.5C 47.8644,97.0964 47.031,99.763 46.5,102.5C 49.4245,102.54 52.0912,101.707 54.5,100C 53.3322,98.1291 53.8322,96.6291 56,95.5C 56.4997,103.159 56.6664,110.826 56.5,118.5C 47.8333,118.5 39.1667,118.5 30.5,118.5C 30.5,109.833 30.5,101.167 30.5,92.5 Z"/></g>
<g><path style="opacity:1" fill="#fdfe00" d="M 61.5,92.5 C 70.1667,92.5 78.8333,92.5 87.5,92.5C 87.5,101.167 87.5,109.833 87.5,118.5C 78.8333,118.5 70.1667,118.5 61.5,118.5C 61.5,109.833 61.5,101.167 61.5,92.5 Z"/></g>
<g><path style="opacity:1" fill="#fdfe00" d="M 92.5,92.5 C 101.167,92.5 109.833,92.5 118.5,92.5C 118.5,101.167 118.5,109.833 118.5,118.5C 109.833,118.5 101.167,118.5 92.5,118.5C 92.5,109.833 92.5,101.167 92.5,92.5 Z"/></g>
<g><path style="opacity:1" fill="#00d200" d="M 30.5,121.5 C 39.5,121.5 48.5,121.5 57.5,121.5C 58.2721,125.452 58.6054,129.452 58.5,133.5C 49.8078,133.831 41.1411,133.498 32.5,132.5C 31.6479,128.869 30.9812,125.202 30.5,121.5 Z"/></g>
<g><path style="opacity:1" fill="#0000ee" d="M 60.5,121.5 C 69.5,121.5 78.5,121.5 87.5,121.5C 87.5,125.5 87.5,129.5 87.5,133.5C 78.8333,133.5 70.1667,133.5 61.5,133.5C 61.1667,129.5 60.8333,125.5 60.5,121.5 Z"/></g>
<g><path style="opacity:1" fill="#0000eb" d="M 91.5,121.5 C 100.5,121.5 109.5,121.5 118.5,121.5C 118.152,125.557 117.486,129.557 116.5,133.5C 107.833,133.5 99.1667,133.5 90.5,133.5C 90.307,129.434 90.6403,125.434 91.5,121.5 Z"/></g>
</svg>
