<?xml version="1.0" encoding="UTF-8"?>
<!DOCTYPE svg PUBLIC "-//W3C//DTD SVG 1.1//EN" "http://www.w3.org/Graphics/SVG/1.1/DTD/svg11.dtd">
<svg xmlns="http://www.w3.org/2000/svg" version="1.1" width="300px" height="300px" style="shape-rendering:geometricPrecision; text-rendering:geometricPrecision; image-rendering:optimizeQuality; fill-rule:evenodd; clip-rule:evenodd" xmlns:xlink="http://www.w3.org/1999/xlink">
<g><path style="opacity:0.97" fill="#090406" d="M 128.5,26.5 C 174.702,37.384 220.702,49.2173 266.5,62C 268.049,63.214 269.215,64.714 270,66.5C 267.505,113.93 263.839,161.263 259,208.5C 230.833,235.333 202.667,262.167 174.5,289C 170.739,289.738 167.072,289.405 163.5,288C 121.75,269.527 80.083,250.861 38.5,232C 36.9512,230.786 35.7845,229.286 35,227.5C 30.4479,179.543 26.7812,131.543 24,83.5C 24.7845,81.714 25.9512,80.214 27.5,79C 61.5424,61.9808 95.209,44.4808 128.5,26.5 Z"/></g>
<g><path style="opacity:1" fill="#0000e9" d="M 129.5,30.5 C 142.403,32.7258 155.07,35.8925 167.5,40C 159.5,44.6667 151.5,49.3333 143.5,54C 141.5,54.6667 139.5,54.6667 137.5,54C 126.305,51.1207 115.305,47.7873 104.5,44C 112.895,39.4715 121.228,34.9715 129.5,30.5 Z"/></g>
<g><path style="opacity:1" fill="#0000e9" d="M 174.5,41.5 C 187.541,44.8437 200.541,48.3437 213.5,52C 205.259,57.9093 196.759,63.4093 188,68.5C 174.856,64.589 161.689,60.7557 148.5,57C 157.395,52.059 166.062,46.8923 174.5,41.5 Z"/></g>
<g><path style="opacity:1" fill="#0000ea" d="M 96.5,47.5 C 109.939,49.4814 122.939,52.9814 135.5,58C 127.332,63.2516 118.999,68.2516 110.5,73C 107.833,73.6667 105.167,73.6667 102.5,73C 91.3037,69.7124 80.3037,66.0457 69.5,62C 78.8801,57.6468 87.8801,52.8135 96.5,47.5 Z"/></g>
<g><path style="opacity:1" fill="#0000ea" d="M 219.5,54.5 C 234.114,57.0702 248.448,60.7369 262.5,65.5C 254.752,71.7888 246.586,77.4555 238,82.5C 223.992,78.718 210.159,74.5513 196.5,70C 204.344,64.9703 212.011,59.8037 219.5,54.5 Z"/></g>
<g><path style="opacity:1" fill="#0000e5" d="M 142.5,59.5 C 156.249,62.8553 169.915,66.6886 183.5,71C 175.103,77.06 166.437,82.7267 157.5,88C 151.278,87.932 145.278,86.5987 139.5,84C 141.443,82.4445 143.61,81.2779 146,80.5C 147.445,81.7418 148.945,82.5751 150.5,83C 153.042,78.7485 155.709,74.5819 158.5,70.5C 153.33,69.7624 148.163,69.0957 143,68.5C 142.5,68.8333 142,69.1667 141.5,69.5C 142.167,70.8333 142.833,72.1667 143.5,73.5C 139.402,76.2977 135.235,78.9643 131,81.5C 125.617,80.2614 120.45,78.428 115.5,76C 124.897,70.9765 133.897,65.4765 142.5,59.5 Z"/></g>
<g><path style="opacity:1" fill="#0000ea" d="M 62.5,65.5 C 75.793,68.71 88.793,72.71 101.5,77.5C 92.2968,83.1993 82.9635,88.6993 73.5,94C 71.6354,95.3014 69.6354,95.6347 67.5,95C 55.378,91.1262 43.378,86.9596 31.5,82.5C 42.0557,77.0591 52.3891,71.3925 62.5,65.5 Z"/></g>
<g><path style="opacity:1" fill="#e80000" d="M 265.5,70.5 C 266.139,71.0968 266.472,71.9302 266.5,73C 265.408,86.5004 264.241,100 263,113.5C 255.409,119.38 247.909,125.38 240.5,131.5C 240.167,130.5 239.833,129.5 239.5,128.5C 240.254,114.419 241.588,100.419 243.5,86.5C 250.901,81.1453 258.234,75.812 265.5,70.5 Z"/></g>
<g><path style="opacity:1" fill="#0000eb" d="M 190.5,73.5 C 205.298,77.2258 219.965,81.3925 234.5,86C 226.222,91.2781 218.222,96.9448 210.5,103C 208.635,104.301 206.635,104.635 204.5,104C 190.85,99.6682 177.183,95.3349 163.5,91C 172.675,85.3036 181.675,79.4703 190.5,73.5 Z"/></g>
<g><path style="opacity:1" fill="#0000e8" d="M 108.5,79.5 C 114.703,80.623 120.703,82.4564 126.5,85C 118.86,91.3062 111.86,98.3062 105.5,106C 96.0095,104.173 86.6761,101.507 77.5,98C 87.8967,91.8073 98.23,85.6406 108.5,79.5 Z"/></g>
<g><path style="opacity:1" fill="#0000e7" d="M 133.5,87.5 C 139.278,88.5279 144.944,90.0279 150.5,92C 140.833,98.3333 131.167,104.667 121.5,111C 117.947,111.598 114.614,110.931 111.5,109C 118.066,100.933 125.399,93.7661 133.5,87.5 Z"/></g>
<g><path style="opacity:1" fill="#fcfcfc" d="M 28.5,88.5 C 41.3858,92.9066 54.3858,96.9066 67.5,100.5C 68.009,113.338 68.6757,126.171 69.5,139C 69.1667,141.5 68.8333,144 68.5,146.5C 56.3737,141.685 44.2071,137.019 32,132.5C 30.8327,117.826 29.6661,103.16 28.5,88.5 Z"/></g>
<g><path style="opacity:1" fill="#e90000" d="M 235.5,91.5 C 236.794,93.0478 237.461,95.0478 237.5,97.5C 236.878,110.182 236.045,122.849 235,135.5C 226.667,142.167 218.333,148.833 210,155.5C 209.514,140.125 210.18,124.791 212,109.5C 220.018,103.636 227.852,97.6365 235.5,91.5 Z"/></g>
<g><path style="opacity:1" fill="#0000eb" d="M 157.5,94.5 C 172.297,98.7916 186.964,103.458 201.5,108.5C 192.097,116.065 182.263,123.065 172,129.5C 156.983,124.717 142.15,119.551 127.5,114C 137.735,107.725 147.735,101.225 157.5,94.5 Z"/></g>
<g><path style="opacity:1" fill="#f9f9f9" d="M 74.5,103.5 C 82.9811,106.772 91.6478,109.438 100.5,111.5C 97.9121,118.092 95.4121,124.759 93,131.5C 90.9721,138.694 90.1388,146.027 90.5,153.5C 85.933,152.978 81.5997,151.645 77.5,149.5C 76.2108,134.179 75.2108,118.845 74.5,103.5 Z"/></g>
<g><path style="opacity:1" fill="#f7f7f7" d="M 107.5,114.5 C 110.699,115.899 114.032,116.899 117.5,117.5C 117.5,132.833 117.5,148.167 117.5,163.5C 110.442,161.869 103.608,159.536 97,156.5C 96.1264,141.409 99.6264,127.409 107.5,114.5 Z"/></g>
<g><path style="opacity:1" fill="#eb0000" d="M 177.5,181.5 C 176.506,172.348 176.173,163.015 176.5,153.5C 176.334,147.158 176.5,140.825 177,134.5C 186.667,127.5 196.333,120.5 206,113.5C 205.916,129.186 205.082,144.853 203.5,160.5C 194.79,167.554 186.123,174.554 177.5,181.5 Z"/></g>
<g><path style="opacity:1" fill="#fcfcfc" d="M 124.5,120.5 C 139.426,125.198 154.259,130.198 169,135.5C 169.833,151.51 169.666,167.51 168.5,183.5C 154.5,178.167 140.5,172.833 126.5,167.5C 125.382,151.852 124.715,136.185 124.5,120.5 Z"/></g>
<g><path style="opacity:1" fill="#e70000" d="M 260.5,121.5 C 261.693,121.97 262.36,122.97 262.5,124.5C 261.706,136.869 260.539,149.202 259,161.5C 251.982,168.019 244.815,174.353 237.5,180.5C 237.167,179.333 236.833,178.167 236.5,177C 237.862,164.538 238.695,152.038 239,139.5C 246.357,133.636 253.524,127.636 260.5,121.5 Z"/></g>
<g><path style="opacity:1" fill="#fafafa" d="M 32.5,140.5 C 45.1202,144.873 57.6202,149.54 70,154.5C 71.286,165.779 72.1193,177.113 72.5,188.5C 72.1667,191.167 71.8333,193.833 71.5,196.5C 59.5939,191.629 47.7605,186.629 36,181.5C 34.5758,167.85 33.4091,154.183 32.5,140.5 Z"/></g>
<g><path style="opacity:1" fill="#e70000" d="M 233.5,143.5 C 234.585,157.408 233.918,171.408 231.5,185.5C 223.518,192.315 215.684,199.315 208,206.5C 207.528,192.154 207.862,177.821 209,163.5C 217.646,157.348 225.813,150.681 233.5,143.5 Z"/></g>
<g><path style="opacity:1" fill="#fafafa" d="M 77.5,157.5 C 81.5388,158.624 85.5388,159.957 89.5,161.5C 91.4393,170.133 93.2727,178.8 95,187.5C 98.172,190.388 100.339,189.722 101.5,185.5C 99.1053,178.663 97.9387,171.663 98,164.5C 104.769,166.884 111.436,169.55 118,172.5C 118.5,186.496 118.667,200.496 118.5,214.5C 105.57,210.298 92.903,205.298 80.5,199.5C 78.9098,185.544 77.9098,171.544 77.5,157.5 Z"/></g>
<g><path style="opacity:1" fill="#5e0001" d="M 176.5,153.5 C 176.173,163.015 176.506,172.348 177.5,181.5C 177.44,182.043 177.107,182.376 176.5,182.5C 175.177,172.675 175.177,163.008 176.5,153.5 Z"/></g>
<g><path style="opacity:1" fill="#eb0000" d="M 202.5,169.5 C 203.486,173.97 203.819,178.637 203.5,183.5C 203.332,192.848 202.832,202.181 202,211.5C 193.333,218.669 184.833,226.002 176.5,233.5C 175.507,225.35 175.174,217.017 175.5,208.5C 175.334,202.491 175.501,196.491 176,190.5C 184.591,183.13 193.424,176.13 202.5,169.5 Z"/></g>
<g><path style="opacity:1" fill="#e70000" d="M 256.5,169.5 C 257.777,170.694 258.444,172.36 258.5,174.5C 257.914,185.211 256.914,195.878 255.5,206.5C 248.833,212.833 242.167,219.167 235.5,225.5C 234.454,213.164 234.621,200.831 236,188.5C 243.03,182.3 249.863,175.967 256.5,169.5 Z"/></g>
<g><path style="opacity:1" fill="#fafafa" d="M 125.5,175.5 C 139.952,180.43 154.286,185.763 168.5,191.5C 169.746,206.196 169.413,220.863 167.5,235.5C 153.913,229.87 140.246,224.536 126.5,219.5C 126.109,204.835 125.775,190.168 125.5,175.5 Z"/></g>
<g><path style="opacity:1" fill="#7b0001" d="M 203.5,183.5 C 203.819,178.637 203.486,173.97 202.5,169.5C 202.783,168.711 203.283,168.044 204,167.5C 204.817,173.016 204.651,178.35 203.5,183.5 Z"/></g>
<g><path style="opacity:1" fill="#fafafa" d="M 36.5,189.5 C 48.7015,193.599 60.7015,198.266 72.5,203.5C 73.8493,215.468 74.8493,227.468 75.5,239.5C 75.1667,240.833 74.8333,242.167 74.5,243.5C 62.9402,238.26 51.4402,232.926 40,227.5C 38.4135,214.868 37.2469,202.201 36.5,189.5 Z"/></g>
<g><path style="opacity:1" fill="#e70000" d="M 229.5,193.5 C 230.82,196.428 231.486,199.761 231.5,203.5C 231.059,212.503 230.559,221.503 230,230.5C 221.808,237.936 213.808,245.603 206,253.5C 205.846,240.155 206.346,226.822 207.5,213.5C 215.178,207.152 222.512,200.485 229.5,193.5 Z"/></g>
<g><path style="opacity:1" fill="#fcfcfc" d="M 119.5,244.5 C 119.823,250.69 119.49,256.69 118.5,262.5C 106.441,257.366 94.441,252.033 82.5,246.5C 81.1351,233.536 80.4685,220.536 80.5,207.5C 93.3231,212.108 105.99,217.108 118.5,222.5C 119.497,229.803 119.831,237.137 119.5,244.5 Z"/></g>
<g><path style="opacity:1" fill="#ea0000" d="M 175.5,282.5 C 174.509,275.687 174.175,268.687 174.5,261.5C 174.334,255.158 174.5,248.825 175,242.5C 183.703,234.129 192.703,226.129 202,218.5C 202.066,231.856 201.399,245.189 200,258.5C 191.938,266.73 183.772,274.73 175.5,282.5 Z"/></g>
<g><path style="opacity:1" fill="#fbfbfb" d="M 168.5,267.5 C 167.833,272.833 167.167,278.167 166.5,283.5C 153.405,278.121 140.405,272.454 127.5,266.5C 126.501,253.183 126.167,239.85 126.5,226.5C 140.53,231.852 154.53,237.185 168.5,242.5C 168.5,250.833 168.5,259.167 168.5,267.5 Z"/></g>
<g><path style="opacity:1" fill="#6a0000" d="M 175.5,208.5 C 175.174,217.017 175.507,225.35 176.5,233.5C 176.44,234.043 176.107,234.376 175.5,234.5C 174.179,225.675 174.179,217.009 175.5,208.5 Z"/></g>
<g><path style="opacity:1" fill="#505050" d="M 119.5,244.5 C 120.817,250.678 120.817,257.012 119.5,263.5C 118.893,263.376 118.56,263.043 118.5,262.5C 119.49,256.69 119.823,250.69 119.5,244.5 Z"/></g>
<g><path style="opacity:1" fill="#500000" d="M 174.5,261.5 C 174.175,268.687 174.509,275.687 175.5,282.5C 175.44,283.043 175.107,283.376 174.5,283.5C 173.181,276.01 173.181,268.677 174.5,261.5 Z"/></g>
<g><path style="opacity:1" fill="#7c7c7c" d="M 168.5,267.5 C 168.829,273.206 168.495,278.872 167.5,284.5C 166.893,284.376 166.56,284.043 166.5,283.5C 167.167,278.167 167.833,272.833 168.5,267.5 Z"/></g>
</svg>
