<?xml version="1.0" encoding="UTF-8"?>
<!DOCTYPE svg PUBLIC "-//W3C//DTD SVG 1.1//EN" "http://www.w3.org/Graphics/SVG/1.1/DTD/svg11.dtd">
<svg xmlns="http://www.w3.org/2000/svg" version="1.1" width="300px" height="300px" style="shape-rendering:geometricPrecision; text-rendering:geometricPrecision; image-rendering:optimizeQuality; fill-rule:evenodd; clip-rule:evenodd" xmlns:xlink="http://www.w3.org/1999/xlink">
<g><path style="opacity:0.97" fill="#080500" d="M 128.5,26.5 C 174.702,37.384 220.702,49.2173 266.5,62C 268.049,63.214 269.215,64.714 270,66.5C 267.505,113.93 263.839,161.263 259,208.5C 230.833,235.333 202.667,262.167 174.5,289C 170.739,289.738 167.072,289.405 163.5,288C 121.75,269.527 80.083,250.861 38.5,232C 36.9512,230.786 35.7845,229.286 35,227.5C 30.4479,179.543 26.7812,131.543 24,83.5C 24.7845,81.714 25.9512,80.214 27.5,79C 61.5424,61.9808 95.209,44.4808 128.5,26.5 Z"/></g>
<g><path style="opacity:1" fill="#f5f500" d="M 129.5,30.5 C 142.449,32.5384 155.115,35.7051 167.5,40C 159.5,44.6667 151.5,49.3333 143.5,54C 141.5,54.6667 139.5,54.6667 137.5,54C 126.305,51.1207 115.305,47.7873 104.5,44C 112.927,39.4569 121.26,34.9569 129.5,30.5 Z"/></g>
<g><path style="opacity:1" fill="#f4f400" d="M 174.5,41.5 C 187.585,44.6952 200.585,48.1952 213.5,52C 205.259,57.9093 196.759,63.4093 188,68.5C 174.856,64.589 161.689,60.7557 148.5,57C 157.395,52.059 166.062,46.8923 174.5,41.5 Z"/></g>
<g><path style="opacity:1" fill="#f7f700" d="M 96.5,47.5 C 109.977,49.2855 122.977,52.7855 135.5,58C 127.092,63.3995 118.425,68.3995 109.5,73C 107.167,73.6667 104.833,73.6667 102.5,73C 91.576,69.9148 80.9093,66.2481 70.5,62C 79.3903,57.3925 88.057,52.5591 96.5,47.5 Z"/></g>
<g><path style="opacity:1" fill="#f5f500" d="M 219.5,54.5 C 234.098,57.0663 248.431,60.7329 262.5,65.5C 254.461,71.3764 246.294,77.0431 238,82.5C 223.992,78.718 210.159,74.5513 196.5,70C 204.344,64.9703 212.011,59.8037 219.5,54.5 Z"/></g>
<g><path style="opacity:1" fill="#f7f700" d="M 142.5,59.5 C 156.098,63.3902 169.765,67.2235 183.5,71C 174.833,76.6667 166.167,82.3333 157.5,88C 154.485,88.2009 151.485,87.8676 148.5,87C 137.352,83.7286 126.352,80.0619 115.5,76C 124.897,70.9765 133.897,65.4765 142.5,59.5 Z"/></g>
<g><path style="opacity:1" fill="#f7f700" d="M 62.5,65.5 C 75.7392,68.6906 88.7392,72.6906 101.5,77.5C 91.3703,83.1338 81.3703,88.9672 71.5,95C 57.8938,91.9662 44.5605,87.7995 31.5,82.5C 42.0557,77.0591 52.3891,71.3925 62.5,65.5 Z"/></g>
<g><path style="opacity:1" fill="#00d200" d="M 241.5,130.5 C 240.523,127.713 240.19,124.713 240.5,121.5C 240.548,109.726 241.548,98.0598 243.5,86.5C 250.912,81.0439 258.412,75.7105 266,70.5C 265.624,84.849 264.624,99.1823 263,113.5C 255.958,119.381 248.792,125.047 241.5,130.5 Z"/></g>
<g><path style="opacity:1" fill="#f7f700" d="M 190.5,73.5 C 205.298,77.2258 219.965,81.3925 234.5,86C 226.222,91.2781 218.222,96.9448 210.5,103C 208.635,104.301 206.635,104.635 204.5,104C 190.85,99.6682 177.183,95.3349 163.5,91C 172.675,85.3036 181.675,79.4703 190.5,73.5 Z"/></g>
<g><path style="opacity:1" fill="#f8f800" d="M 108.5,79.5 C 122.61,83.1464 136.61,87.3131 150.5,92C 141.167,98 131.833,104 122.5,110C 120.635,111.301 118.635,111.635 116.5,111C 103.489,106.663 90.4891,102.33 77.5,98C 87.8967,91.8073 98.23,85.6406 108.5,79.5 Z"/></g>
<g><path style="opacity:1" fill="#eb0000" d="M 28.5,88.5 C 41.3858,92.9066 54.3858,96.9066 67.5,100.5C 68.009,113.338 68.6757,126.171 69.5,139C 69.1667,141.5 68.8333,144 68.5,146.5C 56.3737,141.685 44.2071,137.019 32,132.5C 30.8327,117.826 29.6661,103.16 28.5,88.5 Z"/></g>
<g><path style="opacity:1" fill="#00d300" d="M 235.5,91.5 C 236.8,93.223 237.467,95.3897 237.5,98C 236.706,110.502 235.872,123.002 235,135.5C 226.955,142.547 218.622,149.213 210,155.5C 209.669,140.133 210.335,124.8 212,109.5C 220.018,103.636 227.852,97.6365 235.5,91.5 Z"/></g>
<g><path style="opacity:1" fill="#f7f700" d="M 157.5,94.5 C 172.297,98.7916 186.964,103.458 201.5,108.5C 192.097,116.065 182.263,123.065 172,129.5C 156.983,124.717 142.15,119.551 127.5,114C 137.735,107.725 147.735,101.225 157.5,94.5 Z"/></g>
<g><path style="opacity:1" fill="#ea0000" d="M 74.5,103.5 C 88.8341,108.167 103.167,112.834 117.5,117.5C 117.5,132.833 117.5,148.167 117.5,163.5C 104.001,159.422 90.6672,154.756 77.5,149.5C 76.4298,134.164 75.4298,118.83 74.5,103.5 Z"/></g>
<g><path style="opacity:1" fill="#00d500" d="M 177.5,181.5 C 176.506,171.013 176.172,160.346 176.5,149.5C 176.334,144.489 176.501,139.489 177,134.5C 186.667,127.5 196.333,120.5 206,113.5C 205.734,129.155 205.067,144.822 204,160.5C 195.004,167.333 186.171,174.333 177.5,181.5 Z"/></g>
<g><path style="opacity:1" fill="#ea0000" d="M 124.5,120.5 C 139.5,125.167 154.5,129.833 169.5,134.5C 169.833,150.847 169.499,167.18 168.5,183.5C 154.5,178.167 140.5,172.833 126.5,167.5C 125.382,151.852 124.715,136.185 124.5,120.5 Z"/></g>
<g><path style="opacity:1" fill="#00d300" d="M 238.5,179.5 C 237.539,177.735 237.205,175.735 237.5,173.5C 237.97,162.169 238.47,150.835 239,139.5C 246.356,133.31 253.856,127.31 261.5,121.5C 261.833,134.835 261,148.169 259,161.5C 252.295,167.709 245.462,173.709 238.5,179.5 Z"/></g>
<g><path style="opacity:1" fill="#006002" d="M 240.5,121.5 C 240.19,124.713 240.523,127.713 241.5,130.5C 241.44,131.043 241.107,131.376 240.5,131.5C 239.194,128.02 239.194,124.687 240.5,121.5 Z"/></g>
<g><path style="opacity:1" fill="#e90000" d="M 32.5,140.5 C 45.1202,144.873 57.6202,149.54 70,154.5C 71.286,165.779 72.1193,177.113 72.5,188.5C 72.1667,191.167 71.8333,193.833 71.5,196.5C 59.5939,191.629 47.7605,186.629 36,181.5C 34.5749,167.844 33.4083,154.177 32.5,140.5 Z"/></g>
<g><path style="opacity:1" fill="#00d100" d="M 233.5,143.5 C 234.222,157.387 233.555,171.387 231.5,185.5C 223.518,192.315 215.684,199.315 208,206.5C 207.333,200.833 207.333,195.167 208,189.5C 211.833,186.333 215.667,183.167 219.5,180C 223.26,177.83 224.26,174.83 222.5,171C 217.267,172.735 212.767,175.902 209,180.5C 208.333,174.833 208.333,169.167 209,163.5C 217.646,157.348 225.813,150.681 233.5,143.5 Z"/></g>
<g><path style="opacity:1" fill="#e80000" d="M 77.5,157.5 C 90.9197,162.041 104.253,166.874 117.5,172C 118.48,179.079 118.813,186.245 118.5,193.5C 113.453,191.809 108.787,189.309 104.5,186C 105.257,184.488 106.257,183.154 107.5,182C 101.489,181.332 95.4887,180.998 89.5,181C 92.1047,185.543 94.4381,190.209 96.5,195C 98.0554,194.575 99.5554,193.742 101,192.5C 106.651,195.493 112.318,198.493 118,201.5C 118.499,205.821 118.666,210.154 118.5,214.5C 105.427,210.196 92.5939,205.196 80,199.5C 78.9081,185.512 78.0747,171.512 77.5,157.5 Z"/></g>
<g><path style="opacity:1" fill="#004a03" d="M 176.5,149.5 C 176.172,160.346 176.506,171.013 177.5,181.5C 177.44,182.043 177.107,182.376 176.5,182.5C 175.176,171.34 175.176,160.34 176.5,149.5 Z"/></g>
<g><path style="opacity:1" fill="#00d100" d="M 202.5,169.5 C 203.486,173.97 203.819,178.637 203.5,183.5C 195.628,190.275 186.628,195.275 176.5,198.5C 174.772,194.457 175.438,190.957 178.5,188C 186.661,182.001 194.661,175.834 202.5,169.5 Z"/></g>
<g><path style="opacity:1" fill="#00d100" d="M 256.5,169.5 C 257.777,170.694 258.444,172.36 258.5,174.5C 257.914,185.211 256.914,195.878 255.5,206.5C 248.5,213.167 241.5,219.833 234.5,226.5C 234.167,225.833 233.833,225.167 233.5,224.5C 234.455,212.52 235.289,200.52 236,188.5C 243.03,182.3 249.863,175.967 256.5,169.5 Z"/></g>
<g><path style="opacity:1" fill="#e60000" d="M 125.5,175.5 C 139.825,180.554 154.158,185.721 168.5,191C 169.787,194.125 169.787,197.291 168.5,200.5C 154.204,203.78 140.204,202.78 126.5,197.5C 125.503,190.197 125.169,182.863 125.5,175.5 Z"/></g>
<g><path style="opacity:1" fill="#006f00" d="M 203.5,183.5 C 203.819,178.637 203.486,173.97 202.5,169.5C 202.783,168.711 203.283,168.044 204,167.5C 204.817,173.016 204.651,178.35 203.5,183.5 Z"/></g>
<g><path style="opacity:1" fill="#006d00" d="M 237.5,173.5 C 237.205,175.735 237.539,177.735 238.5,179.5C 238.44,180.043 238.107,180.376 237.5,180.5C 236.203,178.027 236.203,175.693 237.5,173.5 Z"/></g>
<g><path style="opacity:1" fill="#ea0000" d="M 36.5,189.5 C 48.6909,193.592 60.6909,198.259 72.5,203.5C 73.8493,215.468 74.8493,227.468 75.5,239.5C 75.1667,240.833 74.8333,242.167 74.5,243.5C 62.9402,238.26 51.4402,232.926 40,227.5C 38.7225,214.836 37.5558,202.169 36.5,189.5 Z"/></g>
<g><path style="opacity:1" fill="#00d000" d="M 176.5,233.5 C 175.507,224.682 175.173,215.682 175.5,206.5C 184.933,202.533 194.1,197.866 203,192.5C 203.87,198.917 203.536,205.251 202,211.5C 193.333,218.669 184.833,226.002 176.5,233.5 Z"/></g>
<g><path style="opacity:1" fill="#00d200" d="M 229.5,193.5 C 230.8,195.223 231.467,197.39 231.5,200C 230.848,210.158 230.348,220.325 230,230.5C 222.192,238.397 214.192,246.064 206,253.5C 205.73,240.161 206.064,226.827 207,213.5C 214.992,207.339 222.492,200.673 229.5,193.5 Z"/></g>
<g><path style="opacity:1" fill="#e80000" d="M 126.5,204.5 C 140.207,208.62 154.207,209.62 168.5,207.5C 168.832,216.857 168.498,226.19 167.5,235.5C 153.913,229.87 140.246,224.536 126.5,219.5C 126.5,214.5 126.5,209.5 126.5,204.5 Z"/></g>
<g><path style="opacity:1" fill="#eb0000" d="M 119.5,244.5 C 119.823,250.69 119.49,256.69 118.5,262.5C 106.441,257.366 94.441,252.033 82.5,246.5C 81.1351,233.536 80.4685,220.536 80.5,207.5C 93.3231,212.108 105.99,217.108 118.5,222.5C 119.497,229.803 119.831,237.137 119.5,244.5 Z"/></g>
<g><path style="opacity:1" fill="#00d300" d="M 175.5,282.5 C 174.507,274.35 174.174,266.017 174.5,257.5C 174.334,252.489 174.501,247.489 175,242.5C 183.703,234.129 192.703,226.129 202,218.5C 201.92,231.824 201.587,245.157 201,258.5C 192.302,266.366 183.802,274.366 175.5,282.5 Z"/></g>
<g><path style="opacity:1" fill="#005402" d="M 175.5,206.5 C 175.173,215.682 175.507,224.682 176.5,233.5C 176.44,234.043 176.107,234.376 175.5,234.5C 174.178,225.008 174.178,215.675 175.5,206.5 Z"/></g>
<g><path style="opacity:1" fill="#ea0000" d="M 168.5,267.5 C 167.833,272.833 167.167,278.167 166.5,283.5C 153.405,278.121 140.405,272.454 127.5,266.5C 126.501,253.183 126.167,239.85 126.5,226.5C 140.53,231.852 154.53,237.185 168.5,242.5C 168.5,250.833 168.5,259.167 168.5,267.5 Z"/></g>
<g><path style="opacity:1" fill="#4a0100" d="M 119.5,244.5 C 120.817,250.678 120.817,257.012 119.5,263.5C 118.893,263.376 118.56,263.043 118.5,262.5C 119.49,256.69 119.823,250.69 119.5,244.5 Z"/></g>
<g><path style="opacity:1" fill="#003f02" d="M 174.5,257.5 C 174.174,266.017 174.507,274.35 175.5,282.5C 175.44,283.043 175.107,283.376 174.5,283.5C 173.179,274.675 173.179,266.009 174.5,257.5 Z"/></g>
<g><path style="opacity:1" fill="#740000" d="M 168.5,267.5 C 168.829,273.206 168.495,278.872 167.5,284.5C 166.893,284.376 166.56,284.043 166.5,283.5C 167.167,278.167 167.833,272.833 168.5,267.5 Z"/></g>
</svg>
