<?xml version="1.0" encoding="UTF-8"?>
<!DOCTYPE svg PUBLIC "-//W3C//DTD SVG 1.1//EN" "http://www.w3.org/Graphics/SVG/1.1/DTD/svg11.dtd">
<svg xmlns="http://www.w3.org/2000/svg" version="1.1" width="300px" height="300px" style="shape-rendering:geometricPrecision; text-rendering:geometricPrecision; image-rendering:optimizeQuality; fill-rule:evenodd; clip-rule:evenodd" xmlns:xlink="http://www.w3.org/1999/xlink">
<g><path style="opacity:0.97" fill="#070502" d="M 128.5,26.5 C 174.702,37.384 220.702,49.2173 266.5,62C 268.049,63.214 269.215,64.714 270,66.5C 267.505,113.93 263.839,161.263 259,208.5C 230.833,235.333 202.667,262.167 174.5,289C 170.739,289.738 167.072,289.405 163.5,288C 121.75,269.527 80.083,250.861 38.5,232C 36.9512,230.786 35.7845,229.286 35,227.5C 30.4479,179.543 26.7812,131.543 24,83.5C 24.7845,81.714 25.9512,80.214 27.5,79C 61.5424,61.9808 95.209,44.4808 128.5,26.5 Z"/></g>
<g><path style="opacity:1" fill="#f69b00" d="M 129.5,30.5 C 142.403,32.7258 155.07,35.8925 167.5,40C 159.5,44.6667 151.5,49.3333 143.5,54C 141.5,54.6667 139.5,54.6667 137.5,54C 126.305,51.1207 115.305,47.7873 104.5,44C 112.895,39.4715 121.228,34.9715 129.5,30.5 Z"/></g>
<g><path style="opacity:1" fill="#f69b00" d="M 174.5,41.5 C 187.541,44.8437 200.541,48.3437 213.5,52C 205.259,57.9093 196.759,63.4093 188,68.5C 174.856,64.589 161.689,60.7557 148.5,57C 157.395,52.059 166.062,46.8923 174.5,41.5 Z"/></g>
<g><path style="opacity:1" fill="#f89c00" d="M 96.5,47.5 C 109.923,49.4752 122.923,52.9752 135.5,58C 127.092,63.3995 118.425,68.3995 109.5,73C 107.167,73.6667 104.833,73.6667 102.5,73C 91.3194,69.7176 80.3194,66.0509 69.5,62C 78.8801,57.6468 87.8801,52.8135 96.5,47.5 Z"/></g>
<g><path style="opacity:1" fill="#f79c00" d="M 219.5,54.5 C 234.098,57.0663 248.431,60.7329 262.5,65.5C 254.461,71.3764 246.294,77.0431 238,82.5C 223.992,78.718 210.159,74.5513 196.5,70C 204.344,64.9703 212.011,59.8037 219.5,54.5 Z"/></g>
<g><path style="opacity:1" fill="#f59a00" d="M 142.5,59.5 C 156.086,63.3888 169.753,67.2221 183.5,71C 181.223,72.9585 178.723,74.4585 176,75.5C 166.656,72.7849 157.156,71.6182 147.5,72C 146.14,73.9376 146.473,75.6043 148.5,77C 155.294,78.0452 161.96,79.3786 168.5,81C 164.664,83.0836 160.997,85.417 157.5,88C 154.485,88.2009 151.485,87.8676 148.5,87C 137.352,83.7286 126.352,80.0619 115.5,76C 124.897,70.9765 133.897,65.4765 142.5,59.5 Z"/></g>
<g><path style="opacity:1" fill="#f89c00" d="M 62.5,65.5 C 75.7392,68.6906 88.7392,72.6906 101.5,77.5C 91.3703,83.1338 81.3703,88.9672 71.5,95C 57.8938,91.9662 44.5605,87.7995 31.5,82.5C 42.0557,77.0591 52.3891,71.3925 62.5,65.5 Z"/></g>
<g><path style="opacity:1" fill="#f7f700" d="M 241.5,130.5 C 240.523,127.713 240.19,124.713 240.5,121.5C 240.548,109.726 241.548,98.0598 243.5,86.5C 250.912,81.0439 258.412,75.7105 266,70.5C 265.592,84.8496 264.592,99.1829 263,113.5C 255.958,119.381 248.792,125.047 241.5,130.5 Z"/></g>
<g><path style="opacity:1" fill="#f59a00" d="M 190.5,73.5 C 205.298,77.2258 219.965,81.3925 234.5,86C 228.278,90.3987 221.945,94.5654 215.5,98.5C 206.661,89.51 196.328,82.6767 184.5,78C 186.684,76.6366 188.684,75.1366 190.5,73.5 Z"/></g>
<g><path style="opacity:1" fill="#f99d00" d="M 108.5,79.5 C 122.61,83.1464 136.61,87.3131 150.5,92C 141.167,98 131.833,104 122.5,110C 120.635,111.301 118.635,111.635 116.5,111C 103.489,106.663 90.4891,102.33 77.5,98C 87.8967,91.8073 98.23,85.6406 108.5,79.5 Z"/></g>
<g><path style="opacity:1" fill="#f29900" d="M 175.5,82.5 C 189.233,85.5256 200.566,92.3589 209.5,103C 208.07,104.44 206.403,104.774 204.5,104C 190.85,99.6682 177.183,95.3349 163.5,91C 167.742,88.3904 171.742,85.5571 175.5,82.5 Z"/></g>
<g><path style="opacity:1" fill="#0000ed" d="M 28.5,88.5 C 41.3858,92.9066 54.3858,96.9066 67.5,100.5C 69.2207,115.799 69.5541,131.133 68.5,146.5C 56.2774,141.927 44.1108,137.26 32,132.5C 30.8324,117.822 29.6657,103.156 28.5,88.5 Z"/></g>
<g><path style="opacity:1" fill="#f6f600" d="M 235.5,91.5 C 236.821,94.5982 237.488,98.0982 237.5,102C 236.74,113.17 235.907,124.337 235,135.5C 233.185,137.405 231.185,139.072 229,140.5C 228.482,127.948 225.315,116.114 219.5,105C 219.759,103.739 220.426,102.739 221.5,102C 226.414,98.7226 231.08,95.2226 235.5,91.5 Z"/></g>
<g><path style="opacity:1" fill="#f89c00" d="M 157.5,94.5 C 172.297,98.7916 186.964,103.458 201.5,108.5C 192.097,116.065 182.263,123.065 172,129.5C 156.983,124.717 142.15,119.551 127.5,114C 137.735,107.725 147.735,101.225 157.5,94.5 Z"/></g>
<g><path style="opacity:1" fill="#0000ed" d="M 74.5,103.5 C 88.8341,108.167 103.167,112.834 117.5,117.5C 117.5,132.833 117.5,148.167 117.5,163.5C 103.993,159.442 90.6599,154.775 77.5,149.5C 75.8707,134.21 74.8707,118.877 74.5,103.5 Z"/></g>
<g><path style="opacity:1" fill="#f0f000" d="M 212.5,108.5 C 213.458,108.953 214.292,109.619 215,110.5C 220.868,121.84 222.868,133.84 221,146.5C 217.333,149.5 213.667,152.5 210,155.5C 209.229,139.701 210.063,124.034 212.5,108.5 Z"/></g>
<g><path style="opacity:1" fill="#fafa00" d="M 177.5,181.5 C 176.509,175.021 176.176,168.354 176.5,161.5C 176.334,152.494 176.5,143.494 177,134.5C 186.667,127.5 196.333,120.5 206,113.5C 205.75,129.16 205.084,144.826 204,160.5C 195.004,167.333 186.171,174.333 177.5,181.5 Z"/></g>
<g><path style="opacity:1" fill="#0000ed" d="M 124.5,120.5 C 139.5,125.167 154.5,129.833 169.5,134.5C 169.833,150.847 169.499,167.18 168.5,183.5C 154.5,178.167 140.5,172.833 126.5,167.5C 125.682,164.893 125.182,162.226 125,159.5C 124.5,146.504 124.333,133.504 124.5,120.5 Z"/></g>
<g><path style="opacity:1" fill="#f8f800" d="M 238.5,179.5 C 237.539,177.735 237.205,175.735 237.5,173.5C 237.97,162.169 238.47,150.835 239,139.5C 246.356,133.31 253.856,127.31 261.5,121.5C 261.833,134.835 261,148.169 259,161.5C 252.295,167.709 245.462,173.709 238.5,179.5 Z"/></g>
<g><path style="opacity:1" fill="#727201" d="M 240.5,121.5 C 240.19,124.713 240.523,127.713 241.5,130.5C 241.44,131.043 241.107,131.376 240.5,131.5C 239.194,128.02 239.194,124.687 240.5,121.5 Z"/></g>
<g><path style="opacity:1" fill="#0000ec" d="M 32.5,140.5 C 45.1765,144.84 57.8432,149.173 70.5,153.5C 71.8334,167.827 72.1668,182.161 71.5,196.5C 59.5939,191.629 47.7605,186.629 36,181.5C 34.5758,167.85 33.4091,154.183 32.5,140.5 Z"/></g>
<g><path style="opacity:1" fill="#efef00" d="M 233.5,143.5 C 234.585,157.408 233.918,171.408 231.5,185.5C 223.518,192.315 215.684,199.315 208,206.5C 207.637,192.158 207.97,177.825 209,163.5C 212.358,160.642 215.858,157.975 219.5,155.5C 219.833,156.333 220.167,157.167 220.5,158C 219.907,161.151 219.407,164.318 219,167.5C 217.278,167.962 215.445,168.128 213.5,168C 215.107,173.27 216.94,178.437 219,183.5C 222.333,180.167 225.667,176.833 229,173.5C 229.333,171.066 228.166,170.066 225.5,170.5C 226.098,163.148 226.931,155.815 228,148.5C 230.191,147.167 232.024,145.5 233.5,143.5 Z"/></g>
<g><path style="opacity:1" fill="#0000ee" d="M 118.5,202.5 C 119.089,206.971 118.423,210.971 116.5,214.5C 104.169,209.918 92.0019,204.918 80,199.5C 78.6808,185.541 77.8475,171.541 77.5,157.5C 91.2623,161.809 104.762,166.809 118,172.5C 118.5,182.494 118.666,192.494 118.5,202.5 Z"/></g>
<g><path style="opacity:1" fill="#fbfb00" d="M 202.5,169.5 C 203.486,173.97 203.819,178.637 203.5,183.5C 203.332,192.848 202.832,202.181 202,211.5C 193.333,218.669 184.833,226.002 176.5,233.5C 175.506,224.014 175.173,214.348 175.5,204.5C 175.334,199.821 175.501,195.155 176,190.5C 184.591,183.13 193.424,176.13 202.5,169.5 Z"/></g>
<g><path style="opacity:1" fill="#f7f700" d="M 256.5,169.5 C 257.777,170.694 258.444,172.36 258.5,174.5C 257.914,185.211 256.914,195.878 255.5,206.5C 248.833,212.833 242.167,219.167 235.5,225.5C 234.566,213.169 234.733,200.836 236,188.5C 243.03,182.3 249.863,175.967 256.5,169.5 Z"/></g>
<g><path style="opacity:1" fill="#0000eb" d="M 125.5,175.5 C 140.239,180.136 154.739,185.469 169,191.5C 169.915,206.223 169.415,220.89 167.5,235.5C 153.595,229.963 139.761,224.296 126,218.5C 125.5,204.171 125.333,189.837 125.5,175.5 Z"/></g>
<g><path style="opacity:1" fill="#838300" d="M 203.5,183.5 C 203.819,178.637 203.486,173.97 202.5,169.5C 202.783,168.711 203.283,168.044 204,167.5C 204.817,173.016 204.651,178.35 203.5,183.5 Z"/></g>
<g><path style="opacity:1" fill="#868600" d="M 237.5,173.5 C 237.205,175.735 237.539,177.735 238.5,179.5C 238.44,180.043 238.107,180.376 237.5,180.5C 236.203,178.027 236.203,175.693 237.5,173.5 Z"/></g>
<g><path style="opacity:1" fill="#7d7d00" d="M 176.5,161.5 C 176.176,168.354 176.509,175.021 177.5,181.5C 177.44,182.043 177.107,182.376 176.5,182.5C 175.181,175.344 175.181,168.344 176.5,161.5 Z"/></g>
<g><path style="opacity:1" fill="#0000ec" d="M 74.5,235.5 C 74.8016,238.059 74.4682,240.393 73.5,242.5C 62.156,237.827 50.8227,233.16 39.5,228.5C 37.9258,215.204 37.0925,201.871 37,188.5C 48.7605,193.629 60.5939,198.629 72.5,203.5C 74.0409,214.109 74.7075,224.776 74.5,235.5 Z"/></g>
<g><path style="opacity:1" fill="#f5f500" d="M 229.5,193.5 C 230.82,196.428 231.486,199.761 231.5,203.5C 231.059,212.503 230.559,221.503 230,230.5C 222.192,238.397 214.192,246.064 206,253.5C 205.73,240.161 206.064,226.827 207,213.5C 214.992,207.339 222.492,200.673 229.5,193.5 Z"/></g>
<g><path style="opacity:1" fill="#0000ee" d="M 81.5,207.5 C 93.9234,212.307 106.257,217.307 118.5,222.5C 119.497,229.803 119.831,237.137 119.5,244.5C 119.823,250.69 119.49,256.69 118.5,262.5C 106.164,257.583 93.9972,252.249 82,246.5C 81.4823,236.83 80.9823,227.163 80.5,217.5C 80.1872,213.958 80.5206,210.625 81.5,207.5 Z"/></g>
<g><path style="opacity:1" fill="#ff034e" d="M 118.5,202.5 C 119.485,206.634 119.818,210.968 119.5,215.5C 118.209,215.737 117.209,215.404 116.5,214.5C 118.423,210.971 119.089,206.971 118.5,202.5 Z"/></g>
<g><path style="opacity:1" fill="#fe0554" d="M 81.5,207.5 C 80.5206,210.625 80.1872,213.958 80.5,217.5C 79.1923,213.981 79.1923,210.315 80.5,206.5C 81.1067,206.624 81.44,206.957 81.5,207.5 Z"/></g>
<g><path style="opacity:1" fill="#f8f800" d="M 175.5,282.5 C 174.507,274.35 174.174,266.017 174.5,257.5C 174.334,252.489 174.501,247.489 175,242.5C 183.703,234.129 192.703,226.129 202,218.5C 201.92,231.824 201.587,245.157 201,258.5C 192.302,266.366 183.802,274.366 175.5,282.5 Z"/></g>
<g><path style="opacity:1" fill="#606002" d="M 175.5,204.5 C 175.173,214.348 175.506,224.014 176.5,233.5C 176.44,234.043 176.107,234.376 175.5,234.5C 174.177,224.341 174.177,214.341 175.5,204.5 Z"/></g>
<g><path style="opacity:1" fill="#0000ee" d="M 168.5,267.5 C 167.833,272.833 167.167,278.167 166.5,283.5C 153.405,278.121 140.405,272.454 127.5,266.5C 126.501,253.183 126.167,239.85 126.5,226.5C 140.53,231.852 154.53,237.185 168.5,242.5C 168.5,250.833 168.5,259.167 168.5,267.5 Z"/></g>
<g><path style="opacity:1" fill="#000080" d="M 74.5,235.5 C 75.8003,238.024 75.8003,240.691 74.5,243.5C 73.8933,243.376 73.56,243.043 73.5,242.5C 74.4682,240.393 74.8016,238.059 74.5,235.5 Z"/></g>
<g><path style="opacity:1" fill="#00024c" d="M 119.5,244.5 C 120.817,250.678 120.817,257.012 119.5,263.5C 118.893,263.376 118.56,263.043 118.5,262.5C 119.49,256.69 119.823,250.69 119.5,244.5 Z"/></g>
<g><path style="opacity:1" fill="#4a4a02" d="M 174.5,257.5 C 174.174,266.017 174.507,274.35 175.5,282.5C 175.44,283.043 175.107,283.376 174.5,283.5C 173.179,274.675 173.179,266.009 174.5,257.5 Z"/></g>
<g><path style="opacity:1" fill="#000076" d="M 168.5,267.5 C 168.829,273.206 168.495,278.872 167.5,284.5C 166.893,284.376 166.56,284.043 166.5,283.5C 167.167,278.167 167.833,272.833 168.5,267.5 Z"/></g>
</svg>
